<?xml version="1.0" encoding="UTF-8" standalone="no"?>
<svg
   style="fill-opacity:1; color-rendering:auto; color-interpolation:auto; text-rendering:auto; stroke:black; stroke-linecap:square; stroke-miterlimit:10; shape-rendering:auto; stroke-opacity:1; fill:black; stroke-dasharray:none; font-weight:normal; stroke-width:1; font-family:'Dialog'; font-style:normal; stroke-linejoin:miter; font-size:12px; stroke-dashoffset:0; image-rendering:auto;"
   width="235"
   height="182"
   version="1.1"
   id="svg143"
   sodipodi:docname="diffRlist-ETA95-GAMMA90.svg"
   inkscape:export-filename="diffRlist-ETA95-GAMMA90.pdf"
   inkscape:export-xdpi="600"
   inkscape:export-ydpi="600"
   inkscape:version="1.2.2 (732a01da63, 2022-12-09)"
   xmlns:inkscape="http://www.inkscape.org/namespaces/inkscape"
   xmlns:sodipodi="http://sodipodi.sourceforge.net/DTD/sodipodi-0.dtd"
   xmlns="http://www.w3.org/2000/svg"
   xmlns:svg="http://www.w3.org/2000/svg">
  <sodipodi:namedview
     id="namedview145"
     pagecolor="#ffffff"
     bordercolor="#000000"
     borderopacity="0.25"
     inkscape:showpageshadow="2"
     inkscape:pageopacity="0.0"
     inkscape:pagecheckerboard="0"
     inkscape:deskcolor="#d1d1d1"
     showgrid="false"
     inkscape:zoom="4.5549451"
     inkscape:cx="117.45476"
     inkscape:cy="91.109771"
     inkscape:window-width="1920"
     inkscape:window-height="1009"
     inkscape:window-x="-8"
     inkscape:window-y="-8"
     inkscape:window-maximized="1"
     inkscape:current-layer="svg143" />
  <!--Generated by the Batik Graphics2D SVG Generator-->
  <defs
     id="genericDefs" />
  <g
     id="g141">
    <defs
       id="defs1">
      <clipPath
         clipPathUnits="userSpaceOnUse"
         id="clipPath1">
        <path
           d="M0 0 L235 0 L235 182 L0 182 L0 0 Z"
           id="path3" />
      </clipPath>
    </defs>
    <g
       style="fill:white; stroke:white;"
       id="g9">
      <rect
         x="0"
         y="0"
         width="235"
         style="clip-path:url(#clipPath1); stroke:none;"
         height="182"
         clip-path="url(#clipPath1)"
         id="rect7" />
    </g>
    <g
       style="fill:white; text-rendering:optimizeSpeed; color-rendering:optimizeSpeed; image-rendering:optimizeSpeed; shape-rendering:crispEdges; stroke:white; color-interpolation:sRGB;"
       id="g15">
      <rect
         x="0"
         width="235"
         height="182"
         y="0"
         style="stroke:none;"
         id="rect11" />
      <path
         style="stroke:none;"
         d="M44 142 L213 142 L213 23 L44 23 Z"
         id="path13" />
    </g>
    <g
       style="fill:rgb(38,38,38); text-rendering:geometricPrecision; image-rendering:optimizeQuality; color-rendering:optimizeQuality; stroke-linejoin:round; stroke:rgb(38,38,38); color-interpolation:linearRGB; stroke-width:0.6667;"
       id="g33">
      <line
         y2="142"
         style="fill:none;"
         x1="44"
         x2="213"
         y1="142"
         id="line17" />
      <line
         y2="23"
         style="fill:none;"
         x1="44"
         x2="213"
         y1="23"
         id="line19" />
      <line
         y2="140.31"
         style="fill:none;"
         x1="44"
         x2="44"
         y1="142"
         id="line21" />
      <line
         y2="140.31"
         style="fill:none;"
         x1="128.5"
         x2="128.5"
         y1="142"
         id="line23" />
      <line
         y2="140.31"
         style="fill:none;"
         x1="213"
         x2="213"
         y1="142"
         id="line25" />
      <line
         y2="24.69"
         style="fill:none;"
         x1="44"
         x2="44"
         y1="23"
         id="line27" />
      <line
         y2="24.69"
         style="fill:none;"
         x1="128.5"
         x2="128.5"
         y1="23"
         id="line29" />
      <line
         y2="24.69"
         style="fill:none;"
         x1="213"
         x2="213"
         y1="23"
         id="line31" />
    </g>
    <g
       transform="translate(44,147.3333)"
       style="font-size:13.3333px; fill:rgb(38,38,38); text-rendering:geometricPrecision; image-rendering:optimizeQuality; color-rendering:optimizeQuality; font-family:'mwa_cmr10'; stroke:rgb(38,38,38); color-interpolation:linearRGB;"
       id="g37">
      <path
         style="stroke:none;"
         d="M-0.0833 11.4812 Q-1.6771 11.4812 -2.2474 10.1687 Q-2.8177 8.8562 -2.8177 7.0593 Q-2.8177 5.9187 -2.6146 4.9265 Q-2.4115 3.9343 -1.8021 3.239 Q-1.1927 2.5437 -0.0833 2.5437 Q0.776 2.5437 1.3229 2.9578 Q1.8698 3.3718 2.151 4.0359 Q2.4323 4.7 2.5417 5.4578 Q2.651 6.2156 2.651 7.0593 Q2.651 8.1687 2.4401 9.1453 Q2.2292 10.1218 1.6276 10.8015 Q1.026 11.4812 -0.0833 11.4812 ZM-0.0833 11.1531 Q0.6354 11.1531 0.9948 10.4109 Q1.3542 9.6687 1.4323 8.7625 Q1.5104 7.8562 1.5104 6.8406 Q1.5104 5.8718 1.4323 5.0437 Q1.3542 4.2156 1.0026 3.5437 Q0.651 2.8718 -0.0833 2.8718 Q-0.8177 2.8718 -1.1771 3.5515 Q-1.5365 4.2312 -1.6146 5.0515 Q-1.6927 5.8718 -1.6927 6.8406 Q-1.6927 7.575 -1.6615 8.2156 Q-1.6302 8.8562 -1.474 9.5359 Q-1.3177 10.2156 -0.9818 10.6843 Q-0.6458 11.1531 -0.0833 11.1531 Z"
         id="path35" />
    </g>
    <g
       transform="translate(128.5,147.3333)"
       style="font-size:13.3333px; fill:rgb(38,38,38); text-rendering:geometricPrecision; image-rendering:optimizeQuality; color-rendering:optimizeQuality; font-family:'mwa_cmr10'; stroke:rgb(38,38,38); color-interpolation:linearRGB;"
       id="g45">
      <path
         style="stroke:none;"
         d="M-8.875 9.7156 Q-8.7344 10.1062 -8.461 10.4187 Q-8.1875 10.7312 -7.8047 10.9031 Q-7.4219 11.075 -7.0156 11.075 Q-6.0781 11.075 -5.7266 10.3406 Q-5.375 9.6062 -5.375 8.575 Q-5.375 8.1218 -5.3906 7.8171 Q-5.4063 7.5125 -5.4688 7.2156 Q-5.5938 6.7625 -5.8985 6.4187 Q-6.2031 6.075 -6.6406 6.075 Q-7.0781 6.075 -7.3906 6.2078 Q-7.7031 6.3406 -7.8985 6.5203 Q-8.0938 6.7 -8.25 6.8953 Q-8.4063 7.0906 -8.4375 7.1062 L-8.5781 7.1062 Q-8.6094 7.1062 -8.6641 7.0671 Q-8.7188 7.0281 -8.7188 6.9812 L-8.7188 2.6375 Q-8.7188 2.6062 -8.6719 2.575 Q-8.625 2.5437 -8.5781 2.5437 L-8.5469 2.5437 Q-7.6719 2.9656 -6.6875 2.9656 Q-5.7188 2.9656 -4.8281 2.5437 L-4.7813 2.5437 Q-4.75 2.5437 -4.711 2.575 Q-4.6719 2.6062 -4.6719 2.6375 L-4.6719 2.7625 Q-4.6719 2.825 -4.6875 2.825 Q-5.1406 3.4187 -5.8125 3.7468 Q-6.4844 4.075 -7.1875 4.075 Q-7.7188 4.075 -8.2656 3.9343 L-8.2656 6.3875 Q-7.8281 6.0437 -7.4922 5.8953 Q-7.1563 5.7468 -6.625 5.7468 Q-5.9063 5.7468 -5.336 6.1531 Q-4.7656 6.5593 -4.461 7.2234 Q-4.1563 7.8875 -4.1563 8.5906 Q-4.1563 9.3718 -4.5391 10.0359 Q-4.9219 10.7 -5.586 11.0906 Q-6.25 11.4812 -7.0156 11.4812 Q-7.6563 11.4812 -8.1953 11.1531 Q-8.7344 10.825 -9.0469 10.2703 Q-9.3594 9.7156 -9.3594 9.075 Q-9.3594 8.7937 -9.1641 8.6062 Q-8.9688 8.4187 -8.6875 8.4187 Q-8.4063 8.4187 -8.211 8.6062 Q-8.0156 8.7937 -8.0156 9.075 Q-8.0156 9.3562 -8.211 9.5515 Q-8.4063 9.7468 -8.6875 9.7468 Q-8.7344 9.7468 -8.7891 9.739 Q-8.8438 9.7312 -8.875 9.7156 Z"
         id="path39" />
      <path
         style="stroke:none;"
         d="M-0.0833 11.4812 Q-1.6771 11.4812 -2.2474 10.1687 Q-2.8177 8.8562 -2.8177 7.0593 Q-2.8177 5.9187 -2.6146 4.9265 Q-2.4115 3.9343 -1.8021 3.239 Q-1.1927 2.5437 -0.0833 2.5437 Q0.776 2.5437 1.3229 2.9578 Q1.8698 3.3718 2.151 4.0359 Q2.4323 4.7 2.5417 5.4578 Q2.651 6.2156 2.651 7.0593 Q2.651 8.1687 2.4401 9.1453 Q2.2292 10.1218 1.6276 10.8015 Q1.026 11.4812 -0.0833 11.4812 ZM-0.0833 11.1531 Q0.6354 11.1531 0.9948 10.4109 Q1.3542 9.6687 1.4323 8.7625 Q1.5104 7.8562 1.5104 6.8406 Q1.5104 5.8718 1.4323 5.0437 Q1.3542 4.2156 1.0026 3.5437 Q0.651 2.8718 -0.0833 2.8718 Q-0.8177 2.8718 -1.1771 3.5515 Q-1.5365 4.2312 -1.6146 5.0515 Q-1.6927 5.8718 -1.6927 6.8406 Q-1.6927 7.575 -1.6615 8.2156 Q-1.6302 8.8562 -1.474 9.5359 Q-1.3177 10.2156 -0.9818 10.6843 Q-0.6458 11.1531 -0.0833 11.1531 Z"
         id="path41" />
      <path
         style="stroke:none;"
         d="M6.5834 11.4812 Q4.9896 11.4812 4.4193 10.1687 Q3.849 8.8562 3.849 7.0593 Q3.849 5.9187 4.0521 4.9265 Q4.2552 3.9343 4.8646 3.239 Q5.474 2.5437 6.5834 2.5437 Q7.4427 2.5437 7.9896 2.9578 Q8.5365 3.3718 8.8177 4.0359 Q9.099 4.7 9.2084 5.4578 Q9.3177 6.2156 9.3177 7.0593 Q9.3177 8.1687 9.1068 9.1453 Q8.8959 10.1218 8.2943 10.8015 Q7.6927 11.4812 6.5834 11.4812 ZM6.5834 11.1531 Q7.3021 11.1531 7.6615 10.4109 Q8.0209 9.6687 8.099 8.7625 Q8.1771 7.8562 8.1771 6.8406 Q8.1771 5.8718 8.099 5.0437 Q8.0209 4.2156 7.6693 3.5437 Q7.3177 2.8718 6.5834 2.8718 Q5.849 2.8718 5.4896 3.5515 Q5.1302 4.2312 5.0521 5.0515 Q4.974 5.8718 4.974 6.8406 Q4.974 7.575 5.0052 8.2156 Q5.0365 8.8562 5.1927 9.5359 Q5.349 10.2156 5.6849 10.6843 Q6.0209 11.1531 6.5834 11.1531 Z"
         id="path43" />
    </g>
    <g
       transform="translate(213,147.3333)"
       style="font-size:13.3333px; fill:rgb(38,38,38); text-rendering:geometricPrecision; image-rendering:optimizeQuality; color-rendering:optimizeQuality; font-family:'mwa_cmr10'; stroke:rgb(38,38,38); color-interpolation:linearRGB;"
       id="g55">
      <path
         style="stroke:none;"
         d="M-12.1302 11.2 L-12.1302 10.7468 Q-10.5052 10.7468 -10.5052 10.325 L-10.5052 3.5125 Q-11.1771 3.825 -12.2084 3.825 L-12.2084 3.3718 Q-10.6146 3.3718 -9.8021 2.5437 L-9.6146 2.5437 Q-9.5677 2.5437 -9.5287 2.575 Q-9.4896 2.6062 -9.4896 2.6531 L-9.4896 10.325 Q-9.4896 10.7468 -7.8646 10.7468 L-7.8646 11.2 L-12.1302 11.2 Z"
         id="path47" />
      <path
         style="stroke:none;"
         d="M-3.4167 11.4812 Q-5.0104 11.4812 -5.5807 10.1687 Q-6.1511 8.8562 -6.1511 7.0593 Q-6.1511 5.9187 -5.9479 4.9265 Q-5.7448 3.9343 -5.1354 3.239 Q-4.5261 2.5437 -3.4167 2.5437 Q-2.5573 2.5437 -2.0104 2.9578 Q-1.4636 3.3718 -1.1823 4.0359 Q-0.9011 4.7 -0.7917 5.4578 Q-0.6823 6.2156 -0.6823 7.0593 Q-0.6823 8.1687 -0.8932 9.1453 Q-1.1042 10.1218 -1.7057 10.8015 Q-2.3073 11.4812 -3.4167 11.4812 ZM-3.4167 11.1531 Q-2.6979 11.1531 -2.3386 10.4109 Q-1.9792 9.6687 -1.9011 8.7625 Q-1.8229 7.8562 -1.8229 6.8406 Q-1.8229 5.8718 -1.9011 5.0437 Q-1.9792 4.2156 -2.3307 3.5437 Q-2.6823 2.8718 -3.4167 2.8718 Q-4.1511 2.8718 -4.5104 3.5515 Q-4.8698 4.2312 -4.9479 5.0515 Q-5.0261 5.8718 -5.0261 6.8406 Q-5.0261 7.575 -4.9948 8.2156 Q-4.9636 8.8562 -4.8073 9.5359 Q-4.6511 10.2156 -4.3151 10.6843 Q-3.9792 11.1531 -3.4167 11.1531 Z"
         id="path49" />
      <path
         style="stroke:none;"
         d="M3.25 11.4812 Q1.6562 11.4812 1.0859 10.1687 Q0.5156 8.8562 0.5156 7.0593 Q0.5156 5.9187 0.7188 4.9265 Q0.9219 3.9343 1.5312 3.239 Q2.1406 2.5437 3.25 2.5437 Q4.1094 2.5437 4.6562 2.9578 Q5.2031 3.3718 5.4844 4.0359 Q5.7656 4.7 5.875 5.4578 Q5.9844 6.2156 5.9844 7.0593 Q5.9844 8.1687 5.7734 9.1453 Q5.5625 10.1218 4.9609 10.8015 Q4.3594 11.4812 3.25 11.4812 ZM3.25 11.1531 Q3.9688 11.1531 4.3281 10.4109 Q4.6875 9.6687 4.7656 8.7625 Q4.8438 7.8562 4.8438 6.8406 Q4.8438 5.8718 4.7656 5.0437 Q4.6875 4.2156 4.3359 3.5437 Q3.9844 2.8718 3.25 2.8718 Q2.5156 2.8718 2.1562 3.5515 Q1.7969 4.2312 1.7188 5.0515 Q1.6406 5.8718 1.6406 6.8406 Q1.6406 7.575 1.6719 8.2156 Q1.7031 8.8562 1.8594 9.5359 Q2.0156 10.2156 2.3516 10.6843 Q2.6875 11.1531 3.25 11.1531 Z"
         id="path51" />
      <path
         style="stroke:none;"
         d="M9.9167 11.4812 Q8.3229 11.4812 7.7526 10.1687 Q7.1823 8.8562 7.1823 7.0593 Q7.1823 5.9187 7.3854 4.9265 Q7.5886 3.9343 8.1979 3.239 Q8.8073 2.5437 9.9167 2.5437 Q10.7761 2.5437 11.3229 2.9578 Q11.8698 3.3718 12.1511 4.0359 Q12.4323 4.7 12.5417 5.4578 Q12.6511 6.2156 12.6511 7.0593 Q12.6511 8.1687 12.4401 9.1453 Q12.2292 10.1218 11.6276 10.8015 Q11.0261 11.4812 9.9167 11.4812 ZM9.9167 11.1531 Q10.6354 11.1531 10.9948 10.4109 Q11.3542 9.6687 11.4323 8.7625 Q11.5104 7.8562 11.5104 6.8406 Q11.5104 5.8718 11.4323 5.0437 Q11.3542 4.2156 11.0026 3.5437 Q10.6511 2.8718 9.9167 2.8718 Q9.1823 2.8718 8.8229 3.5515 Q8.4636 4.2312 8.3854 5.0515 Q8.3073 5.8718 8.3073 6.8406 Q8.3073 7.575 8.3386 8.2156 Q8.3698 8.8562 8.5261 9.5359 Q8.6823 10.2156 9.0182 10.6843 Q9.3542 11.1531 9.9167 11.1531 Z"
         id="path53" />
    </g>
    <g
       transform="translate(128.5001,164.6667)"
       style="font-size:14.6667px; fill:rgb(38,38,38); text-rendering:geometricPrecision; image-rendering:optimizeQuality; color-rendering:optimizeQuality; font-family:'mwa_cmr10'; stroke:rgb(38,38,38); color-interpolation:linearRGB;"
       id="g67">
      <path
         style="stroke:none;"
         d="M-15.4704 12.3668 L-15.4704 9.9137 Q-15.4704 9.8043 -15.3454 9.8043 L-15.1579 9.8043 Q-15.0641 9.8043 -15.0329 9.9137 Q-14.6266 12.0856 -13.0173 12.0856 Q-12.3141 12.0856 -11.8298 11.7653 Q-11.3454 11.4449 -11.3454 10.7731 Q-11.3454 10.2887 -11.7204 9.9528 Q-12.0954 9.6168 -12.611 9.4918 L-13.611 9.2887 Q-14.111 9.1793 -14.5251 8.9528 Q-14.9391 8.7262 -15.2048 8.3512 Q-15.4704 7.9762 -15.4704 7.4762 Q-15.4704 6.8043 -15.1266 6.3903 Q-14.7829 5.9762 -14.2204 5.7887 Q-13.6579 5.6012 -13.0173 5.6012 Q-12.2516 5.6012 -11.6735 6.0074 L-11.2516 5.6324 Q-11.2516 5.6012 -11.1735 5.6012 L-11.0641 5.6012 Q-11.0173 5.6012 -10.9782 5.6403 Q-10.9391 5.6793 -10.9391 5.7262 L-10.9391 7.6793 Q-10.9391 7.8199 -11.0641 7.8199 L-11.2516 7.8199 Q-11.3766 7.8199 -11.3766 7.6793 Q-11.3766 6.8981 -11.8141 6.4215 Q-12.2516 5.9449 -13.0329 5.9449 Q-13.7048 5.9449 -14.197 6.1949 Q-14.6891 6.4449 -14.6891 7.0543 Q-14.6891 7.4762 -14.3376 7.7418 Q-13.986 8.0074 -13.5016 8.1168 L-12.486 8.3199 Q-11.986 8.4293 -11.5407 8.7106 Q-11.0954 8.9918 -10.8376 9.4137 Q-10.5798 9.8356 -10.5798 10.3668 Q-10.5798 10.9137 -10.7595 11.3121 Q-10.9391 11.7106 -11.2751 11.9762 Q-11.611 12.2418 -12.0641 12.3668 Q-12.5173 12.4918 -13.0173 12.4918 Q-13.9548 12.4918 -14.6266 11.8512 L-15.1735 12.4449 Q-15.1735 12.4918 -15.2516 12.4918 L-15.3454 12.4918 Q-15.4704 12.4918 -15.4704 12.3668 Z"
         id="path57" />
      <path
         style="stroke:none;"
         d="M-8.654 10.5231 L-8.654 6.3824 L-9.904 6.3824 L-9.904 5.9918 Q-8.9196 5.9918 -8.4586 5.0778 Q-7.9977 4.1637 -7.9977 3.0856 L-7.5602 3.0856 L-7.5602 5.8512 L-5.4508 5.8512 L-5.4508 6.3824 L-7.5602 6.3824 L-7.5602 10.4918 Q-7.5602 11.1168 -7.3493 11.5856 Q-7.1383 12.0543 -6.6071 12.0543 Q-6.0915 12.0543 -5.8649 11.5543 Q-5.6383 11.0543 -5.6383 10.4918 L-5.6383 9.6012 L-5.2008 9.6012 L-5.2008 10.5231 Q-5.2008 10.9918 -5.3727 11.4449 Q-5.5446 11.8981 -5.8805 12.1949 Q-6.2165 12.4918 -6.7008 12.4918 Q-7.6071 12.4918 -8.1305 11.9528 Q-8.654 11.4137 -8.654 10.5231 Z"
         id="path59" />
      <path
         style="stroke:none;"
         d="M-0.7471 12.4918 Q-1.669 12.4918 -2.4268 12.0074 Q-3.1846 11.5231 -3.6221 10.7262 Q-4.0596 9.9293 -4.0596 9.0387 Q-4.0596 8.1481 -3.6612 7.359 Q-3.2627 6.5699 -2.5518 6.0856 Q-1.8409 5.6012 -0.9659 5.6012 Q-0.2627 5.6012 0.2451 5.8278 Q0.7529 6.0543 1.081 6.4684 Q1.4091 6.8824 1.5732 7.4371 Q1.7373 7.9918 1.7373 8.6637 Q1.7373 8.8512 1.5966 8.8512 L-2.7471 8.8512 L-2.7471 9.0231 Q-2.7471 10.2574 -2.2471 11.1559 Q-1.7471 12.0543 -0.6065 12.0543 Q-0.1534 12.0543 0.2373 11.8434 Q0.6279 11.6324 0.917 11.2731 Q1.206 10.9137 1.3154 10.4918 Q1.331 10.4449 1.3701 10.3981 Q1.4091 10.3512 1.456 10.3512 L1.5966 10.3512 Q1.7373 10.3512 1.7373 10.5543 Q1.5341 11.3981 0.831 11.9449 Q0.1279 12.4918 -0.7471 12.4918 ZM-2.7315 8.4762 L0.6748 8.4762 Q0.6748 7.9137 0.5185 7.3356 Q0.3623 6.7574 -0.0049 6.3746 Q-0.3721 5.9918 -0.9659 5.9918 Q-1.8096 5.9918 -2.2705 6.7887 Q-2.7315 7.5856 -2.7315 8.4762 Z"
         id="path61" />
      <path
         style="stroke:none;"
         d="M2.4277 15.2262 L2.4277 14.7106 Q2.9433 14.7106 3.2714 14.6246 Q3.5995 14.5387 3.5995 14.2262 L3.5995 6.9918 Q3.5995 6.5856 3.3027 6.484 Q3.0058 6.3824 2.4277 6.3824 L2.4277 5.8512 L4.6464 5.6949 L4.6464 6.6168 Q5.0527 6.1637 5.5995 5.9293 Q6.1464 5.6949 6.7558 5.6949 Q7.6464 5.6949 8.3573 6.1715 Q9.0683 6.6481 9.4667 7.4293 Q9.8652 8.2106 9.8652 9.0856 Q9.8652 9.9918 9.4198 10.7731 Q8.9745 11.5543 8.2089 12.0231 Q7.4433 12.4918 6.537 12.4918 Q5.4433 12.4918 4.6933 11.6012 L4.6933 14.2262 Q4.6933 14.5387 5.0214 14.6246 Q5.3495 14.7106 5.8652 14.7106 L5.8652 15.2262 L2.4277 15.2262 ZM4.6933 10.8668 Q4.9589 11.3981 5.4277 11.7418 Q5.8964 12.0856 6.4433 12.0856 Q6.9589 12.0856 7.3652 11.8121 Q7.7714 11.5387 8.037 11.0699 Q8.3027 10.6012 8.4355 10.0856 Q8.5683 9.5699 8.5683 9.0856 Q8.5683 8.4762 8.3495 7.7809 Q8.1308 7.0856 7.6855 6.6012 Q7.2402 6.1168 6.6152 6.1168 Q6.0058 6.1168 5.498 6.4293 Q4.9902 6.7418 4.6933 7.2731 L4.6933 10.8668 Z"
         id="path63" />
      <path
         style="stroke:none;"
         d="M10.6852 12.3668 L10.6852 9.9137 Q10.6852 9.8043 10.8102 9.8043 L10.9977 9.8043 Q11.0915 9.8043 11.1227 9.9137 Q11.529 12.0856 13.1383 12.0856 Q13.8415 12.0856 14.3258 11.7653 Q14.8102 11.4449 14.8102 10.7731 Q14.8102 10.2887 14.4352 9.9528 Q14.0602 9.6168 13.5446 9.4918 L12.5446 9.2887 Q12.0446 9.1793 11.6305 8.9528 Q11.2165 8.7262 10.9508 8.3512 Q10.6852 7.9762 10.6852 7.4762 Q10.6852 6.8043 11.029 6.3903 Q11.3727 5.9762 11.9352 5.7887 Q12.4977 5.6012 13.1383 5.6012 Q13.904 5.6012 14.4821 6.0074 L14.904 5.6324 Q14.904 5.6012 14.9821 5.6012 L15.0915 5.6012 Q15.1383 5.6012 15.1774 5.6403 Q15.2165 5.6793 15.2165 5.7262 L15.2165 7.6793 Q15.2165 7.8199 15.0915 7.8199 L14.904 7.8199 Q14.779 7.8199 14.779 7.6793 Q14.779 6.8981 14.3415 6.4215 Q13.904 5.9449 13.1227 5.9449 Q12.4508 5.9449 11.9586 6.1949 Q11.4665 6.4449 11.4665 7.0543 Q11.4665 7.4762 11.818 7.7418 Q12.1696 8.0074 12.654 8.1168 L13.6696 8.3199 Q14.1696 8.4293 14.6149 8.7106 Q15.0602 8.9918 15.318 9.4137 Q15.5758 9.8356 15.5758 10.3668 Q15.5758 10.9137 15.3961 11.3121 Q15.2165 11.7106 14.8805 11.9762 Q14.5446 12.2418 14.0915 12.3668 Q13.6383 12.4918 13.1383 12.4918 Q12.2008 12.4918 11.529 11.8512 L10.9821 12.4449 Q10.9821 12.4918 10.904 12.4918 L10.8102 12.4918 Q10.6852 12.4918 10.6852 12.3668 Z"
         id="path65" />
    </g>
    <g
       style="fill:rgb(38,38,38); text-rendering:geometricPrecision; image-rendering:optimizeQuality; color-rendering:optimizeQuality; stroke-linejoin:round; stroke:rgb(38,38,38); color-interpolation:linearRGB; stroke-width:0.6667;"
       id="g89">
      <line
         y2="23"
         style="fill:none;"
         x1="44"
         x2="44"
         y1="142"
         id="line69" />
      <line
         y2="23"
         style="fill:none;"
         x1="213"
         x2="213"
         y1="142"
         id="line71" />
      <line
         y2="142"
         style="fill:none;"
         x1="44"
         x2="45.69"
         y1="142"
         id="line73" />
      <line
         y2="104.3316"
         style="fill:none;"
         x1="44"
         x2="45.69"
         y1="104.3316"
         id="line75" />
      <line
         y2="66.6632"
         style="fill:none;"
         x1="44"
         x2="45.69"
         y1="66.6632"
         id="line77" />
      <line
         y2="28.9947"
         style="fill:none;"
         x1="44"
         x2="45.69"
         y1="28.9947"
         id="line79" />
      <line
         y2="142"
         style="fill:none;"
         x1="213"
         x2="211.31"
         y1="142"
         id="line81" />
      <line
         y2="104.3316"
         style="fill:none;"
         x1="213"
         x2="211.31"
         y1="104.3316"
         id="line83" />
      <line
         y2="66.6632"
         style="fill:none;"
         x1="213"
         x2="211.31"
         y1="66.6632"
         id="line85" />
      <line
         y2="28.9947"
         style="fill:none;"
         x1="213"
         x2="211.31"
         y1="28.9947"
         id="line87" />
    </g>
    <g
       transform="translate(38.6667,142)"
       style="font-size:13.3333px; fill:rgb(38,38,38); text-rendering:geometricPrecision; image-rendering:optimizeQuality; color-rendering:optimizeQuality; font-family:'mwa_cmr10'; stroke:rgb(38,38,38); color-interpolation:linearRGB;"
       id="g93">
      <path
         style="stroke:none;"
         d="M-3.4167 3.4812 Q-5.0104 3.4812 -5.5807 2.1687 Q-6.1511 0.8562 -6.1511 -0.9407 Q-6.1511 -2.0813 -5.9479 -3.0735 Q-5.7448 -4.0657 -5.1354 -4.761 Q-4.5261 -5.4563 -3.4167 -5.4563 Q-2.5573 -5.4563 -2.0104 -5.0422 Q-1.4636 -4.6282 -1.1823 -3.9641 Q-0.9011 -3.3 -0.7917 -2.5422 Q-0.6823 -1.7844 -0.6823 -0.9407 Q-0.6823 0.1687 -0.8932 1.1453 Q-1.1042 2.1218 -1.7057 2.8015 Q-2.3073 3.4812 -3.4167 3.4812 ZM-3.4167 3.1531 Q-2.6979 3.1531 -2.3386 2.4109 Q-1.9792 1.6687 -1.9011 0.7625 Q-1.8229 -0.1438 -1.8229 -1.1594 Q-1.8229 -2.1282 -1.9011 -2.9563 Q-1.9792 -3.7844 -2.3307 -4.4563 Q-2.6823 -5.1282 -3.4167 -5.1282 Q-4.1511 -5.1282 -4.5104 -4.4485 Q-4.8698 -3.7688 -4.9479 -2.9485 Q-5.0261 -2.1282 -5.0261 -1.1594 Q-5.0261 -0.425 -4.9948 0.2156 Q-4.9636 0.8562 -4.8073 1.5359 Q-4.6511 2.2156 -4.3151 2.6843 Q-3.9792 3.1531 -3.4167 3.1531 Z"
         id="path91" />
    </g>
    <g
       transform="translate(38.6667,104.3316)"
       style="font-size:13.3333px; fill:rgb(38,38,38); text-rendering:geometricPrecision; image-rendering:optimizeQuality; color-rendering:optimizeQuality; font-family:'mwa_cmr10'; stroke:rgb(38,38,38); color-interpolation:linearRGB;"
       id="g101">
      <path
         style="stroke:none;"
         d="M-13.7871 3.4812 Q-15.3808 3.4812 -15.9512 2.1687 Q-16.5215 0.8562 -16.5215 -0.9407 Q-16.5215 -2.0813 -16.3183 -3.0735 Q-16.1152 -4.0657 -15.5058 -4.761 Q-14.8965 -5.4563 -13.7871 -5.4563 Q-12.9277 -5.4563 -12.3808 -5.0422 Q-11.834 -4.6282 -11.5527 -3.9641 Q-11.2715 -3.3 -11.1621 -2.5422 Q-11.0527 -1.7844 -11.0527 -0.9407 Q-11.0527 0.1687 -11.2637 1.1453 Q-11.4746 2.1218 -12.0762 2.8015 Q-12.6777 3.4812 -13.7871 3.4812 ZM-13.7871 3.1531 Q-13.0683 3.1531 -12.709 2.4109 Q-12.3496 1.6687 -12.2715 0.7625 Q-12.1933 -0.1438 -12.1933 -1.1594 Q-12.1933 -2.1282 -12.2715 -2.9563 Q-12.3496 -3.7844 -12.7012 -4.4563 Q-13.0527 -5.1282 -13.7871 -5.1282 Q-14.5215 -5.1282 -14.8808 -4.4485 Q-15.2402 -3.7688 -15.3183 -2.9485 Q-15.3965 -2.1282 -15.3965 -1.1594 Q-15.3965 -0.425 -15.3652 0.2156 Q-15.334 0.8562 -15.1777 1.5359 Q-15.0215 2.2156 -14.6855 2.6843 Q-14.3496 3.1531 -13.7871 3.1531 Z"
         id="path95" />
      <path
         style="stroke:none;"
         d="M-9.2767 2.4812 Q-9.2767 2.1843 -9.0579 1.9812 Q-8.8392 1.7781 -8.5579 1.7781 Q-8.386 1.7781 -8.2142 1.8718 Q-8.0423 1.9656 -7.9485 2.1375 Q-7.8548 2.3093 -7.8548 2.4812 Q-7.8548 2.7625 -8.0657 2.9812 Q-8.2767 3.2 -8.5579 3.2 Q-8.8392 3.2 -9.0579 2.9812 Q-9.2767 2.7625 -9.2767 2.4812 Z"
         id="path97" />
      <path
         style="stroke:none;"
         d="M-6.0261 3.2 L-6.0261 2.8562 Q-6.0261 2.825 -5.9948 2.7781 L-3.9792 0.5437 Q-3.5104 0.0437 -3.2292 -0.2922 Q-2.9479 -0.6282 -2.6667 -1.0657 Q-2.3854 -1.5032 -2.2214 -1.9563 Q-2.0573 -2.4094 -2.0573 -2.9094 Q-2.0573 -3.4407 -2.2604 -3.9329 Q-2.4636 -4.425 -2.8542 -4.7141 Q-3.2448 -5.0032 -3.7917 -5.0032 Q-4.3542 -5.0032 -4.8073 -4.6594 Q-5.2604 -4.3157 -5.4479 -3.7844 Q-5.3854 -3.8 -5.3073 -3.8 Q-5.0104 -3.8 -4.8073 -3.6047 Q-4.6042 -3.4094 -4.6042 -3.0969 Q-4.6042 -2.8 -4.8073 -2.5891 Q-5.0104 -2.3782 -5.3073 -2.3782 Q-5.6042 -2.3782 -5.8151 -2.5891 Q-6.0261 -2.8 -6.0261 -3.0969 Q-6.0261 -3.5813 -5.8386 -4.011 Q-5.6511 -4.4407 -5.3073 -4.7688 Q-4.9636 -5.0969 -4.5261 -5.2766 Q-4.0886 -5.4563 -3.6042 -5.4563 Q-2.8542 -5.4563 -2.2136 -5.1438 Q-1.5729 -4.8313 -1.1979 -4.2532 Q-0.8229 -3.675 -0.8229 -2.9094 Q-0.8229 -2.3469 -1.0729 -1.8391 Q-1.3229 -1.3313 -1.7057 -0.9172 Q-2.0886 -0.5032 -2.6979 0.0281 Q-3.3073 0.5593 -3.4948 0.7312 L-4.9636 2.1531 L-3.7136 2.1531 Q-2.7917 2.1531 -2.1745 2.1375 Q-1.5573 2.1218 -1.5261 2.075 Q-1.3698 1.9187 -1.2136 0.8875 L-0.8229 0.8875 L-1.1979 3.2 L-6.0261 3.2 Z"
         id="path99" />
    </g>
    <g
       transform="translate(38.6667,66.6632)"
       style="font-size:13.3333px; fill:rgb(38,38,38); text-rendering:geometricPrecision; image-rendering:optimizeQuality; color-rendering:optimizeQuality; font-family:'mwa_cmr10'; stroke:rgb(38,38,38); color-interpolation:linearRGB;"
       id="g109">
      <path
         style="stroke:none;"
         d="M-13.7871 3.4812 Q-15.3808 3.4812 -15.9512 2.1687 Q-16.5215 0.8562 -16.5215 -0.9407 Q-16.5215 -2.0813 -16.3183 -3.0735 Q-16.1152 -4.0657 -15.5058 -4.761 Q-14.8965 -5.4563 -13.7871 -5.4563 Q-12.9277 -5.4563 -12.3808 -5.0422 Q-11.834 -4.6282 -11.5527 -3.9641 Q-11.2715 -3.3 -11.1621 -2.5422 Q-11.0527 -1.7844 -11.0527 -0.9407 Q-11.0527 0.1687 -11.2637 1.1453 Q-11.4746 2.1218 -12.0762 2.8015 Q-12.6777 3.4812 -13.7871 3.4812 ZM-13.7871 3.1531 Q-13.0683 3.1531 -12.709 2.4109 Q-12.3496 1.6687 -12.2715 0.7625 Q-12.1933 -0.1438 -12.1933 -1.1594 Q-12.1933 -2.1282 -12.2715 -2.9563 Q-12.3496 -3.7844 -12.7012 -4.4563 Q-13.0527 -5.1282 -13.7871 -5.1282 Q-14.5215 -5.1282 -14.8808 -4.4485 Q-15.2402 -3.7688 -15.3183 -2.9485 Q-15.3965 -2.1282 -15.3965 -1.1594 Q-15.3965 -0.425 -15.3652 0.2156 Q-15.334 0.8562 -15.1777 1.5359 Q-15.0215 2.2156 -14.6855 2.6843 Q-14.3496 3.1531 -13.7871 3.1531 Z"
         id="path103" />
      <path
         style="stroke:none;"
         d="M-9.2767 2.4812 Q-9.2767 2.1843 -9.0579 1.9812 Q-8.8392 1.7781 -8.5579 1.7781 Q-8.386 1.7781 -8.2142 1.8718 Q-8.0423 1.9656 -7.9485 2.1375 Q-7.8548 2.3093 -7.8548 2.4812 Q-7.8548 2.7625 -8.0657 2.9812 Q-8.2767 3.2 -8.5579 3.2 Q-8.8392 3.2 -9.0579 2.9812 Q-9.2767 2.7625 -9.2767 2.4812 Z"
         id="path105" />
      <path
         style="stroke:none;"
         d="M-6.3073 1.0593 L-6.3073 0.5906 L-2.2917 -5.3938 Q-2.2448 -5.4563 -2.1511 -5.4563 L-1.9636 -5.4563 Q-1.8229 -5.4563 -1.8229 -5.3157 L-1.8229 0.5906 L-0.5417 0.5906 L-0.5417 1.0593 L-1.8229 1.0593 L-1.8229 2.325 Q-1.8229 2.5906 -1.4401 2.6687 Q-1.0573 2.7468 -0.5573 2.7468 L-0.5573 3.2 L-4.1354 3.2 L-4.1354 2.7468 Q-3.6354 2.7468 -3.2526 2.6687 Q-2.8698 2.5906 -2.8698 2.325 L-2.8698 1.0593 L-6.3073 1.0593 ZM-5.8698 0.5906 L-2.7917 0.5906 L-2.7917 -4.0032 L-5.8698 0.5906 Z"
         id="path107" />
    </g>
    <g
       transform="translate(38.6667,28.9947)"
       style="font-size:13.3333px; fill:rgb(38,38,38); text-rendering:geometricPrecision; image-rendering:optimizeQuality; color-rendering:optimizeQuality; font-family:'mwa_cmr10'; stroke:rgb(38,38,38); color-interpolation:linearRGB;"
       id="g117">
      <path
         style="stroke:none;"
         d="M-13.7871 3.4812 Q-15.3808 3.4812 -15.9512 2.1687 Q-16.5215 0.8562 -16.5215 -0.9407 Q-16.5215 -2.0813 -16.3183 -3.0735 Q-16.1152 -4.0657 -15.5058 -4.761 Q-14.8965 -5.4563 -13.7871 -5.4563 Q-12.9277 -5.4563 -12.3808 -5.0422 Q-11.834 -4.6282 -11.5527 -3.9641 Q-11.2715 -3.3 -11.1621 -2.5422 Q-11.0527 -1.7844 -11.0527 -0.9407 Q-11.0527 0.1687 -11.2637 1.1453 Q-11.4746 2.1218 -12.0762 2.8015 Q-12.6777 3.4812 -13.7871 3.4812 ZM-13.7871 3.1531 Q-13.0683 3.1531 -12.709 2.4109 Q-12.3496 1.6687 -12.2715 0.7625 Q-12.1933 -0.1438 -12.1933 -1.1594 Q-12.1933 -2.1282 -12.2715 -2.9563 Q-12.3496 -3.7844 -12.7012 -4.4563 Q-13.0527 -5.1282 -13.7871 -5.1282 Q-14.5215 -5.1282 -14.8808 -4.4485 Q-15.2402 -3.7688 -15.3183 -2.9485 Q-15.3965 -2.1282 -15.3965 -1.1594 Q-15.3965 -0.425 -15.3652 0.2156 Q-15.334 0.8562 -15.1777 1.5359 Q-15.0215 2.2156 -14.6855 2.6843 Q-14.3496 3.1531 -13.7871 3.1531 Z"
         id="path111" />
      <path
         style="stroke:none;"
         d="M-9.2767 2.4812 Q-9.2767 2.1843 -9.0579 1.9812 Q-8.8392 1.7781 -8.5579 1.7781 Q-8.386 1.7781 -8.2142 1.8718 Q-8.0423 1.9656 -7.9485 2.1375 Q-7.8548 2.3093 -7.8548 2.4812 Q-7.8548 2.7625 -8.0657 2.9812 Q-8.2767 3.2 -8.5579 3.2 Q-8.8392 3.2 -9.0579 2.9812 Q-9.2767 2.7625 -9.2767 2.4812 Z"
         id="path113" />
      <path
         style="stroke:none;"
         d="M-3.4167 3.4812 Q-4.2292 3.4812 -4.7682 3.0515 Q-5.3073 2.6218 -5.5964 1.9421 Q-5.8854 1.2625 -6.0026 0.5125 Q-6.1198 -0.2375 -6.1198 -1.0032 Q-6.1198 -2.0344 -5.7214 -3.0657 Q-5.3229 -4.0969 -4.5417 -4.7766 Q-3.7604 -5.4563 -2.6979 -5.4563 Q-2.2604 -5.4563 -1.8698 -5.2922 Q-1.4792 -5.1282 -1.2604 -4.8 Q-1.0417 -4.4719 -1.0417 -4.0032 Q-1.0417 -3.7375 -1.2292 -3.5579 Q-1.4167 -3.3782 -1.6823 -3.3782 Q-1.9323 -3.3782 -2.112 -3.5579 Q-2.2917 -3.7375 -2.2917 -4.0032 Q-2.2917 -4.2532 -2.112 -4.4407 Q-1.9323 -4.6282 -1.6823 -4.6282 L-1.6042 -4.6282 Q-1.7761 -4.8625 -2.0729 -4.9719 Q-2.3698 -5.0813 -2.6979 -5.0813 Q-3.0886 -5.0813 -3.4245 -4.9094 Q-3.7604 -4.7375 -4.0261 -4.4485 Q-4.2917 -4.1594 -4.4714 -3.8079 Q-4.6511 -3.4563 -4.7448 -3.0032 Q-4.8386 -2.55 -4.8698 -2.1594 Q-4.9011 -1.7688 -4.9011 -1.175 Q-4.6667 -1.7063 -4.2448 -2.0422 Q-3.8229 -2.3782 -3.3073 -2.3782 Q-2.7292 -2.3782 -2.2526 -2.1438 Q-1.7761 -1.9094 -1.4323 -1.4954 Q-1.0886 -1.0813 -0.9089 -0.55 Q-0.7292 -0.0188 -0.7292 0.5281 Q-0.7292 1.2937 -1.0651 1.9812 Q-1.4011 2.6687 -2.0182 3.075 Q-2.6354 3.4812 -3.4167 3.4812 ZM-3.4167 3.075 Q-2.9167 3.075 -2.612 2.8484 Q-2.3073 2.6218 -2.1667 2.239 Q-2.0261 1.8562 -1.987 1.4734 Q-1.9479 1.0906 -1.9479 0.5281 Q-1.9479 -0.2063 -2.0182 -0.7219 Q-2.0886 -1.2375 -2.4011 -1.636 Q-2.7136 -2.0344 -3.3542 -2.0344 Q-3.8854 -2.0344 -4.2214 -1.6829 Q-4.5573 -1.3313 -4.7136 -0.7844 Q-4.8698 -0.2375 -4.8698 0.2625 Q-4.8698 0.4343 -4.8542 0.5281 Q-4.8542 0.5437 -4.862 0.5515 Q-4.8698 0.5593 -4.8698 0.5906 Q-4.8698 1.1375 -4.7526 1.7078 Q-4.6354 2.2781 -4.3151 2.6765 Q-3.9948 3.075 -3.4167 3.075 Z"
         id="path115" />
    </g>
    <g
       transform="translate(17.6296,82.4999) rotate(-90)"
       style="font-size:14.6667px; fill:rgb(38,38,38); text-rendering:geometricPrecision; image-rendering:optimizeQuality; color-rendering:optimizeQuality; font-family:'mwa_cmsy10'; stroke:rgb(38,38,38); color-interpolation:linearRGB;"
       id="g131">
      <path
         style="stroke:none;"
         d="M-13.6744 -1.7957 L-13.6744 -16.2644 Q-13.6744 -16.3738 -13.5806 -16.4519 Q-13.4869 -16.5301 -13.3619 -16.5301 Q-13.2525 -16.5301 -13.1587 -16.4519 Q-13.065 -16.3738 -13.065 -16.2644 L-13.065 -1.7957 Q-13.065 -1.6863 -13.1587 -1.6082 Q-13.2525 -1.5301 -13.3619 -1.5301 Q-13.4869 -1.5301 -13.5806 -1.6082 Q-13.6744 -1.6863 -13.6744 -1.7957 Z"
         id="path119" />
      <path
         style="stroke:none;"
         d="M-12.0447 -1.7957 L-12.0447 -16.2644 Q-12.0447 -16.3738 -11.9509 -16.4519 Q-11.8572 -16.5301 -11.7322 -16.5301 Q-11.6228 -16.5301 -11.529 -16.4519 Q-11.4353 -16.3738 -11.4353 -16.2644 L-11.4353 -1.7957 Q-11.4353 -1.6863 -11.529 -1.6082 Q-11.6228 -1.5301 -11.7322 -1.5301 Q-11.8572 -1.5301 -11.9509 -1.6082 Q-12.0447 -1.6863 -12.0447 -1.7957 Z"
         id="path121" />
      <path
         style="stroke:none;"
         d="M-6.7518 -5.0457 Q-7.2675 -5.0457 -7.7128 -5.241 Q-8.1581 -5.4363 -8.494 -5.8035 Q-8.83 -6.1707 -8.994 -6.6238 Q-9.1581 -7.0769 -9.1581 -7.6082 Q-9.1581 -8.5457 -8.7128 -9.4285 Q-8.2675 -10.3113 -7.5018 -10.9519 Q-6.7362 -11.5926 -5.83 -11.8269 Q-6.2675 -12.6394 -6.5018 -13.2254 Q-6.7362 -13.8113 -6.7362 -14.4207 Q-6.7362 -14.8894 -6.5253 -15.2332 Q-6.3143 -15.5769 -5.9393 -15.7722 Q-5.5643 -15.9676 -5.0956 -15.9676 Q-4.6581 -15.9676 -3.33 -15.6707 Q-2.9862 -15.5926 -2.9862 -15.2644 Q-2.9862 -15.0144 -3.1659 -14.8113 Q-3.3456 -14.6082 -3.5956 -14.6082 Q-3.7831 -14.6082 -3.9315 -14.6941 Q-4.08 -14.7801 -4.3925 -14.991 Q-4.705 -15.2019 -4.955 -15.3191 Q-5.205 -15.4363 -5.4706 -15.4363 Q-5.7831 -15.4363 -6.0253 -15.2488 Q-6.2675 -15.0613 -6.2675 -14.7644 Q-6.2675 -14.2801 -5.8456 -13.6629 Q-5.4237 -13.0457 -4.6581 -12.0769 Q-3.7675 -10.9519 -3.7675 -9.5926 Q-3.7675 -8.9207 -3.9628 -8.1316 Q-4.1581 -7.3426 -4.5253 -6.6472 Q-4.8925 -5.9519 -5.4706 -5.4988 Q-6.0487 -5.0457 -6.7518 -5.0457 ZM-6.7206 -5.4676 Q-6.1268 -5.4676 -5.7128 -6.0769 Q-5.2987 -6.6863 -5.08 -7.5222 Q-4.8612 -8.3582 -4.8612 -8.9207 Q-4.8612 -10.0457 -5.6425 -11.4519 Q-6.4393 -11.2332 -7.0096 -10.5301 Q-7.58 -9.8269 -7.869 -8.9051 Q-8.1581 -7.9832 -8.1581 -7.1707 Q-8.1581 -6.4519 -7.7831 -5.9597 Q-7.4081 -5.4676 -6.7206 -5.4676 Z"
         id="path123" />
      <path
         style="stroke:none;"
         d="M-0.9439 -5.0613 Q-0.9439 -5.0926 -0.9282 -5.1551 Q-0.4126 -6.3894 -0.0298 -7.5301 Q0.353 -8.6707 0.6655 -9.9519 Q1.2593 -12.2176 1.4624 -14.6394 Q0.6655 -14.6394 -0.1157 -14.3582 Q-0.522 -14.1863 -0.7251 -13.9363 Q-0.9282 -13.6863 -1.0689 -13.2488 Q-1.2251 -12.9988 -1.5767 -12.7722 Q-1.9282 -12.5457 -2.1939 -12.5457 L-2.2876 -12.5457 Q-2.397 -12.6238 -2.397 -12.7019 Q-2.1314 -13.6082 -1.3189 -14.2488 Q-0.5064 -14.8894 0.5718 -15.2097 Q1.6499 -15.5301 2.6186 -15.5301 L4.1968 -15.5301 Q5.2436 -15.5301 6.0874 -15.4363 Q6.9311 -15.3426 7.6186 -14.9207 Q8.3061 -14.4988 8.3061 -13.6551 Q8.3061 -12.9676 7.9858 -12.3426 Q7.6655 -11.7176 7.1421 -11.2176 Q6.6186 -10.7176 5.9858 -10.3426 Q5.353 -9.9676 4.7124 -9.7332 Q4.9468 -9.4676 5.2515 -8.8035 Q5.5561 -8.1394 5.8999 -7.4129 Q6.2436 -6.6863 6.5874 -6.2644 Q6.9311 -5.8426 7.2905 -5.8426 Q7.7436 -5.8426 7.9936 -6.0066 Q8.2436 -6.1707 8.5171 -6.4988 Q8.7905 -6.8269 9.0327 -7.0222 Q9.2749 -7.2176 9.6968 -7.2644 L9.7905 -7.2644 Q9.8843 -7.2019 9.8843 -7.1394 Q9.8843 -7.1238 9.8765 -7.0847 Q9.8686 -7.0457 9.853 -7.0144 Q9.478 -6.4519 8.8921 -5.9754 Q8.3061 -5.4988 7.6186 -5.2254 Q6.9311 -4.9519 6.2905 -4.9519 L6.1968 -4.9519 Q5.6186 -4.9519 5.2202 -5.5144 Q4.8218 -6.0769 4.353 -7.1863 Q3.8843 -8.2957 3.5327 -8.8347 Q3.1811 -9.3738 2.6655 -9.3738 Q2.6343 -9.3894 2.5952 -9.4207 Q2.5561 -9.4519 2.5561 -9.4988 Q2.5561 -9.7332 2.9936 -9.9832 Q3.4311 -10.2332 3.6968 -10.2644 Q4.5249 -10.2644 5.2827 -10.5847 Q6.0405 -10.9051 6.5015 -11.5301 Q6.9624 -12.1551 6.9624 -12.9988 Q6.9624 -13.7488 6.3061 -14.1082 Q5.6499 -14.4676 4.8296 -14.5535 Q4.0093 -14.6394 3.0718 -14.6394 L2.728 -14.6394 Q2.4936 -12.4051 1.8999 -10.1316 Q1.3061 -7.8582 0.3686 -5.6394 Q0.228 -5.3738 -0.1157 -5.1785 Q-0.4595 -4.9832 -0.772 -4.9519 L-0.8501 -4.9519 Q-0.8814 -4.9676 -0.9126 -4.9988 Q-0.9439 -5.0301 -0.9439 -5.0613 Z"
         id="path125" />
      <path
         style="stroke:none;"
         d="M11.5331 -1.7957 L11.5331 -16.2644 Q11.5331 -16.3738 11.6268 -16.4519 Q11.7206 -16.5301 11.8456 -16.5301 Q11.955 -16.5301 12.0487 -16.4519 Q12.1425 -16.3738 12.1425 -16.2644 L12.1425 -1.7957 Q12.1425 -1.6863 12.0487 -1.6082 Q11.955 -1.5301 11.8456 -1.5301 Q11.7206 -1.5301 11.6268 -1.6082 Q11.5331 -1.6863 11.5331 -1.7957 Z"
         id="path127" />
      <path
         style="stroke:none;"
         d="M13.1628 -1.7957 L13.1628 -16.2644 Q13.1628 -16.3738 13.2565 -16.4519 Q13.3503 -16.5301 13.4753 -16.5301 Q13.5847 -16.5301 13.6784 -16.4519 Q13.7722 -16.3738 13.7722 -16.2644 L13.7722 -1.7957 Q13.7722 -1.6863 13.6784 -1.6082 Q13.5847 -1.5301 13.4753 -1.5301 Q13.3503 -1.5301 13.2565 -1.6082 Q13.1628 -1.6863 13.1628 -1.7957 Z"
         id="path129" />
    </g>
    <g
       transform="translate(128.5001,20.2267)"
       style="font-size:14.6667px; text-rendering:geometricPrecision; image-rendering:optimizeQuality; color-rendering:optimizeQuality; font-family:'CMU Sans Serif'; color-interpolation:linearRGB; font-weight:bold;"
       id="g135">
      <path
         style="stroke:none;"
         d="M-3.5469 -6.0625 Q-3.5469 -6.6406 -3.2031 -7.0781 Q-2.8594 -7.5156 -2.375 -7.75 Q-1.8906 -7.9844 -1.2188 -8.1328 Q-0.5469 -8.2812 -0.0625 -8.3203 Q0.4219 -8.3594 0.9219 -8.3594 L0.9219 -8.6875 Q0.9219 -9.3281 0.7109 -9.7031 Q0.5 -10.0781 -0.1406 -10.0781 Q-0.7344 -10.0781 -1.2109 -9.9219 Q-1.6875 -9.7656 -1.9219 -9.5703 Q-2.1562 -9.375 -2.3594 -9.2109 Q-2.5625 -9.0469 -2.6562 -9.0469 L-2.7031 -9.0625 L-2.7656 -9.0938 Q-2.8125 -9.1719 -2.8516 -9.4688 Q-2.8906 -9.7656 -2.9062 -10 L-2.9219 -10.25 Q-2.9219 -10.3281 -2.9141 -10.3672 Q-2.9062 -10.4062 -2.8594 -10.4531 Q-2.8125 -10.5 -2.7891 -10.5156 Q-2.7656 -10.5312 -2.6641 -10.5703 Q-2.5625 -10.6094 -2.5 -10.6406 Q-1.4219 -11.125 -0.1406 -11.125 Q1.5625 -11.125 2.2578 -10.4766 Q2.9531 -9.8281 2.9531 -8.625 L2.9531 -4.6719 Q2.9531 -4 2.2812 -4 L1.5625 -4 Q1.2344 -4 1.0938 -4.1797 Q0.9531 -4.3594 0.9531 -4.5938 Q-0.0469 -3.8281 -1.3594 -3.8281 Q-2.3594 -3.8281 -2.9531 -4.5234 Q-3.5469 -5.2188 -3.5469 -6.0625 ZM-1.5781 -6.0625 Q-1.5781 -5.625 -1.2969 -5.2812 Q-1.0156 -4.9375 -0.5469 -4.9375 Q-0.0469 -4.9375 0.4375 -5.2578 Q0.9219 -5.5781 0.9219 -6.3125 L0.9219 -7.4844 Q0.4531 -7.4375 0.125 -7.3828 Q-0.2031 -7.3281 -0.6562 -7.1875 Q-1.1094 -7.0469 -1.3438 -6.75 Q-1.5781 -6.4531 -1.5781 -6.0625 Z"
         id="path133" />
    </g>
    <g
       style="stroke-linecap:butt; text-rendering:geometricPrecision; color-rendering:optimizeQuality; image-rendering:optimizeQuality; stroke-linejoin:round; color-interpolation:linearRGB; stroke-width:0.6667;"
       id="g139">
      <path
         d="M44.169 44.5313 L44.338 38.744 L44.507 23 L44.676 77.7613 L44.845 78.7394 L45.014 108.251 L45.183 123.5757 L45.352 123.6221 L45.521 134.4096 L45.69 135.9807 L45.859 136.8994 L46.028 140.542 L46.197 140.2546 L46.366 141.7085 L46.535 140.936 L46.704 141.3298 L46.873 140.8107 L47.042 140.8231 L47.211 140.9921 L47.38 141.3309 L47.549 141.2451 L47.718 140.8109 L47.887 140.9258 L48.056 140.2404 L48.225 141.6286 L48.394 140.9424 L48.563 140.6396 L48.732 140.4707 L48.901 140.0544 L49.07 141.0082 L49.239 140.6902 L49.408 141.7836 L49.577 141.7215 L49.746 141.5819 L49.915 141.3745 L50.084 140.5158 L50.253 141.8004 L50.422 141.7051 L50.591 141.5581 L50.76 140.9576 L50.929 141.858 L51.098 141.7893 L51.267 141.6848 L51.436 141.5274 L51.605 140.8697 L51.774 141.7665 L51.943 141.7832 L52.112 141.683 L52.281 141.5271 L52.45 140.5517 L52.619 141.6165 L52.788 141.1766 L52.957 141.6024 L53.126 141.4424 L53.295 140.9477 L53.464 140.7687 L53.633 141.6745 L53.802 140.4863 L53.971 141.7725 L54.14 141.6003 L54.309 141.5364 L54.478 140.5058 L54.647 141.655 L54.816 141.2345 L54.985 141.8069 L55.154 141.5523 L55.323 141.4942 L55.492 140.0341 L55.661 141.7125 L55.83 139.8527 L55.999 141.7402 L56.168 141.2156 L56.337 141.7524 L56.506 141.6427 L56.675 141.4883 L56.844 140.6866 L57.013 141.5555 L57.182 141.2687 L57.351 141.7165 L57.52 141.555 L57.689 139.4409 L57.858 141.7194 L58.027 139.377 L58.196 141.2901 L58.365 140.9633 L58.534 141.721 L58.703 141.6108 L58.872 141.7635 L59.041 141.6597 L59.21 141.5029 L59.379 140.7374 L59.548 141.55 L59.717 141.3674 L59.886 141.7235 L60.055 141.5691 L60.224 139.3461 L60.393 141.6996 L60.562 139.26 L60.731 141.3722 L60.9 141.0016 L61.069 141.7642 L61.238 141.6392 L61.407 141.8128 L61.576 141.725 L61.745 141.5937 L61.914 140.1857 L62.083 141.6423 L62.252 140.8003 L62.421 141.3336 L62.59 141.0585 L62.759 140.9996 L62.928 141.1445 L63.097 139.6615 L63.266 141.7763 L63.435 139.8723 L63.604 140.6475 L63.773 140.5741 L63.942 141.4239 L64.111 141.3826 L64.28 141.5574 L64.449 140.7088 L64.618 141.5812 L64.787 141.1411 L64.956 141.7689 L65.125 141.5834 L65.294 141.4208 L65.463 140.5947 L65.632 141.6549 L65.801 140.6764 L65.97 141.6293 L66.139 141.3061 L66.308 141.349 L66.477 140.7463 L66.646 141.5004 L66.815 141.334 L66.984 141.7444 L67.153 141.5992 L67.322 141.4406 L67.491 140.5386 L67.66 141.4815 L67.829 141.4173 L67.998 141.6812 L68.167 141.5028 L68.336 140.0011 L68.505 141.7875 L68.674 140.1012 L68.843 140.9399 L69.012 140.7165 L69.181 141.3087 L69.35 141.2976 L69.519 140.4617 L69.688 141.5106 L69.857 141.2707 L70.026 141.5815 L70.195 141.3787 L70.364 138.3027 L70.533 141.0078 L70.702 137.9078 L70.871 141.5086 L71.04 141.5423 L71.209 141.4248 L71.378 140.6332 L71.547 141.8182 L71.716 141.7278 L71.885 141.5917 L72.054 141.0349 L72.223 141.8537 L72.392 141.8061 L72.561 141.7107 L72.73 141.5664 L72.899 140.9377 L73.068 141.6387 L73.237 141.7047 L73.406 141.7499 L73.575 141.6235 L73.744 141.4191 L73.913 140.3039 L74.082 141.7943 L74.251 140.9539 L74.42 141.4619 L74.589 141.3101 L74.758 138.5343 L74.927 141.5496 L75.096 138.4503 L75.265 141.6966 L75.434 141.3709 L75.603 141.8693 L75.772 141.8239 L75.941 141.7685 L76.11 141.6565 L76.279 141.485 L76.448 140.7264 L76.617 141.6214 L76.786 141.6129 L76.955 141.7072 L77.124 141.5548 L77.293 139.7467 L77.462 141.7466 L77.631 139.9132 L77.8 141.457 L77.969 141.0709 L78.138 141.623 L78.307 141.693 L78.476 141.6285 L78.645 141.4284 L78.814 140.5258 L78.983 141.5763 L79.152 141.3292 L79.321 141.7373 L79.49 141.5718 L79.659 139.1839 L79.828 141.6553 L79.997 139.2367 L80.166 141.748 L80.335 141.1474 L80.504 141.8915 L80.673 141.7049 L80.842 141.8845 L81.011 141.9261 L81.18 141.8933 L81.349 141.8389 L81.518 141.7621 L81.687 141.645 L81.856 141.4722 L82.025 140.6458 L82.194 141.6275 L82.363 141.2114 L82.532 141.7348 L82.701 141.5833 L82.87 139.0381 L83.039 141.6418 L83.208 139.0671 L83.377 141.6753 L83.546 141.1328 L83.715 141.8622 L83.884 141.9066 L84.053 141.9117 L84.222 141.8455 L84.391 141.8744 L84.56 141.9081 L84.729 141.8693 L84.898 141.8049 L85.067 141.7078 L85.236 141.5612 L85.405 140.9044 L85.574 141.6021 L85.743 141.7203 L85.912 141.7511 L86.081 141.6221 L86.25 141.4507 L86.419 140.5683 L86.588 141.5609 L86.757 141.0616 L86.926 141.5896 L87.095 141.5563 L87.264 139.3015 L87.433 141.6852 L87.602 139.0455 L87.771 141.3194 L87.94 140.9489 L88.109 141.7462 L88.278 141.6287 L88.447 141.7433 L88.616 141.62 L88.785 141.4315 L88.954 140.6484 L89.123 141.8198 L89.292 141.735 L89.461 141.6046 L89.63 141.4038 L89.799 140.5741 L89.968 141.7979 L90.137 141.7317 L90.306 141.6046 L90.475 141.4088 L90.644 140.5534 L90.813 141.6302 L90.982 141.7128 L91.151 141.6289 L91.32 141.4444 L91.489 140.5947 L91.658 141.5059 L91.827 141.293 L91.996 141.6887 L92.165 141.5295 L92.334 139.4882 L92.503 141.722 L92.672 140.8228 L92.841 139.5846 L93.01 141.024 L93.179 141.2892 L93.348 141.6866 L93.517 141.7778 L93.686 141.8454 L93.855 141.8313 L94.024 141.8355 L94.193 141.7571 L94.362 141.6397 L94.531 141.4602 L94.7 140.7221 L94.869 141.8253 L95.038 141.7439 L95.207 141.6155 L95.376 141.0828 L95.545 141.764 L95.714 141.8219 L95.883 141.7431 L96.052 141.6163 L96.221 139.2146 L96.39 141.6962 L96.559 139.088 L96.728 141.2036 L96.897 140.9502 L97.066 141.708 L97.235 141.634 L97.404 141.8257 L97.573 141.7806 L97.742 141.6703 L97.911 141.5041 L98.08 140.8302 L98.249 141.8389 L98.418 141.7635 L98.587 141.6451 L98.756 141.4691 L98.925 140.7429 L99.094 141.7977 L99.263 141.748 L99.432 141.6221 L99.601 141.4339 L99.77 140.6565 L99.939 141.8139 L100.108 141.7334 L100.277 141.5997 L100.446 141.0304 L100.615 141.6516 L100.784 141.7934 L100.953 141.7554 L101.122 141.6341 L101.291 141.4583 L101.46 140.619 L101.629 141.5326 L101.798 141.2417 L101.967 141.6581 L102.136 141.4244 L102.305 139.1522 L102.474 141.6742 L102.643 138.9903 L102.812 141.3376 L102.981 140.9975 L103.15 141.7605 L103.319 141.6481 L103.488 141.732 L103.657 141.6003 L103.826 141.0491 L103.995 141.8551 L104.164 141.8154 L104.333 141.7302 L104.502 141.5956 L104.671 141.3976 L104.84 140.5343 L105.009 141.6125 L105.178 141.7329 L105.347 141.6052 L105.516 141.3985 L105.685 140.5207 L105.854 141.6457 L106.023 141.5936 L106.192 141.6713 L106.361 141.4883 L106.53 140.072 L106.699 141.7923 L106.868 140.2375 L107.037 141.0264 L107.206 140.7661 L107.375 141.2231 L107.544 140.3099 L107.713 141.5339 L107.882 140.3536 L108.051 141.4735 L108.22 141.0128 L108.389 141.3708 L108.558 141.3587 L108.727 141.3171 L108.896 140.7 L109.065 141.2281 L109.234 141.7741 L109.403 141.663 L109.572 141.501 L109.741 140.4485 L109.91 141.5516 L110.079 140.9579 L110.248 141.4039 L110.417 141.1003 L110.586 140.5069 L110.755 140.8736 L110.924 140.9382 L111.093 141.698 L111.262 141.6831 L111.431 141.5276 L111.6 140.5378 L111.769 141.4924 L111.938 141.222 L112.107 141.6474 L112.276 141.4008 L112.445 140.7568 L112.614 140.8222 L112.783 141.2318 L112.952 141.0809 L113.121 141.7359 L113.29 141.5952 L113.459 139.0836 L113.628 141.6571 L113.797 138.7174 L113.966 141.3044 L114.135 141.0368 L114.304 141.7654 L114.473 141.6797 L114.642 141.8005 L114.811 141.7085 L114.98 141.5618 L115.149 140.944 L115.318 141.6823 L115.487 141.8052 L115.656 141.7218 L115.825 141.5849 L115.994 141.3847 L116.163 140.4683 L116.332 141.5801 L116.501 141.5897 L116.67 141.625 L116.839 139.0834 L117.008 141.6364 L117.177 138.8857 L117.346 141.5616 L117.515 141.1008 L117.684 141.8275 L117.853 141.7119 L118.022 141.8807 L118.191 141.8272 L118.36 141.7396 L118.529 141.6101 L118.698 140.1271 L118.867 141.6661 L119.036 140.8138 L119.205 141.2985 L119.374 141.0156 L119.543 140.9777 L119.712 141.1159 L119.881 138.5919 L120.05 141.5741 L120.219 138.2198 L120.388 141.4706 L120.557 141.3991 L120.726 141.8267 L120.895 141.8105 L121.064 141.7665 L121.233 141.6514 L121.402 141.4771 L121.571 140.732 L121.74 141.6744 L121.909 141.7671 L122.078 141.668 L122.247 141.5056 L122.416 140.5072 L122.585 141.6256 L122.754 141.0459 L122.923 141.6473 L123.092 141.4421 L123.261 141.134 L123.43 140.7044 L123.599 141.7525 L123.768 140.5353 L123.937 141.7739 L124.106 141.4484 L124.275 141.5367 L124.444 140.4945 L124.613 141.7046 L124.782 140.7805 L124.951 141.6482 L125.12 141.3731 L125.289 141.3739 L125.458 140.2464 L125.627 141.7454 L125.796 140.1985 L125.965 141.7529 L126.134 141.2675 L126.303 141.695 L126.472 141.554 L126.641 139.7175 L126.81 141.7712 L126.979 139.9134 L127.148 141.0934 L127.317 140.8395 L127.486 141.4876 L127.655 141.4568 L127.824 141.6036 L127.993 139.8473 L128.162 141.7499 L128.331 139.9289 L128.5 141.4455 L128.669 141.0412 L128.838 141.6057 L129.007 141.548 L129.176 141.6315 L129.345 139.0829 L129.514 141.6397 L129.683 138.9476 L129.852 141.8014 L130.021 141.4517 L130.19 141.6477 L130.359 141.7159 L130.528 141.8365 L130.697 141.8527 L130.866 141.8325 L131.035 141.7527 L131.204 141.6275 L131.373 141.445 L131.542 140.6588 L131.711 141.6212 L131.88 141.7519 L132.049 141.6327 L132.218 141.4533 L132.387 140.6418 L132.556 141.4955 L132.725 141.6078 L132.894 141.6858 L133.063 141.5178 L133.232 139.9154 L133.401 141.7749 L133.57 139.9645 L133.739 140.9463 L133.908 140.6928 L134.077 141.3656 L134.246 141.5231 L134.415 140.8223 L134.584 141.486 L134.753 141.447 L134.922 141.7538 L135.091 141.6084 L135.26 138.6397 L135.429 141.5703 L135.598 138.4411 L135.767 141.6317 L135.936 141.3156 L136.105 141.8468 L136.274 141.7873 L136.443 141.7087 L136.612 141.5651 L136.781 140.4036 L136.95 141.6601 L137.119 141.3608 L137.288 141.8335 L137.457 141.6773 L137.626 141.5652 L137.795 139.3607 L137.964 141.6366 L138.133 139.4129 L138.302 141.8632 L138.471 141.2602 L138.64 141.9293 L138.809 141.7402 L138.978 141.9103 L139.147 141.9036 L139.316 141.8615 L139.485 141.7945 L139.654 141.6943 L139.823 141.5425 L139.992 140.4135 L140.161 141.6393 L140.33 141.0693 L140.499 141.5942 L140.668 141.3985 L140.837 141.1222 L141.006 140.2118 L141.175 141.7146 L141.344 140.0453 L141.513 141.8249 L141.682 141.2921 L141.851 141.7458 L142.02 141.6197 L142.189 141.4499 L142.358 140.6144 L142.527 141.5418 L142.696 141.5573 L142.865 141.677 L143.034 141.5077 L143.203 140.1416 L143.372 141.7519 L143.541 140.4255 L143.71 141.2135 L143.879 141.412 L144.048 141.6556 L144.217 141.4358 L144.386 140.4519 L144.555 141.4918 L144.724 140.9624 L144.893 141.3562 L145.062 141.0717 L145.231 138.3217 L145.4 141.3418 L145.569 137.872 L145.738 141.5796 L145.907 141.7313 L146.076 141.6356 L146.245 140.9777 L146.414 141.5843 L146.583 141.8536 L146.752 141.7892 L146.921 141.6932 L147.09 141.5443 L147.259 139.9593 L147.428 141.7703 L147.597 140.9583 L147.766 141.8537 L147.935 141.1877 L148.104 141.4959 L148.273 141.5376 L148.442 138.6308 L148.611 141.5616 L148.78 138.6664 L148.949 141.7377 L149.118 141.3019 L149.287 141.9017 L149.456 141.8086 L149.625 141.8608 L149.794 141.7955 L149.963 141.6936 L150.132 141.5429 L150.301 140.4547 L150.47 141.6576 L150.639 141.1223 L150.808 141.6727 L150.977 141.5266 L151.146 141.3166 L151.315 140.0584 L151.484 141.7034 L151.653 139.9862 L151.822 141.8406 L151.991 141.3335 L152.16 141.7841 L152.329 141.6772 L152.498 141.5312 L152.667 140.3362 L152.836 141.7638 L153.005 140.7254 L153.174 141.5865 L153.343 141.509 L153.512 141.5579 L153.681 141.3814 L153.85 140.3525 L154.019 141.5856 L154.188 141.0096 L154.357 141.4646 L154.526 141.2462 L154.695 138.6713 L154.864 141.5823 L155.033 138.713 L155.202 141.7375 L155.371 141.2492 L155.54 141.883 L155.709 141.7559 L155.878 141.9269 L156.047 141.8756 L156.216 141.8482 L156.385 141.7737 L156.554 141.6601 L156.723 141.4937 L156.892 140.721 L157.061 141.6161 L157.23 141.3833 L157.399 141.7432 L157.568 141.5945 L157.737 139.0774 L157.906 141.6437 L158.075 139.1397 L158.244 141.718 L158.413 141.1507 L158.582 141.8648 L158.751 141.6984 L158.92 141.9219 L159.089 141.9657 L159.258 141.9497 L159.427 141.9485 L159.596 141.9276 L159.765 141.892 L159.934 141.84 L160.103 141.7602 L160.272 141.641 L160.441 141.4648 L160.61 140.6592 L160.779 141.5941 L160.948 141.4022 L161.117 141.708 L161.286 141.5457 L161.455 139.6379 L161.624 141.7364 L161.793 139.7347 L161.962 141.3696 L162.131 140.9865 L162.3 141.6477 L162.469 141.5594 L162.638 141.638 L162.807 138.9718 L162.976 141.6173 L163.145 138.8665 L163.314 141.618 L163.483 141.1704 L163.652 141.8434 L163.821 141.7305 L163.99 141.9293 L164.159 141.9018 L164.328 141.8541 L164.497 141.7828 L164.666 141.6742 L164.835 141.5145 L165.004 140.7774 L165.173 141.6133 L165.342 141.5124 L165.511 141.7461 L165.68 141.6052 L165.849 138.969 L166.018 141.6248 L166.187 138.9457 L166.356 141.6803 L166.525 141.1597 L166.694 141.8628 L166.863 141.6968 L167.032 141.9219 L167.201 141.8817 L167.37 141.8439 L167.539 141.7685 L167.708 141.6518 L167.877 141.4788 L168.046 140.7521 L168.215 141.7415 L168.384 141.7619 L168.553 141.6484 L168.722 141.4747 L168.891 140.7041 L169.06 141.5984 L169.229 141.5998 L169.398 141.6949 L169.567 141.5346 L169.736 139.8912 L169.905 141.7729 L170.074 140.0274 L170.243 141.1345 L170.412 140.8434 L170.581 141.4188 L170.75 141.5841 L170.919 141.4086 L171.088 140.5315 L171.257 141.4508 L171.426 141.7207 L171.595 141.6072 L171.764 141.4129 L171.933 140.5427 L172.102 141.5267 L172.271 141.6097 L172.44 141.6541 L172.609 141.474 L172.778 140.3554 L172.947 141.6382 L173.116 140.7408 L173.285 141.2573 L173.454 140.9867 L173.623 140.7355 L173.792 140.8601 L173.961 141.0975 L174.13 141.5581 L174.299 141.6978 L174.468 141.5471 L174.637 140.1843 L174.806 141.6289 L174.975 140.6467 L175.144 141.1977 L175.313 141.4286 L175.482 141.5407 L175.651 141.2031 L175.82 140.0051 L175.989 141.7344 L176.158 140.3099 L176.327 140.7475 L176.496 140.6008 L176.665 141.1423 L176.834 141.1785 L177.003 140.6488 L177.172 141.5216 L177.341 141.6229 L177.51 141.7093 L177.679 141.5576 L177.848 139.5382 L178.017 141.7063 L178.186 139.5031 L178.355 141.5071 L178.524 141.0171 L178.693 141.7364 L178.862 141.6066 L179.031 141.6657 L179.2 141.497 L179.369 140.7584 L179.538 141.6262 L179.707 141.5081 L179.876 141.7254 L180.045 141.5717 L180.214 139.2916 L180.383 141.6878 L180.552 139.2084 L180.721 141.4142 L180.89 140.9875 L181.059 141.7492 L181.228 141.8481 L181.397 141.7725 L181.566 141.6517 L181.735 141.4863 L181.904 140.7766 L182.073 141.7594 L182.242 141.761 L182.411 141.6451 L182.58 141.4681 L182.749 140.7124 L182.918 141.6225 L183.087 141.7644 L183.256 141.6607 L183.425 141.4912 L183.594 140.5659 L183.763 141.5415 L183.932 141.1485 L184.101 141.5611 L184.27 141.3061 L184.439 138.3558 L184.608 140.3989 L184.777 138.2375 L184.946 140.8729 L185.115 141.5572 L185.284 141.6419 L185.453 141.6526 L185.622 141.4754 L185.791 140.726 L185.96 141.6461 L186.129 141.769 L186.298 141.6723 L186.467 141.5116 L186.636 140.3829 L186.805 141.6804 L186.974 140.8779 L187.143 141.5615 L187.312 141.3442 L187.481 141.1817 L187.65 140.3215 L187.819 141.7222 L187.988 140.1648 L188.157 141.8246 L188.326 141.4237 L188.495 141.7176 L188.664 141.57 L188.833 139.6818 L189.002 141.761 L189.171 139.8912 L189.34 141.2514 L189.509 140.9456 L189.678 141.5564 L189.847 141.5224 L190.016 141.6371 L190.185 141.5145 L190.354 140.0469 L190.523 141.7538 L190.692 140.484 L190.861 141.2632 L191.03 141.014 L191.199 141.1978 L191.368 141.2829 L191.537 139.6953 L191.706 141.736 L191.875 140.0034 L192.044 140.8877 L192.213 140.6951 L192.382 141.3896 L192.551 141.5753 L192.72 141.6053 L192.889 139.8784 L193.058 141.7391 L193.227 139.9171 L193.396 141.5919 L193.565 141.1546 L193.734 141.705 L193.903 141.7425 L194.072 141.6524 L194.241 141.4676 L194.41 140.4669 L194.579 141.6181 L194.748 141.014 L194.917 141.5609 L195.086 141.3578 L195.255 138.4037 L195.424 141.4495 L195.593 138.2604 L195.762 141.6535 L195.931 141.5912 L196.1 141.754 L196.269 141.6382 L196.438 141.4569 L196.607 140.6905 L196.776 141.699 L196.945 141.7534 L197.114 141.6432 L197.283 141.4683 L197.452 140.6648 L197.621 141.5904 L197.79 141.4372 L197.959 141.7129 L198.128 141.5543 L198.297 139.616 L198.466 141.7291 L198.635 139.7445 L198.804 141.5009 L198.973 141.0713 L199.142 141.7099 L199.311 141.6018 L199.48 141.6783 L199.649 141.5568 L199.818 139.679 L199.987 141.7544 L200.156 139.9119 L200.325 141.333 L200.494 141.0049 L200.663 141.5941 L200.832 141.546 L201.001 141.6236 L201.17 141.4795 L201.339 140.2523 L201.508 141.6734 L201.677 140.7745 L201.846 141.4375 L202.015 141.2107 L202.184 141.0077 L202.353 141.2072 L202.522 140.4 L202.691 141.2642 L202.86 141.5819 L203.029 141.7088 L203.198 141.5578 L203.367 139.4962 L203.536 141.6726 L203.705 139.561 L203.874 141.8218 L204.043 141.2198 L204.212 141.8733 L204.381 141.8257 L204.55 141.7816 L204.719 141.6697 L204.888 141.5136 L205.057 140.4039 L205.226 141.7221 L205.395 140.8646 L205.564 141.608 L205.733 141.4165 L205.902 141.3125 L206.071 140.2789 L206.24 141.7269 L206.409 140.1718 L206.578 141.8188 L206.747 141.3727 L206.916 141.7117 L207.085 141.5615 L207.254 139.7157 L207.423 141.7642 L207.592 139.9615 L207.761 141.2839 L207.93 140.9738 L208.099 141.5349 L208.268 141.7023 L208.437 141.6612 L208.606 141.4728 L208.775 140.3036 L208.944 141.6734 L209.113 140.7784 L209.282 141.4643 L209.451 141.2354 L209.62 141.0329 L209.789 140.5815 L209.958 141.7285 L210.127 140.326 L210.296 141.8147 L210.465 141.5929 L210.634 141.6552 L210.803 141.4764 L210.972 140.546 L211.141 141.5899 L211.31 141.1491 L211.479 141.7094 L211.648 141.59 L211.817 138.5761 L211.986 141.5468 L212.155 138.626 L212.324 141.7317 L212.493 141.3375 L212.662 141.888 L212.831 141.818 L213 141.7913"
         style="fill:none; fill-rule:evenodd;"
         id="path137" />
    </g>
  </g>
</svg>
