<?xml version="1.0" encoding="UTF-8" standalone="no"?>
<svg
   style="fill-opacity:1; color-rendering:auto; color-interpolation:auto; text-rendering:auto; stroke:black; stroke-linecap:square; stroke-miterlimit:10; shape-rendering:auto; stroke-opacity:1; fill:black; stroke-dasharray:none; font-weight:normal; stroke-width:1; font-family:'Dialog'; font-style:normal; stroke-linejoin:miter; font-size:12px; stroke-dashoffset:0; image-rendering:auto;"
   width="235"
   height="182"
   version="1.1"
   id="svg117"
   sodipodi:docname="Flist-ETA95-GAMMA90.svg"
   inkscape:export-filename="Flist-ETA95-GAMMA90.pdf"
   inkscape:export-xdpi="600"
   inkscape:export-ydpi="600"
   inkscape:version="1.2.2 (732a01da63, 2022-12-09)"
   xmlns:inkscape="http://www.inkscape.org/namespaces/inkscape"
   xmlns:sodipodi="http://sodipodi.sourceforge.net/DTD/sodipodi-0.dtd"
   xmlns="http://www.w3.org/2000/svg"
   xmlns:svg="http://www.w3.org/2000/svg">
  <sodipodi:namedview
     id="namedview119"
     pagecolor="#ffffff"
     bordercolor="#000000"
     borderopacity="0.25"
     inkscape:showpageshadow="2"
     inkscape:pageopacity="0.0"
     inkscape:pagecheckerboard="0"
     inkscape:deskcolor="#d1d1d1"
     showgrid="false"
     inkscape:zoom="4.5549451"
     inkscape:cx="117.45476"
     inkscape:cy="91.109771"
     inkscape:window-width="1920"
     inkscape:window-height="1009"
     inkscape:window-x="-8"
     inkscape:window-y="-8"
     inkscape:window-maximized="1"
     inkscape:current-layer="svg117" />
  <!--Generated by the Batik Graphics2D SVG Generator-->
  <defs
     id="genericDefs" />
  <g
     id="g115">
    <defs
       id="defs1">
      <clipPath
         clipPathUnits="userSpaceOnUse"
         id="clipPath1">
        <path
           d="M0 0 L235 0 L235 182 L0 182 L0 0 Z"
           id="path3" />
      </clipPath>
    </defs>
    <g
       style="fill:white; stroke:white;"
       id="g9">
      <rect
         x="0"
         y="0"
         width="235"
         style="clip-path:url(#clipPath1); stroke:none;"
         height="182"
         clip-path="url(#clipPath1)"
         id="rect7" />
    </g>
    <g
       style="fill:white; text-rendering:optimizeSpeed; color-rendering:optimizeSpeed; image-rendering:optimizeSpeed; shape-rendering:crispEdges; stroke:white; color-interpolation:sRGB;"
       id="g15">
      <rect
         x="0"
         width="235"
         height="182"
         y="0"
         style="stroke:none;"
         id="rect11" />
      <path
         style="stroke:none;"
         d="M44 142 L213 142 L213 23 L44 23 Z"
         id="path13" />
    </g>
    <g
       style="fill:rgb(38,38,38); text-rendering:geometricPrecision; image-rendering:optimizeQuality; color-rendering:optimizeQuality; stroke-linejoin:round; stroke:rgb(38,38,38); color-interpolation:linearRGB; stroke-width:0.6667;"
       id="g33">
      <line
         y2="142"
         style="fill:none;"
         x1="44"
         x2="213"
         y1="142"
         id="line17" />
      <line
         y2="23"
         style="fill:none;"
         x1="44"
         x2="213"
         y1="23"
         id="line19" />
      <line
         y2="140.31"
         style="fill:none;"
         x1="44"
         x2="44"
         y1="142"
         id="line21" />
      <line
         y2="140.31"
         style="fill:none;"
         x1="128.5"
         x2="128.5"
         y1="142"
         id="line23" />
      <line
         y2="140.31"
         style="fill:none;"
         x1="213"
         x2="213"
         y1="142"
         id="line25" />
      <line
         y2="24.69"
         style="fill:none;"
         x1="44"
         x2="44"
         y1="23"
         id="line27" />
      <line
         y2="24.69"
         style="fill:none;"
         x1="128.5"
         x2="128.5"
         y1="23"
         id="line29" />
      <line
         y2="24.69"
         style="fill:none;"
         x1="213"
         x2="213"
         y1="23"
         id="line31" />
    </g>
    <g
       transform="translate(44,147.3333)"
       style="font-size:13.3333px; fill:rgb(38,38,38); text-rendering:geometricPrecision; image-rendering:optimizeQuality; color-rendering:optimizeQuality; font-family:'mwa_cmr10'; stroke:rgb(38,38,38); color-interpolation:linearRGB;"
       id="g37">
      <path
         style="stroke:none;"
         d="M-0.0833 11.4812 Q-1.6771 11.4812 -2.2474 10.1687 Q-2.8177 8.8562 -2.8177 7.0593 Q-2.8177 5.9187 -2.6146 4.9265 Q-2.4115 3.9343 -1.8021 3.239 Q-1.1927 2.5437 -0.0833 2.5437 Q0.776 2.5437 1.3229 2.9578 Q1.8698 3.3718 2.151 4.0359 Q2.4323 4.7 2.5417 5.4578 Q2.651 6.2156 2.651 7.0593 Q2.651 8.1687 2.4401 9.1453 Q2.2292 10.1218 1.6276 10.8015 Q1.026 11.4812 -0.0833 11.4812 ZM-0.0833 11.1531 Q0.6354 11.1531 0.9948 10.4109 Q1.3542 9.6687 1.4323 8.7625 Q1.5104 7.8562 1.5104 6.8406 Q1.5104 5.8718 1.4323 5.0437 Q1.3542 4.2156 1.0026 3.5437 Q0.651 2.8718 -0.0833 2.8718 Q-0.8177 2.8718 -1.1771 3.5515 Q-1.5365 4.2312 -1.6146 5.0515 Q-1.6927 5.8718 -1.6927 6.8406 Q-1.6927 7.575 -1.6615 8.2156 Q-1.6302 8.8562 -1.474 9.5359 Q-1.3177 10.2156 -0.9818 10.6843 Q-0.6458 11.1531 -0.0833 11.1531 Z"
         id="path35" />
    </g>
    <g
       transform="translate(128.5,147.3333)"
       style="font-size:13.3333px; fill:rgb(38,38,38); text-rendering:geometricPrecision; image-rendering:optimizeQuality; color-rendering:optimizeQuality; font-family:'mwa_cmr10'; stroke:rgb(38,38,38); color-interpolation:linearRGB;"
       id="g45">
      <path
         style="stroke:none;"
         d="M-8.875 9.7156 Q-8.7344 10.1062 -8.461 10.4187 Q-8.1875 10.7312 -7.8047 10.9031 Q-7.4219 11.075 -7.0156 11.075 Q-6.0781 11.075 -5.7266 10.3406 Q-5.375 9.6062 -5.375 8.575 Q-5.375 8.1218 -5.3906 7.8171 Q-5.4063 7.5125 -5.4688 7.2156 Q-5.5938 6.7625 -5.8985 6.4187 Q-6.2031 6.075 -6.6406 6.075 Q-7.0781 6.075 -7.3906 6.2078 Q-7.7031 6.3406 -7.8985 6.5203 Q-8.0938 6.7 -8.25 6.8953 Q-8.4063 7.0906 -8.4375 7.1062 L-8.5781 7.1062 Q-8.6094 7.1062 -8.6641 7.0671 Q-8.7188 7.0281 -8.7188 6.9812 L-8.7188 2.6375 Q-8.7188 2.6062 -8.6719 2.575 Q-8.625 2.5437 -8.5781 2.5437 L-8.5469 2.5437 Q-7.6719 2.9656 -6.6875 2.9656 Q-5.7188 2.9656 -4.8281 2.5437 L-4.7813 2.5437 Q-4.75 2.5437 -4.711 2.575 Q-4.6719 2.6062 -4.6719 2.6375 L-4.6719 2.7625 Q-4.6719 2.825 -4.6875 2.825 Q-5.1406 3.4187 -5.8125 3.7468 Q-6.4844 4.075 -7.1875 4.075 Q-7.7188 4.075 -8.2656 3.9343 L-8.2656 6.3875 Q-7.8281 6.0437 -7.4922 5.8953 Q-7.1563 5.7468 -6.625 5.7468 Q-5.9063 5.7468 -5.336 6.1531 Q-4.7656 6.5593 -4.461 7.2234 Q-4.1563 7.8875 -4.1563 8.5906 Q-4.1563 9.3718 -4.5391 10.0359 Q-4.9219 10.7 -5.586 11.0906 Q-6.25 11.4812 -7.0156 11.4812 Q-7.6563 11.4812 -8.1953 11.1531 Q-8.7344 10.825 -9.0469 10.2703 Q-9.3594 9.7156 -9.3594 9.075 Q-9.3594 8.7937 -9.1641 8.6062 Q-8.9688 8.4187 -8.6875 8.4187 Q-8.4063 8.4187 -8.211 8.6062 Q-8.0156 8.7937 -8.0156 9.075 Q-8.0156 9.3562 -8.211 9.5515 Q-8.4063 9.7468 -8.6875 9.7468 Q-8.7344 9.7468 -8.7891 9.739 Q-8.8438 9.7312 -8.875 9.7156 Z"
         id="path39" />
      <path
         style="stroke:none;"
         d="M-0.0833 11.4812 Q-1.6771 11.4812 -2.2474 10.1687 Q-2.8177 8.8562 -2.8177 7.0593 Q-2.8177 5.9187 -2.6146 4.9265 Q-2.4115 3.9343 -1.8021 3.239 Q-1.1927 2.5437 -0.0833 2.5437 Q0.776 2.5437 1.3229 2.9578 Q1.8698 3.3718 2.151 4.0359 Q2.4323 4.7 2.5417 5.4578 Q2.651 6.2156 2.651 7.0593 Q2.651 8.1687 2.4401 9.1453 Q2.2292 10.1218 1.6276 10.8015 Q1.026 11.4812 -0.0833 11.4812 ZM-0.0833 11.1531 Q0.6354 11.1531 0.9948 10.4109 Q1.3542 9.6687 1.4323 8.7625 Q1.5104 7.8562 1.5104 6.8406 Q1.5104 5.8718 1.4323 5.0437 Q1.3542 4.2156 1.0026 3.5437 Q0.651 2.8718 -0.0833 2.8718 Q-0.8177 2.8718 -1.1771 3.5515 Q-1.5365 4.2312 -1.6146 5.0515 Q-1.6927 5.8718 -1.6927 6.8406 Q-1.6927 7.575 -1.6615 8.2156 Q-1.6302 8.8562 -1.474 9.5359 Q-1.3177 10.2156 -0.9818 10.6843 Q-0.6458 11.1531 -0.0833 11.1531 Z"
         id="path41" />
      <path
         style="stroke:none;"
         d="M6.5834 11.4812 Q4.9896 11.4812 4.4193 10.1687 Q3.849 8.8562 3.849 7.0593 Q3.849 5.9187 4.0521 4.9265 Q4.2552 3.9343 4.8646 3.239 Q5.474 2.5437 6.5834 2.5437 Q7.4427 2.5437 7.9896 2.9578 Q8.5365 3.3718 8.8177 4.0359 Q9.099 4.7 9.2084 5.4578 Q9.3177 6.2156 9.3177 7.0593 Q9.3177 8.1687 9.1068 9.1453 Q8.8959 10.1218 8.2943 10.8015 Q7.6927 11.4812 6.5834 11.4812 ZM6.5834 11.1531 Q7.3021 11.1531 7.6615 10.4109 Q8.0209 9.6687 8.099 8.7625 Q8.1771 7.8562 8.1771 6.8406 Q8.1771 5.8718 8.099 5.0437 Q8.0209 4.2156 7.6693 3.5437 Q7.3177 2.8718 6.5834 2.8718 Q5.849 2.8718 5.4896 3.5515 Q5.1302 4.2312 5.0521 5.0515 Q4.974 5.8718 4.974 6.8406 Q4.974 7.575 5.0052 8.2156 Q5.0365 8.8562 5.1927 9.5359 Q5.349 10.2156 5.6849 10.6843 Q6.0209 11.1531 6.5834 11.1531 Z"
         id="path43" />
    </g>
    <g
       transform="translate(213,147.3333)"
       style="font-size:13.3333px; fill:rgb(38,38,38); text-rendering:geometricPrecision; image-rendering:optimizeQuality; color-rendering:optimizeQuality; font-family:'mwa_cmr10'; stroke:rgb(38,38,38); color-interpolation:linearRGB;"
       id="g55">
      <path
         style="stroke:none;"
         d="M-12.1302 11.2 L-12.1302 10.7468 Q-10.5052 10.7468 -10.5052 10.325 L-10.5052 3.5125 Q-11.1771 3.825 -12.2084 3.825 L-12.2084 3.3718 Q-10.6146 3.3718 -9.8021 2.5437 L-9.6146 2.5437 Q-9.5677 2.5437 -9.5287 2.575 Q-9.4896 2.6062 -9.4896 2.6531 L-9.4896 10.325 Q-9.4896 10.7468 -7.8646 10.7468 L-7.8646 11.2 L-12.1302 11.2 Z"
         id="path47" />
      <path
         style="stroke:none;"
         d="M-3.4167 11.4812 Q-5.0104 11.4812 -5.5807 10.1687 Q-6.1511 8.8562 -6.1511 7.0593 Q-6.1511 5.9187 -5.9479 4.9265 Q-5.7448 3.9343 -5.1354 3.239 Q-4.5261 2.5437 -3.4167 2.5437 Q-2.5573 2.5437 -2.0104 2.9578 Q-1.4636 3.3718 -1.1823 4.0359 Q-0.9011 4.7 -0.7917 5.4578 Q-0.6823 6.2156 -0.6823 7.0593 Q-0.6823 8.1687 -0.8932 9.1453 Q-1.1042 10.1218 -1.7057 10.8015 Q-2.3073 11.4812 -3.4167 11.4812 ZM-3.4167 11.1531 Q-2.6979 11.1531 -2.3386 10.4109 Q-1.9792 9.6687 -1.9011 8.7625 Q-1.8229 7.8562 -1.8229 6.8406 Q-1.8229 5.8718 -1.9011 5.0437 Q-1.9792 4.2156 -2.3307 3.5437 Q-2.6823 2.8718 -3.4167 2.8718 Q-4.1511 2.8718 -4.5104 3.5515 Q-4.8698 4.2312 -4.9479 5.0515 Q-5.0261 5.8718 -5.0261 6.8406 Q-5.0261 7.575 -4.9948 8.2156 Q-4.9636 8.8562 -4.8073 9.5359 Q-4.6511 10.2156 -4.3151 10.6843 Q-3.9792 11.1531 -3.4167 11.1531 Z"
         id="path49" />
      <path
         style="stroke:none;"
         d="M3.25 11.4812 Q1.6562 11.4812 1.0859 10.1687 Q0.5156 8.8562 0.5156 7.0593 Q0.5156 5.9187 0.7188 4.9265 Q0.9219 3.9343 1.5312 3.239 Q2.1406 2.5437 3.25 2.5437 Q4.1094 2.5437 4.6562 2.9578 Q5.2031 3.3718 5.4844 4.0359 Q5.7656 4.7 5.875 5.4578 Q5.9844 6.2156 5.9844 7.0593 Q5.9844 8.1687 5.7734 9.1453 Q5.5625 10.1218 4.9609 10.8015 Q4.3594 11.4812 3.25 11.4812 ZM3.25 11.1531 Q3.9688 11.1531 4.3281 10.4109 Q4.6875 9.6687 4.7656 8.7625 Q4.8438 7.8562 4.8438 6.8406 Q4.8438 5.8718 4.7656 5.0437 Q4.6875 4.2156 4.3359 3.5437 Q3.9844 2.8718 3.25 2.8718 Q2.5156 2.8718 2.1562 3.5515 Q1.7969 4.2312 1.7188 5.0515 Q1.6406 5.8718 1.6406 6.8406 Q1.6406 7.575 1.6719 8.2156 Q1.7031 8.8562 1.8594 9.5359 Q2.0156 10.2156 2.3516 10.6843 Q2.6875 11.1531 3.25 11.1531 Z"
         id="path51" />
      <path
         style="stroke:none;"
         d="M9.9167 11.4812 Q8.3229 11.4812 7.7526 10.1687 Q7.1823 8.8562 7.1823 7.0593 Q7.1823 5.9187 7.3854 4.9265 Q7.5886 3.9343 8.1979 3.239 Q8.8073 2.5437 9.9167 2.5437 Q10.7761 2.5437 11.3229 2.9578 Q11.8698 3.3718 12.1511 4.0359 Q12.4323 4.7 12.5417 5.4578 Q12.6511 6.2156 12.6511 7.0593 Q12.6511 8.1687 12.4401 9.1453 Q12.2292 10.1218 11.6276 10.8015 Q11.0261 11.4812 9.9167 11.4812 ZM9.9167 11.1531 Q10.6354 11.1531 10.9948 10.4109 Q11.3542 9.6687 11.4323 8.7625 Q11.5104 7.8562 11.5104 6.8406 Q11.5104 5.8718 11.4323 5.0437 Q11.3542 4.2156 11.0026 3.5437 Q10.6511 2.8718 9.9167 2.8718 Q9.1823 2.8718 8.8229 3.5515 Q8.4636 4.2312 8.3854 5.0515 Q8.3073 5.8718 8.3073 6.8406 Q8.3073 7.575 8.3386 8.2156 Q8.3698 8.8562 8.5261 9.5359 Q8.6823 10.2156 9.0182 10.6843 Q9.3542 11.1531 9.9167 11.1531 Z"
         id="path53" />
    </g>
    <g
       transform="translate(128.5001,164.6667)"
       style="font-size:14.6667px; fill:rgb(38,38,38); text-rendering:geometricPrecision; image-rendering:optimizeQuality; color-rendering:optimizeQuality; font-family:'mwa_cmr10'; stroke:rgb(38,38,38); color-interpolation:linearRGB;"
       id="g67">
      <path
         style="stroke:none;"
         d="M-15.4704 12.3668 L-15.4704 9.9137 Q-15.4704 9.8043 -15.3454 9.8043 L-15.1579 9.8043 Q-15.0641 9.8043 -15.0329 9.9137 Q-14.6266 12.0856 -13.0173 12.0856 Q-12.3141 12.0856 -11.8298 11.7653 Q-11.3454 11.4449 -11.3454 10.7731 Q-11.3454 10.2887 -11.7204 9.9528 Q-12.0954 9.6168 -12.611 9.4918 L-13.611 9.2887 Q-14.111 9.1793 -14.5251 8.9528 Q-14.9391 8.7262 -15.2048 8.3512 Q-15.4704 7.9762 -15.4704 7.4762 Q-15.4704 6.8043 -15.1266 6.3903 Q-14.7829 5.9762 -14.2204 5.7887 Q-13.6579 5.6012 -13.0173 5.6012 Q-12.2516 5.6012 -11.6735 6.0074 L-11.2516 5.6324 Q-11.2516 5.6012 -11.1735 5.6012 L-11.0641 5.6012 Q-11.0173 5.6012 -10.9782 5.6403 Q-10.9391 5.6793 -10.9391 5.7262 L-10.9391 7.6793 Q-10.9391 7.8199 -11.0641 7.8199 L-11.2516 7.8199 Q-11.3766 7.8199 -11.3766 7.6793 Q-11.3766 6.8981 -11.8141 6.4215 Q-12.2516 5.9449 -13.0329 5.9449 Q-13.7048 5.9449 -14.197 6.1949 Q-14.6891 6.4449 -14.6891 7.0543 Q-14.6891 7.4762 -14.3376 7.7418 Q-13.986 8.0074 -13.5016 8.1168 L-12.486 8.3199 Q-11.986 8.4293 -11.5407 8.7106 Q-11.0954 8.9918 -10.8376 9.4137 Q-10.5798 9.8356 -10.5798 10.3668 Q-10.5798 10.9137 -10.7595 11.3121 Q-10.9391 11.7106 -11.2751 11.9762 Q-11.611 12.2418 -12.0641 12.3668 Q-12.5173 12.4918 -13.0173 12.4918 Q-13.9548 12.4918 -14.6266 11.8512 L-15.1735 12.4449 Q-15.1735 12.4918 -15.2516 12.4918 L-15.3454 12.4918 Q-15.4704 12.4918 -15.4704 12.3668 Z"
         id="path57" />
      <path
         style="stroke:none;"
         d="M-8.654 10.5231 L-8.654 6.3824 L-9.904 6.3824 L-9.904 5.9918 Q-8.9196 5.9918 -8.4586 5.0778 Q-7.9977 4.1637 -7.9977 3.0856 L-7.5602 3.0856 L-7.5602 5.8512 L-5.4508 5.8512 L-5.4508 6.3824 L-7.5602 6.3824 L-7.5602 10.4918 Q-7.5602 11.1168 -7.3493 11.5856 Q-7.1383 12.0543 -6.6071 12.0543 Q-6.0915 12.0543 -5.8649 11.5543 Q-5.6383 11.0543 -5.6383 10.4918 L-5.6383 9.6012 L-5.2008 9.6012 L-5.2008 10.5231 Q-5.2008 10.9918 -5.3727 11.4449 Q-5.5446 11.8981 -5.8805 12.1949 Q-6.2165 12.4918 -6.7008 12.4918 Q-7.6071 12.4918 -8.1305 11.9528 Q-8.654 11.4137 -8.654 10.5231 Z"
         id="path59" />
      <path
         style="stroke:none;"
         d="M-0.7471 12.4918 Q-1.669 12.4918 -2.4268 12.0074 Q-3.1846 11.5231 -3.6221 10.7262 Q-4.0596 9.9293 -4.0596 9.0387 Q-4.0596 8.1481 -3.6612 7.359 Q-3.2627 6.5699 -2.5518 6.0856 Q-1.8409 5.6012 -0.9659 5.6012 Q-0.2627 5.6012 0.2451 5.8278 Q0.7529 6.0543 1.081 6.4684 Q1.4091 6.8824 1.5732 7.4371 Q1.7373 7.9918 1.7373 8.6637 Q1.7373 8.8512 1.5966 8.8512 L-2.7471 8.8512 L-2.7471 9.0231 Q-2.7471 10.2574 -2.2471 11.1559 Q-1.7471 12.0543 -0.6065 12.0543 Q-0.1534 12.0543 0.2373 11.8434 Q0.6279 11.6324 0.917 11.2731 Q1.206 10.9137 1.3154 10.4918 Q1.331 10.4449 1.3701 10.3981 Q1.4091 10.3512 1.456 10.3512 L1.5966 10.3512 Q1.7373 10.3512 1.7373 10.5543 Q1.5341 11.3981 0.831 11.9449 Q0.1279 12.4918 -0.7471 12.4918 ZM-2.7315 8.4762 L0.6748 8.4762 Q0.6748 7.9137 0.5185 7.3356 Q0.3623 6.7574 -0.0049 6.3746 Q-0.3721 5.9918 -0.9659 5.9918 Q-1.8096 5.9918 -2.2705 6.7887 Q-2.7315 7.5856 -2.7315 8.4762 Z"
         id="path61" />
      <path
         style="stroke:none;"
         d="M2.4277 15.2262 L2.4277 14.7106 Q2.9433 14.7106 3.2714 14.6246 Q3.5995 14.5387 3.5995 14.2262 L3.5995 6.9918 Q3.5995 6.5856 3.3027 6.484 Q3.0058 6.3824 2.4277 6.3824 L2.4277 5.8512 L4.6464 5.6949 L4.6464 6.6168 Q5.0527 6.1637 5.5995 5.9293 Q6.1464 5.6949 6.7558 5.6949 Q7.6464 5.6949 8.3573 6.1715 Q9.0683 6.6481 9.4667 7.4293 Q9.8652 8.2106 9.8652 9.0856 Q9.8652 9.9918 9.4198 10.7731 Q8.9745 11.5543 8.2089 12.0231 Q7.4433 12.4918 6.537 12.4918 Q5.4433 12.4918 4.6933 11.6012 L4.6933 14.2262 Q4.6933 14.5387 5.0214 14.6246 Q5.3495 14.7106 5.8652 14.7106 L5.8652 15.2262 L2.4277 15.2262 ZM4.6933 10.8668 Q4.9589 11.3981 5.4277 11.7418 Q5.8964 12.0856 6.4433 12.0856 Q6.9589 12.0856 7.3652 11.8121 Q7.7714 11.5387 8.037 11.0699 Q8.3027 10.6012 8.4355 10.0856 Q8.5683 9.5699 8.5683 9.0856 Q8.5683 8.4762 8.3495 7.7809 Q8.1308 7.0856 7.6855 6.6012 Q7.2402 6.1168 6.6152 6.1168 Q6.0058 6.1168 5.498 6.4293 Q4.9902 6.7418 4.6933 7.2731 L4.6933 10.8668 Z"
         id="path63" />
      <path
         style="stroke:none;"
         d="M10.6852 12.3668 L10.6852 9.9137 Q10.6852 9.8043 10.8102 9.8043 L10.9977 9.8043 Q11.0915 9.8043 11.1227 9.9137 Q11.529 12.0856 13.1383 12.0856 Q13.8415 12.0856 14.3258 11.7653 Q14.8102 11.4449 14.8102 10.7731 Q14.8102 10.2887 14.4352 9.9528 Q14.0602 9.6168 13.5446 9.4918 L12.5446 9.2887 Q12.0446 9.1793 11.6305 8.9528 Q11.2165 8.7262 10.9508 8.3512 Q10.6852 7.9762 10.6852 7.4762 Q10.6852 6.8043 11.029 6.3903 Q11.3727 5.9762 11.9352 5.7887 Q12.4977 5.6012 13.1383 5.6012 Q13.904 5.6012 14.4821 6.0074 L14.904 5.6324 Q14.904 5.6012 14.9821 5.6012 L15.0915 5.6012 Q15.1383 5.6012 15.1774 5.6403 Q15.2165 5.6793 15.2165 5.7262 L15.2165 7.6793 Q15.2165 7.8199 15.0915 7.8199 L14.904 7.8199 Q14.779 7.8199 14.779 7.6793 Q14.779 6.8981 14.3415 6.4215 Q13.904 5.9449 13.1227 5.9449 Q12.4508 5.9449 11.9586 6.1949 Q11.4665 6.4449 11.4665 7.0543 Q11.4665 7.4762 11.818 7.7418 Q12.1696 8.0074 12.654 8.1168 L13.6696 8.3199 Q14.1696 8.4293 14.6149 8.7106 Q15.0602 8.9918 15.318 9.4137 Q15.5758 9.8356 15.5758 10.3668 Q15.5758 10.9137 15.3961 11.3121 Q15.2165 11.7106 14.8805 11.9762 Q14.5446 12.2418 14.0915 12.3668 Q13.6383 12.4918 13.1383 12.4918 Q12.2008 12.4918 11.529 11.8512 L10.9821 12.4449 Q10.9821 12.4918 10.904 12.4918 L10.8102 12.4918 Q10.6852 12.4918 10.6852 12.3668 Z"
         id="path65" />
    </g>
    <g
       style="fill:rgb(38,38,38); text-rendering:geometricPrecision; image-rendering:optimizeQuality; color-rendering:optimizeQuality; stroke-linejoin:round; stroke:rgb(38,38,38); color-interpolation:linearRGB; stroke-width:0.6667;"
       id="g85">
      <line
         y2="23"
         style="fill:none;"
         x1="44"
         x2="44"
         y1="142"
         id="line69" />
      <line
         y2="23"
         style="fill:none;"
         x1="213"
         x2="213"
         y1="142"
         id="line71" />
      <line
         y2="142"
         style="fill:none;"
         x1="44"
         x2="45.69"
         y1="142"
         id="line73" />
      <line
         y2="82.5"
         style="fill:none;"
         x1="44"
         x2="45.69"
         y1="82.5"
         id="line75" />
      <line
         y2="23"
         style="fill:none;"
         x1="44"
         x2="45.69"
         y1="23"
         id="line77" />
      <line
         y2="142"
         style="fill:none;"
         x1="213"
         x2="211.31"
         y1="142"
         id="line79" />
      <line
         y2="82.5"
         style="fill:none;"
         x1="213"
         x2="211.31"
         y1="82.5"
         id="line81" />
      <line
         y2="23"
         style="fill:none;"
         x1="213"
         x2="211.31"
         y1="23"
         id="line83" />
    </g>
    <g
       transform="translate(38.6667,142)"
       style="font-size:13.3333px; fill:rgb(38,38,38); text-rendering:geometricPrecision; image-rendering:optimizeQuality; color-rendering:optimizeQuality; font-family:'mwa_cmr10'; stroke:rgb(38,38,38); color-interpolation:linearRGB;"
       id="g89">
      <path
         style="stroke:none;"
         d="M-3.4167 3.4812 Q-5.0104 3.4812 -5.5807 2.1687 Q-6.1511 0.8562 -6.1511 -0.9407 Q-6.1511 -2.0813 -5.9479 -3.0735 Q-5.7448 -4.0657 -5.1354 -4.761 Q-4.5261 -5.4563 -3.4167 -5.4563 Q-2.5573 -5.4563 -2.0104 -5.0422 Q-1.4636 -4.6282 -1.1823 -3.9641 Q-0.9011 -3.3 -0.7917 -2.5422 Q-0.6823 -1.7844 -0.6823 -0.9407 Q-0.6823 0.1687 -0.8932 1.1453 Q-1.1042 2.1218 -1.7057 2.8015 Q-2.3073 3.4812 -3.4167 3.4812 ZM-3.4167 3.1531 Q-2.6979 3.1531 -2.3386 2.4109 Q-1.9792 1.6687 -1.9011 0.7625 Q-1.8229 -0.1438 -1.8229 -1.1594 Q-1.8229 -2.1282 -1.9011 -2.9563 Q-1.9792 -3.7844 -2.3307 -4.4563 Q-2.6823 -5.1282 -3.4167 -5.1282 Q-4.1511 -5.1282 -4.5104 -4.4485 Q-4.8698 -3.7688 -4.9479 -2.9485 Q-5.0261 -2.1282 -5.0261 -1.1594 Q-5.0261 -0.425 -4.9948 0.2156 Q-4.9636 0.8562 -4.8073 1.5359 Q-4.6511 2.2156 -4.3151 2.6843 Q-3.9792 3.1531 -3.4167 3.1531 Z"
         id="path87" />
    </g>
    <g
       transform="translate(38.6667,82.5)"
       style="font-size:13.3333px; fill:rgb(38,38,38); text-rendering:geometricPrecision; image-rendering:optimizeQuality; color-rendering:optimizeQuality; font-family:'mwa_cmr10'; stroke:rgb(38,38,38); color-interpolation:linearRGB;"
       id="g97">
      <path
         style="stroke:none;"
         d="M-13.7871 3.4812 Q-15.3808 3.4812 -15.9512 2.1687 Q-16.5215 0.8562 -16.5215 -0.9407 Q-16.5215 -2.0813 -16.3183 -3.0735 Q-16.1152 -4.0657 -15.5058 -4.761 Q-14.8965 -5.4563 -13.7871 -5.4563 Q-12.9277 -5.4563 -12.3808 -5.0422 Q-11.834 -4.6282 -11.5527 -3.9641 Q-11.2715 -3.3 -11.1621 -2.5422 Q-11.0527 -1.7844 -11.0527 -0.9407 Q-11.0527 0.1687 -11.2637 1.1453 Q-11.4746 2.1218 -12.0762 2.8015 Q-12.6777 3.4812 -13.7871 3.4812 ZM-13.7871 3.1531 Q-13.0683 3.1531 -12.709 2.4109 Q-12.3496 1.6687 -12.2715 0.7625 Q-12.1933 -0.1438 -12.1933 -1.1594 Q-12.1933 -2.1282 -12.2715 -2.9563 Q-12.3496 -3.7844 -12.7012 -4.4563 Q-13.0527 -5.1282 -13.7871 -5.1282 Q-14.5215 -5.1282 -14.8808 -4.4485 Q-15.2402 -3.7688 -15.3183 -2.9485 Q-15.3965 -2.1282 -15.3965 -1.1594 Q-15.3965 -0.425 -15.3652 0.2156 Q-15.334 0.8562 -15.1777 1.5359 Q-15.0215 2.2156 -14.6855 2.6843 Q-14.3496 3.1531 -13.7871 3.1531 Z"
         id="path91" />
      <path
         style="stroke:none;"
         d="M-9.2767 2.4812 Q-9.2767 2.1843 -9.0579 1.9812 Q-8.8392 1.7781 -8.5579 1.7781 Q-8.386 1.7781 -8.2142 1.8718 Q-8.0423 1.9656 -7.9485 2.1375 Q-7.8548 2.3093 -7.8548 2.4812 Q-7.8548 2.7625 -8.0657 2.9812 Q-8.2767 3.2 -8.5579 3.2 Q-8.8392 3.2 -9.0579 2.9812 Q-9.2767 2.7625 -9.2767 2.4812 Z"
         id="path93" />
      <path
         style="stroke:none;"
         d="M-5.5417 1.7156 Q-5.4011 2.1062 -5.1276 2.4187 Q-4.8542 2.7312 -4.4714 2.9031 Q-4.0886 3.075 -3.6823 3.075 Q-2.7448 3.075 -2.3932 2.3406 Q-2.0417 1.6062 -2.0417 0.575 Q-2.0417 0.1218 -2.0573 -0.1829 Q-2.0729 -0.4875 -2.1354 -0.7844 Q-2.2604 -1.2375 -2.5651 -1.5813 Q-2.8698 -1.925 -3.3073 -1.925 Q-3.7448 -1.925 -4.0573 -1.7922 Q-4.3698 -1.6594 -4.5651 -1.4797 Q-4.7604 -1.3 -4.9167 -1.1047 Q-5.0729 -0.9094 -5.1042 -0.8938 L-5.2448 -0.8938 Q-5.2761 -0.8938 -5.3307 -0.9329 Q-5.3854 -0.9719 -5.3854 -1.0188 L-5.3854 -5.3625 Q-5.3854 -5.3938 -5.3386 -5.425 Q-5.2917 -5.4563 -5.2448 -5.4563 L-5.2136 -5.4563 Q-4.3386 -5.0344 -3.3542 -5.0344 Q-2.3854 -5.0344 -1.4948 -5.4563 L-1.4479 -5.4563 Q-1.4167 -5.4563 -1.3776 -5.425 Q-1.3386 -5.3938 -1.3386 -5.3625 L-1.3386 -5.2375 Q-1.3386 -5.175 -1.3542 -5.175 Q-1.8073 -4.5813 -2.4792 -4.2532 Q-3.1511 -3.925 -3.8542 -3.925 Q-4.3854 -3.925 -4.9323 -4.0657 L-4.9323 -1.6125 Q-4.4948 -1.9563 -4.1589 -2.1047 Q-3.8229 -2.2532 -3.2917 -2.2532 Q-2.5729 -2.2532 -2.0026 -1.8469 Q-1.4323 -1.4407 -1.1276 -0.7766 Q-0.8229 -0.1125 -0.8229 0.5906 Q-0.8229 1.3718 -1.2057 2.0359 Q-1.5886 2.7 -2.2526 3.0906 Q-2.9167 3.4812 -3.6823 3.4812 Q-4.3229 3.4812 -4.862 3.1531 Q-5.4011 2.825 -5.7136 2.2703 Q-6.0261 1.7156 -6.0261 1.075 Q-6.0261 0.7937 -5.8307 0.6062 Q-5.6354 0.4187 -5.3542 0.4187 Q-5.0729 0.4187 -4.8776 0.6062 Q-4.6823 0.7937 -4.6823 1.075 Q-4.6823 1.3562 -4.8776 1.5515 Q-5.0729 1.7468 -5.3542 1.7468 Q-5.4011 1.7468 -5.4557 1.739 Q-5.5104 1.7312 -5.5417 1.7156 Z"
         id="path95" />
    </g>
    <g
       transform="translate(38.6667,23)"
       style="font-size:13.3333px; fill:rgb(38,38,38); text-rendering:geometricPrecision; image-rendering:optimizeQuality; color-rendering:optimizeQuality; font-family:'mwa_cmr10'; stroke:rgb(38,38,38); color-interpolation:linearRGB;"
       id="g101">
      <path
         style="stroke:none;"
         d="M-5.4636 3.2 L-5.4636 2.7468 Q-3.8386 2.7468 -3.8386 2.325 L-3.8386 -4.4875 Q-4.5104 -4.175 -5.5417 -4.175 L-5.5417 -4.6282 Q-3.9479 -4.6282 -3.1354 -5.4563 L-2.9479 -5.4563 Q-2.9011 -5.4563 -2.862 -5.425 Q-2.8229 -5.3938 -2.8229 -5.3469 L-2.8229 2.325 Q-2.8229 2.7468 -1.1979 2.7468 L-1.1979 3.2 L-5.4636 3.2 Z"
         id="path99" />
    </g>
    <g
       transform="translate(17.6296,82.4999) rotate(-90)"
       style="font-size:14.6667px; fill:rgb(38,38,38); text-rendering:geometricPrecision; image-rendering:optimizeQuality; color-rendering:optimizeQuality; font-family:'mwa_cmsy10'; stroke:rgb(38,38,38); color-interpolation:linearRGB;"
       id="g105">
      <path
         style="stroke:none;"
         d="M-5.749 -5.9519 Q-5.749 -6.2176 -5.3194 -6.4676 Q-4.8897 -6.7176 -4.6084 -6.7488 L-4.5147 -6.7488 Q-4.4678 -6.7176 -4.2725 -6.4051 Q-4.0772 -6.0926 -3.7959 -5.8816 Q-3.5147 -5.6707 -2.999 -5.6707 Q-2.8897 -5.7957 -2.8272 -5.9207 Q-1.749 -7.9207 -0.9834 -9.9832 Q-0.5772 -11.1238 -0.249 -12.3269 Q0.0791 -13.5301 0.251 -14.6394 L-0.374 -14.6394 Q-1.874 -14.6394 -2.2647 -13.2488 Q-2.4053 -12.9832 -2.7412 -12.7801 Q-3.0772 -12.5769 -3.3897 -12.5457 L-3.4834 -12.5457 Q-3.5772 -12.6238 -3.5772 -12.7019 Q-3.3584 -13.4988 -2.6865 -14.1472 Q-2.0147 -14.7957 -1.1319 -15.1629 Q-0.249 -15.5301 0.5791 -15.5301 L4.9853 -15.5301 Q6.4385 -15.5301 6.4385 -14.9519 Q6.4385 -14.6238 6.04 -14.3582 Q5.6416 -14.0926 5.2666 -14.0613 L5.1885 -14.0613 Q5.0791 -14.1082 5.0791 -14.1394 Q5.0947 -14.1863 5.1025 -14.241 Q5.1103 -14.2957 5.1103 -14.3113 Q5.1103 -14.6394 3.8603 -14.6394 L1.4853 -14.6394 Q1.0635 -12.5457 0.3916 -10.6707 L4.1728 -10.6707 Q4.2822 -10.6238 4.2822 -10.5457 Q4.1885 -10.1863 3.8369 -9.9363 Q3.4853 -9.6863 3.0947 -9.6394 L3.001 -9.6394 Q2.8916 -9.7019 2.8916 -9.7644 L2.8916 -9.7957 L0.0635 -9.7957 Q-0.6084 -8.1082 -1.499 -6.4363 Q-1.874 -5.7644 -2.5615 -5.2722 Q-3.249 -4.7801 -3.9365 -4.7801 L-4.0147 -4.7801 Q-4.6084 -4.7801 -5.0772 -5.0926 Q-5.5459 -5.4051 -5.749 -5.9519 Z"
         id="path103" />
    </g>
    <g
       transform="translate(128.5001,20.2267)"
       style="font-size:14.6667px; text-rendering:geometricPrecision; image-rendering:optimizeQuality; color-rendering:optimizeQuality; font-family:'CMU Sans Serif'; color-interpolation:linearRGB; font-weight:bold;"
       id="g109">
      <path
         style="stroke:none;"
         d="M-3.5938 -4.6875 L-3.5938 -14.1406 Q-3.5938 -14.4688 -3.4531 -14.6484 Q-3.3125 -14.8281 -2.9062 -14.8281 L-2.25 -14.8281 Q-1.5938 -14.8281 -1.5938 -14.1719 L-1.5938 -10.4375 Q-0.6406 -11.0312 0.5 -11.0312 Q2.6406 -11.0312 3.1875 -9.0156 Q3.3438 -8.375 3.3438 -7.3594 Q3.3438 -6.3438 3.0703 -5.625 Q2.7969 -4.9062 2.3047 -4.5312 Q1.8125 -4.1562 1.2891 -3.9922 Q0.7656 -3.8281 0.1406 -3.8281 Q-0.8125 -3.8281 -1.5625 -4.4062 Q-1.6875 -4.1719 -1.8125 -4.0859 Q-1.9375 -4 -2.2188 -4 L-2.9062 -4 Q-3.5938 -4 -3.5938 -4.6875 ZM-1.5469 -5.5156 L-1.5 -5.4531 Q-1.4375 -5.3906 -1.4141 -5.3672 Q-1.3906 -5.3438 -1.3281 -5.2891 Q-1.2656 -5.2344 -1.2188 -5.2031 Q-1.1719 -5.1719 -1.0938 -5.1172 Q-1.0156 -5.0625 -0.9531 -5.0391 Q-0.8906 -5.0156 -0.7969 -4.9844 Q-0.7031 -4.9531 -0.6016 -4.9453 Q-0.5 -4.9375 -0.375 -4.9375 Q0.1094 -4.9375 0.4453 -5.1094 Q0.7812 -5.2812 0.9375 -5.4844 Q1.0938 -5.6875 1.1875 -6.0859 Q1.2812 -6.4844 1.2891 -6.7188 Q1.2969 -6.9531 1.2969 -7.3906 Q1.2969 -7.4688 1.2969 -7.5156 Q1.2969 -7.9531 1.2812 -8.2188 Q1.2656 -8.4844 1.1875 -8.8594 Q1.1094 -9.2344 0.9609 -9.4375 Q0.8125 -9.6406 0.5078 -9.7969 Q0.2031 -9.9531 -0.2031 -9.9531 Q-0.9219 -9.9531 -1.5469 -9.4375 L-1.5469 -5.5156 Z"
         id="path107" />
    </g>
    <g
       style="stroke-linecap:butt; text-rendering:geometricPrecision; color-rendering:optimizeQuality; image-rendering:optimizeQuality; stroke-linejoin:round; color-interpolation:linearRGB; stroke-width:0.6667;"
       id="g113">
      <path
         d="M44.169 87.1319 L44.338 94.6412 L44.507 93.7973 L44.676 63.3623 L44.845 63.2029 L45.014 43.4823 L45.183 39.0818 L45.352 39.0165 L45.521 37.155 L45.69 35.9606 L45.859 36.0173 L46.028 35.9316 L46.197 35.7079 L46.366 35.6799 L46.535 35.6699 L46.704 35.6605 L46.873 35.6471 L47.042 35.7453 L47.211 35.6854 L47.38 35.6775 L47.549 35.6704 L47.718 35.6593 L47.887 35.6475 L48.056 35.7487 L48.225 35.6836 L48.394 35.6796 L48.563 35.6769 L48.732 35.6832 L48.901 35.662 L49.07 35.5818 L49.239 35.7127 L49.408 35.6797 L49.577 35.6656 L49.746 35.6515 L49.915 35.6316 L50.084 35.7894 L50.253 35.6723 L50.422 35.663 L50.591 35.649 L50.76 35.6194 L50.929 35.6776 L51.098 35.6709 L51.267 35.661 L51.436 35.646 L51.605 35.6505 L51.774 35.6776 L51.943 35.6708 L52.112 35.6608 L52.281 35.6458 L52.45 35.6658 L52.619 35.6847 L52.788 35.6788 L52.957 35.6717 L53.126 35.662 L53.295 35.6478 L53.464 35.6719 L53.633 35.7084 L53.802 35.6899 L53.971 35.6746 L54.14 35.6624 L54.309 35.6463 L54.478 35.6728 L54.647 35.6903 L54.816 35.6825 L54.985 35.6729 L55.154 35.6633 L55.323 35.6494 L55.492 35.6676 L55.661 35.7178 L55.83 35.7099 L55.999 35.6904 L56.168 35.6805 L56.337 35.6702 L56.506 35.6584 L56.675 35.6415 L56.844 35.7144 L57.013 35.6827 L57.182 35.6739 L57.351 35.6641 L57.52 35.6505 L57.689 35.6646 L57.858 35.7115 L58.027 35.7245 L58.196 35.7074 L58.365 35.6954 L58.534 35.6849 L58.703 35.6779 L58.872 35.6699 L59.041 35.659 L59.21 35.6429 L59.379 35.6964 L59.548 35.6817 L59.717 35.6738 L59.886 35.6645 L60.055 35.6513 L60.224 35.6558 L60.393 35.716 L60.562 35.7293 L60.731 35.7096 L60.9 35.6961 L61.069 35.6865 L61.238 35.6804 L61.407 35.6739 L61.576 35.665 L61.745 35.6519 L61.914 35.6082 L62.083 35.6905 L62.252 35.6864 L62.421 35.6819 L62.59 35.6774 L62.759 35.6664 L62.928 35.6546 L63.097 35.6849 L63.266 35.6945 L63.435 35.7024 L63.604 35.7032 L63.773 35.7016 L63.942 35.6803 L64.111 35.6665 L64.28 35.6496 L64.449 35.6444 L64.618 35.6876 L64.787 35.6791 L64.956 35.6709 L65.125 35.6601 L65.294 35.6445 L65.463 35.6998 L65.632 35.6962 L65.801 35.6845 L65.97 35.6734 L66.139 35.6624 L66.308 35.6457 L66.477 35.6891 L66.646 35.6918 L66.815 35.6779 L66.984 35.6669 L67.153 35.6542 L67.322 35.6359 L67.491 35.7712 L67.66 35.6841 L67.829 35.6722 L67.998 35.6604 L68.167 35.6449 L68.336 35.7042 L68.505 35.695 L68.674 35.6962 L68.843 35.6905 L69.012 35.686 L69.181 35.6667 L69.35 35.6492 L69.519 35.6846 L69.688 35.6829 L69.857 35.6773 L70.026 35.6707 L70.195 35.6615 L70.364 35.6505 L70.533 35.7526 L70.702 35.7199 L70.871 35.7086 L71.04 35.6615 L71.209 35.6373 L71.378 35.7466 L71.547 35.6739 L71.716 35.6651 L71.885 35.6521 L72.054 35.5894 L72.223 35.6787 L72.392 35.6726 L72.561 35.6634 L72.73 35.6497 L72.899 35.6177 L73.068 35.6809 L73.237 35.675 L73.406 35.667 L73.575 35.6552 L73.744 35.6369 L73.913 35.7717 L74.082 35.6856 L74.251 35.6794 L74.42 35.6705 L74.589 35.66 L74.758 35.652 L74.927 35.7456 L75.096 35.7467 L75.265 35.7194 L75.434 35.6919 L75.603 35.683 L75.772 35.6767 L75.941 35.6691 L76.11 35.6581 L76.279 35.6418 L76.448 35.701 L76.617 35.6794 L76.786 35.6723 L76.955 35.6627 L77.124 35.6488 L77.293 35.6702 L77.462 35.7063 L77.631 35.709 L77.8 35.6959 L77.969 35.688 L78.138 35.6778 L78.307 35.6683 L78.476 35.6551 L78.645 35.6371 L78.814 35.7719 L78.983 35.683 L79.152 35.6754 L79.321 35.6654 L79.49 35.6526 L79.659 35.6739 L79.828 35.7304 L79.997 35.7343 L80.166 35.7088 L80.335 35.6965 L80.504 35.691 L80.673 35.6885 L80.842 35.6865 L81.011 35.6841 L81.18 35.6807 L81.349 35.6757 L81.518 35.6682 L81.687 35.657 L81.856 35.6403 L82.025 35.7266 L82.194 35.6834 L82.363 35.6758 L82.532 35.6666 L82.701 35.6541 L82.87 35.657 L83.039 35.7311 L83.208 35.7388 L83.377 35.713 L83.546 35.6981 L83.715 35.6922 L83.884 35.6898 L84.053 35.6884 L84.222 35.6871 L84.391 35.6853 L84.56 35.6826 L84.729 35.6785 L84.898 35.6724 L85.067 35.6631 L85.236 35.6493 L85.405 35.6228 L85.574 35.681 L85.743 35.6751 L85.912 35.667 L86.081 35.6552 L86.25 35.6377 L86.419 35.7574 L86.588 35.6851 L86.757 35.6756 L86.926 35.6657 L87.095 35.653 L87.264 35.6649 L87.433 35.7157 L87.602 35.7338 L87.771 35.7146 L87.94 35.6964 L88.109 35.6845 L88.278 35.6764 L88.447 35.6675 L88.616 35.6552 L88.785 35.637 L88.954 35.7371 L89.123 35.6742 L89.292 35.6659 L89.461 35.6534 L89.63 35.6345 L89.799 35.7637 L89.968 35.6743 L90.137 35.6658 L90.306 35.6533 L90.475 35.6346 L90.644 35.7701 L90.813 35.6759 L90.982 35.6674 L91.151 35.6555 L91.32 35.6379 L91.489 35.749 L91.658 35.6811 L91.827 35.6727 L91.996 35.6631 L92.165 35.6495 L92.334 35.6853 L92.503 35.7084 L92.672 35.244 L92.841 35.7394 L93.01 35.7199 L93.179 35.6997 L93.348 35.6913 L93.517 35.6874 L93.686 35.6844 L93.855 35.6809 L94.024 35.6758 L94.193 35.6682 L94.362 35.6568 L94.531 35.6396 L94.7 35.7102 L94.869 35.6747 L95.038 35.6666 L95.207 35.6545 L95.376 35.5672 L95.545 35.6801 L95.714 35.6746 L95.883 35.6665 L96.052 35.6544 L96.221 35.5931 L96.39 35.7152 L96.559 35.7331 L96.728 35.7188 L96.897 35.7004 L97.066 35.6894 L97.235 35.6832 L97.404 35.6775 L97.573 35.6702 L97.742 35.6596 L97.911 35.644 L98.08 35.6687 L98.249 35.6759 L98.418 35.6685 L98.587 35.6573 L98.756 35.6405 L98.925 35.7022 L99.094 35.6749 L99.263 35.667 L99.432 35.6551 L99.601 35.6371 L99.77 35.7353 L99.939 35.6741 L100.108 35.6656 L100.277 35.6529 L100.446 35.5837 L100.615 35.6809 L100.784 35.6754 L100.953 35.6676 L101.122 35.6561 L101.291 35.6389 L101.46 35.7391 L101.629 35.6826 L101.798 35.674 L101.967 35.6646 L102.136 35.6518 L102.305 35.6751 L102.474 35.717 L102.643 35.7377 L102.812 35.7157 L102.981 35.6955 L103.15 35.6836 L103.319 35.6754 L103.488 35.6662 L103.657 35.6532 L103.826 35.5802 L103.995 35.6796 L104.164 35.6738 L104.333 35.6652 L104.502 35.6525 L104.671 35.6333 L104.84 35.7791 L105.009 35.6749 L105.178 35.666 L105.347 35.6534 L105.516 35.6345 L105.685 35.7776 L105.854 35.6779 L106.023 35.6699 L106.192 35.659 L106.361 35.6433 L106.53 35.7208 L106.699 35.6937 L106.868 35.6928 L107.037 35.6863 L107.206 35.6812 L107.375 35.6619 L107.544 35.5756 L107.713 35.7104 L107.882 35.6963 L108.051 35.6882 L108.22 35.683 L108.389 35.6726 L108.558 35.6607 L108.727 35.6424 L108.896 35.7149 L109.065 35.6839 L109.234 35.6708 L109.403 35.6592 L109.572 35.6432 L109.741 35.7014 L109.91 35.687 L110.079 35.6798 L110.248 35.6727 L110.417 35.6649 L110.586 35.6502 L110.755 35.6536 L110.924 35.7039 L111.093 35.6754 L111.262 35.6616 L111.431 35.646 L111.6 35.6668 L111.769 35.6848 L111.938 35.6782 L112.107 35.6712 L112.276 35.6617 L112.445 35.648 L112.614 35.6656 L112.783 35.706 L112.952 35.6796 L113.121 35.6671 L113.29 35.6539 L113.459 35.623 L113.628 35.7212 L113.797 35.7435 L113.966 35.724 L114.135 35.6982 L114.304 35.6867 L114.473 35.6797 L114.642 35.6728 L114.811 35.6633 L114.98 35.6494 L115.149 35.6194 L115.318 35.6794 L115.487 35.6733 L115.656 35.6645 L115.825 35.6514 L115.994 35.6318 L116.163 35.802 L116.332 35.6766 L116.501 35.6673 L116.67 35.6549 L116.839 35.6106 L117.008 35.7342 L117.177 35.7408 L117.346 35.7166 L117.515 35.6972 L117.684 35.689 L117.853 35.6845 L118.022 35.6801 L118.191 35.6745 L118.36 35.6662 L118.529 35.6539 L118.698 35.5826 L118.867 35.6904 L119.036 35.6877 L119.205 35.6845 L119.374 35.6818 L119.543 35.6722 L119.712 35.6625 L119.881 35.6414 L120.05 35.7291 L120.219 35.7574 L120.388 35.7316 L120.557 35.6946 L120.726 35.6834 L120.895 35.6767 L121.064 35.6689 L121.233 35.6577 L121.402 35.6412 L121.571 35.7018 L121.74 35.6772 L121.909 35.6698 L122.078 35.6593 L122.247 35.6436 L122.416 35.6955 L122.585 35.6862 L122.754 35.6798 L122.923 35.6718 L123.092 35.6616 L123.261 35.6465 L123.43 35.6892 L123.599 35.7062 L123.768 35.6895 L123.937 35.6746 L124.106 35.6625 L124.275 35.6466 L124.444 35.6748 L124.613 35.6925 L124.782 35.6847 L124.951 35.6754 L125.12 35.6657 L125.289 35.6511 L125.458 35.6511 L125.627 35.7111 L125.796 35.7004 L125.965 35.6856 L126.134 35.6763 L126.303 35.6647 L126.472 35.6503 L126.641 35.6552 L126.81 35.7002 L126.979 35.7057 L127.148 35.6991 L127.317 35.6935 L127.486 35.6797 L127.655 35.6687 L127.824 35.6542 L127.993 35.6111 L128.162 35.7098 L128.331 35.7084 L128.5 35.6964 L128.669 35.6888 L128.838 35.6788 L129.007 35.6694 L129.176 35.6568 L129.345 35.5893 L129.514 35.7342 L129.683 35.7398 L129.852 35.7138 L130.021 35.6937 L130.19 35.6899 L130.359 35.6871 L130.528 35.6843 L130.697 35.6806 L130.866 35.6752 L131.035 35.6674 L131.204 35.6556 L131.373 35.638 L131.542 35.7318 L131.711 35.676 L131.88 35.6677 L132.049 35.6561 L132.218 35.6387 L132.387 35.7335 L132.556 35.6793 L132.725 35.671 L132.894 35.6606 L133.063 35.6457 L133.232 35.6946 L133.401 35.6977 L133.57 35.6999 L133.739 35.6939 L133.908 35.6878 L134.077 35.6682 L134.246 35.65 L134.415 35.6606 L134.584 35.6813 L134.753 35.6753 L134.922 35.6673 L135.091 35.6557 L135.26 35.6404 L135.429 35.747 L135.598 35.748 L135.767 35.7209 L135.936 35.6913 L136.105 35.6808 L136.274 35.673 L136.443 35.6633 L136.612 35.6495 L136.781 35.6307 L136.95 35.6875 L137.119 35.6821 L137.288 35.6749 L137.457 35.6667 L137.626 35.6546 L137.795 35.6408 L137.964 35.7481 L138.133 35.7312 L138.302 35.7032 L138.471 35.6934 L138.64 35.6895 L138.809 35.6873 L138.978 35.6852 L139.147 35.6822 L139.316 35.6778 L139.485 35.6714 L139.654 35.6618 L139.823 35.6473 L139.992 35.6542 L140.161 35.6868 L140.33 35.6813 L140.499 35.6746 L140.668 35.6662 L140.837 35.653 L141.006 35.6383 L141.175 35.7231 L141.344 35.7063 L141.513 35.688 L141.682 35.6785 L141.851 35.6684 L142.02 35.656 L142.189 35.638 L142.358 35.7441 L142.527 35.6802 L142.696 35.6709 L142.865 35.6599 L143.034 35.6445 L143.203 35.7025 L143.372 35.6931 L143.541 35.6903 L143.71 35.6833 L143.879 35.6763 L144.048 35.6586 L144.217 35.6417 L144.386 35.7504 L144.555 35.6837 L144.724 35.6781 L144.893 35.6711 L145.062 35.6634 L145.231 35.6555 L145.4 35.7466 L145.569 35.741 L145.738 35.7227 L145.907 35.676 L146.076 35.6579 L146.245 35.5479 L146.414 35.6823 L146.583 35.6777 L146.752 35.6712 L146.921 35.6616 L147.09 35.6472 L147.259 35.6785 L147.428 35.701 L147.597 35.6962 L147.766 35.6833 L147.935 35.6777 L148.104 35.6696 L148.273 35.6589 L148.442 35.6549 L148.611 35.749 L148.78 35.744 L148.949 35.7155 L149.118 35.6939 L149.287 35.6869 L149.456 35.6826 L149.625 35.678 L149.794 35.6714 L149.963 35.6618 L150.132 35.6473 L150.301 35.6539 L150.47 35.6865 L150.639 35.6809 L150.808 35.6739 L150.977 35.6648 L151.146 35.6513 L151.315 35.6568 L151.484 35.7235 L151.653 35.7101 L151.822 35.6897 L151.991 35.6804 L152.16 35.6716 L152.329 35.661 L152.498 35.6458 L152.667 35.6803 L152.836 35.6922 L153.005 35.6865 L153.174 35.6777 L153.343 35.6688 L153.512 35.6545 L153.681 35.6363 L153.85 35.8075 L154.019 35.6836 L154.188 35.6775 L154.357 35.6692 L154.526 35.6594 L154.695 35.672 L154.864 35.7432 L155.033 35.7452 L155.202 35.717 L155.371 35.6965 L155.54 35.69 L155.709 35.6871 L155.878 35.6845 L156.047 35.6812 L156.216 35.6764 L156.385 35.6693 L156.554 35.6586 L156.723 35.6426 L156.892 35.6986 L157.061 35.6821 L157.23 35.6751 L157.399 35.6662 L157.568 35.6537 L157.737 35.6504 L157.906 35.7323 L158.075 35.7372 L158.244 35.7115 L158.413 35.6979 L158.582 35.6925 L158.751 35.6906 L158.92 35.6897 L159.089 35.6888 L159.258 35.6877 L159.427 35.6862 L159.596 35.684 L159.765 35.6806 L159.934 35.6756 L160.103 35.668 L160.272 35.6567 L160.441 35.6398 L160.61 35.7249 L160.779 35.6803 L160.948 35.6726 L161.117 35.6629 L161.286 35.6488 L161.455 35.6787 L161.624 35.7077 L161.793 35.7135 L161.962 35.6995 L162.131 35.6906 L162.3 35.6792 L162.469 35.6695 L162.638 35.6569 L162.807 35.5901 L162.976 35.7382 L163.145 35.7426 L163.314 35.7171 L163.483 35.6977 L163.652 35.6907 L163.821 35.6875 L163.99 35.6849 L164.159 35.6817 L164.328 35.6771 L164.497 35.6702 L164.666 35.6599 L164.835 35.6445 L165.004 35.6755 L165.173 35.6818 L165.342 35.6751 L165.511 35.6664 L165.68 35.6542 L165.849 35.6409 L166.018 35.7367 L166.187 35.7411 L166.356 35.7143 L166.525 35.697 L166.694 35.6903 L166.863 35.6872 L167.032 35.6846 L167.201 35.6811 L167.37 35.6762 L167.539 35.6689 L167.708 35.6579 L167.877 35.6414 L168.046 35.6966 L168.215 35.6762 L168.384 35.6686 L168.553 35.6575 L168.722 35.6409 L168.891 35.7097 L169.06 35.679 L169.229 35.6716 L169.398 35.6616 L169.567 35.647 L169.736 35.6806 L169.905 35.6993 L170.074 35.701 L170.243 35.6931 L170.412 35.6866 L170.581 35.6709 L170.75 35.6559 L170.919 35.6343 L171.088 35.7806 L171.257 35.6774 L171.426 35.6665 L171.595 35.6535 L171.764 35.6349 L171.933 35.7723 L172.102 35.6776 L172.271 35.669 L172.44 35.6576 L172.609 35.6411 L172.778 35.7309 L172.947 35.6881 L173.116 35.6822 L173.285 35.675 L173.454 35.6681 L173.623 35.6511 L173.792 35.6561 L173.961 35.6994 L174.13 35.6753 L174.299 35.6628 L174.468 35.6479 L174.637 35.6549 L174.806 35.6908 L174.975 35.687 L175.144 35.6826 L175.313 35.6776 L175.482 35.661 L175.651 35.6463 L175.82 35.728 L175.989 35.6894 L176.158 35.6903 L176.327 35.6882 L176.496 35.6885 L176.665 35.6657 L176.834 35.6468 L177.003 35.7271 L177.172 35.6797 L177.341 35.6724 L177.51 35.6629 L177.679 35.6491 L177.848 35.6802 L178.017 35.7167 L178.186 35.7216 L178.355 35.7021 L178.524 35.6905 L178.693 35.68 L178.862 35.6711 L179.031 35.6597 L179.2 35.6436 L179.369 35.6865 L179.538 35.6799 L179.707 35.6734 L179.876 35.6645 L180.045 35.6513 L180.214 35.657 L180.383 35.7191 L180.552 35.7309 L180.721 35.7107 L180.89 35.6954 L181.059 35.685 L181.228 35.6776 L181.397 35.6694 L181.566 35.6585 L181.735 35.6422 L181.904 35.6883 L182.073 35.6761 L182.242 35.6684 L182.411 35.6572 L182.58 35.6403 L182.749 35.7099 L182.918 35.677 L183.087 35.6693 L183.256 35.6585 L183.425 35.6425 L183.594 35.7042 L183.763 35.6842 L183.932 35.677 L184.101 35.6692 L184.27 35.6589 L184.439 35.6477 L184.608 35.7376 L184.777 35.7217 L184.946 35.7504 L185.115 35.6912 L185.284 35.6724 L185.453 35.6585 L185.622 35.6413 L185.791 35.7034 L185.96 35.6773 L186.129 35.6701 L186.298 35.6597 L186.467 35.6442 L186.636 35.6935 L186.805 35.6887 L186.974 35.6829 L187.143 35.6751 L187.312 35.6662 L187.481 35.652 L187.65 35.6485 L187.819 35.7187 L187.988 35.7031 L188.157 35.6851 L188.326 35.6753 L188.495 35.6646 L188.664 35.6508 L188.833 35.6443 L189.002 35.7033 L189.171 35.7085 L189.34 35.6995 L189.509 35.693 L189.678 35.6819 L189.847 35.673 L190.016 35.6615 L190.185 35.6461 L190.354 35.6931 L190.523 35.6929 L190.692 35.691 L190.861 35.6847 L191.03 35.6796 L191.199 35.6659 L191.368 35.652 L191.537 35.695 L191.706 35.6962 L191.875 35.7015 L192.044 35.6992 L192.213 35.698 L192.382 35.6812 L192.551 35.6693 L192.72 35.6533 L192.889 35.6227 L193.058 35.7116 L193.227 35.7098 L193.396 35.6954 L193.565 35.6873 L193.734 35.6783 L193.903 35.6696 L194.072 35.6576 L194.241 35.6408 L194.41 35.7322 L194.579 35.6852 L194.748 35.6788 L194.917 35.6706 L195.086 35.6603 L195.255 35.6474 L195.424 35.7512 L195.593 35.7412 L195.762 35.7168 L195.931 35.6826 L196.1 35.6694 L196.269 35.6567 L196.438 35.6393 L196.607 35.7194 L196.776 35.676 L196.945 35.6683 L197.114 35.6569 L197.283 35.6401 L197.452 35.7222 L197.621 35.6804 L197.79 35.6729 L197.959 35.6632 L198.128 35.6493 L198.297 35.6748 L198.466 35.7105 L198.635 35.7151 L198.804 35.6994 L198.973 35.6908 L199.142 35.6814 L199.311 35.6736 L199.48 35.6636 L199.649 35.6496 L199.818 35.6631 L199.987 35.7044 L200.156 35.7087 L200.325 35.6978 L200.494 35.6909 L200.663 35.6801 L200.832 35.671 L201.001 35.6591 L201.17 35.6426 L201.339 35.7262 L201.508 35.6888 L201.677 35.6841 L201.846 35.6767 L202.015 35.669 L202.184 35.6548 L202.353 35.6397 L202.522 35.8208 L202.691 35.6791 L202.86 35.672 L203.029 35.6625 L203.198 35.6489 L203.367 35.7083 L203.536 35.7295 L203.705 35.7248 L203.874 35.6995 L204.043 35.6895 L204.212 35.683 L204.381 35.6774 L204.55 35.6701 L204.719 35.6596 L204.888 35.6442 L205.057 35.6943 L205.226 35.6893 L205.395 35.6832 L205.564 35.6747 L205.733 35.6652 L205.902 35.6505 L206.071 35.6605 L206.24 35.7155 L206.409 35.7025 L206.578 35.6849 L206.747 35.675 L206.916 35.6642 L207.085 35.6501 L207.254 35.6544 L207.423 35.7025 L207.592 35.7067 L207.761 35.6975 L207.93 35.6913 L208.099 35.6803 L208.268 35.671 L208.437 35.6583 L208.606 35.6417 L208.775 35.7332 L208.944 35.6887 L209.113 35.6835 L209.282 35.6756 L209.451 35.6672 L209.62 35.6524 L209.789 35.6446 L209.958 35.7173 L210.127 35.6982 L210.296 35.6808 L210.465 35.6703 L210.634 35.6581 L210.803 35.6414 L210.972 35.7214 L211.141 35.6844 L211.31 35.6778 L211.479 35.6694 L211.648 35.6583 L211.817 35.6468 L211.986 35.7526 L212.155 35.7428 L212.324 35.7143 L212.493 35.6916 L212.662 35.6837 L212.831 35.678 L213 35.6712"
         style="fill:none; fill-rule:evenodd;"
         id="path111" />
    </g>
  </g>
</svg>
