<?xml version="1.0" encoding="UTF-8" standalone="no"?>
<svg
   style="fill-opacity:1; color-rendering:auto; color-interpolation:auto; text-rendering:auto; stroke:black; stroke-linecap:square; stroke-miterlimit:10; shape-rendering:auto; stroke-opacity:1; fill:black; stroke-dasharray:none; font-weight:normal; stroke-width:1; font-family:'Dialog'; font-style:normal; stroke-linejoin:miter; font-size:12px; stroke-dashoffset:0; image-rendering:auto;"
   width="643"
   height="420"
   version="1.1"
   id="svg485"
   sodipodi:docname="choosing-T.svg"
   inkscape:export-filename="choosing-T.pdf"
   inkscape:export-xdpi="600"
   inkscape:export-ydpi="600"
   inkscape:version="1.2.2 (732a01da63, 2022-12-09)"
   xmlns:inkscape="http://www.inkscape.org/namespaces/inkscape"
   xmlns:sodipodi="http://sodipodi.sourceforge.net/DTD/sodipodi-0.dtd"
   xmlns="http://www.w3.org/2000/svg"
   xmlns:svg="http://www.w3.org/2000/svg">
  <sodipodi:namedview
     id="namedview487"
     pagecolor="#ffffff"
     bordercolor="#000000"
     borderopacity="0.25"
     inkscape:showpageshadow="2"
     inkscape:pageopacity="0.0"
     inkscape:pagecheckerboard="0"
     inkscape:deskcolor="#d1d1d1"
     showgrid="false"
     inkscape:zoom="1.881804"
     inkscape:cx="321.5"
     inkscape:cy="209.90496"
     inkscape:window-width="1920"
     inkscape:window-height="1009"
     inkscape:window-x="-8"
     inkscape:window-y="-8"
     inkscape:window-maximized="1"
     inkscape:current-layer="svg485" />
  <!--Generated by the Batik Graphics2D SVG Generator-->
  <defs
     id="genericDefs" />
  <g
     id="g483">
    <defs
       id="defs1">
      <clipPath
         clipPathUnits="userSpaceOnUse"
         id="clipPath1">
        <path
           d="M0 0 L643 0 L643 420 L0 420 L0 0 Z"
           id="path3" />
      </clipPath>
    </defs>
    <g
       style="fill:white; stroke:white;"
       id="g9">
      <rect
         x="0"
         y="0"
         width="643"
         style="clip-path:url(#clipPath1); stroke:none;"
         height="420"
         clip-path="url(#clipPath1)"
         id="rect7" />
    </g>
    <g
       style="fill:white; text-rendering:optimizeSpeed; color-rendering:optimizeSpeed; image-rendering:optimizeSpeed; shape-rendering:crispEdges; stroke:white; color-interpolation:sRGB;"
       id="g15">
      <rect
         x="0"
         width="643"
         height="420"
         y="0"
         style="stroke:none;"
         id="rect11" />
      <path
         style="stroke:none;"
         d="M99 336 L582 336 L582 31 L99 31 Z"
         id="path13" />
    </g>
    <g
       style="fill:rgb(38,38,38); text-rendering:geometricPrecision; image-rendering:optimizeQuality; color-rendering:optimizeQuality; stroke-linejoin:round; stroke:rgb(38,38,38); color-interpolation:linearRGB; stroke-width:0.6667;"
       id="g45">
      <line
         y2="336"
         style="fill:none;"
         x1="99"
         x2="582"
         y1="336"
         id="line17" />
      <line
         y2="31"
         style="fill:none;"
         x1="99"
         x2="582"
         y1="31"
         id="line19" />
      <line
         y2="331.1738"
         style="fill:none;"
         x1="99"
         x2="99"
         y1="336"
         id="line21" />
      <line
         y2="331.1738"
         style="fill:none;"
         x1="195.6"
         x2="195.6"
         y1="336"
         id="line23" />
      <line
         y2="331.1738"
         style="fill:none;"
         x1="292.2"
         x2="292.2"
         y1="336"
         id="line25" />
      <line
         y2="331.1738"
         style="fill:none;"
         x1="388.8"
         x2="388.8"
         y1="336"
         id="line27" />
      <line
         y2="331.1738"
         style="fill:none;"
         x1="485.4"
         x2="485.4"
         y1="336"
         id="line29" />
      <line
         y2="331.1738"
         style="fill:none;"
         x1="582"
         x2="582"
         y1="336"
         id="line31" />
      <line
         y2="35.8262"
         style="fill:none;"
         x1="99"
         x2="99"
         y1="31"
         id="line33" />
      <line
         y2="35.8262"
         style="fill:none;"
         x1="195.6"
         x2="195.6"
         y1="31"
         id="line35" />
      <line
         y2="35.8262"
         style="fill:none;"
         x1="292.2"
         x2="292.2"
         y1="31"
         id="line37" />
      <line
         y2="35.8262"
         style="fill:none;"
         x1="388.8"
         x2="388.8"
         y1="31"
         id="line39" />
      <line
         y2="35.8262"
         style="fill:none;"
         x1="485.4"
         x2="485.4"
         y1="31"
         id="line41" />
      <line
         y2="35.8262"
         style="fill:none;"
         x1="582"
         x2="582"
         y1="31"
         id="line43" />
    </g>
    <g
       transform="translate(99,344.5333)"
       style="font-size:29.3333px; fill:rgb(38,38,38); text-rendering:geometricPrecision; image-rendering:optimizeQuality; color-rendering:optimizeQuality; font-family:'mwa_cmr10'; stroke:rgb(38,38,38); color-interpolation:linearRGB;"
       id="g49">
      <path
         style="stroke:none;"
         d="M-0.0833 25.2805 Q-3.6302 25.2805 -4.9115 22.3508 Q-6.1927 19.4211 -6.1927 15.3899 Q-6.1927 12.8743 -5.7396 10.6477 Q-5.2865 8.4211 -3.9193 6.8743 Q-2.5521 5.3274 -0.0833 5.3274 Q1.8229 5.3274 3.0417 6.2571 Q4.2604 7.1868 4.901 8.6711 Q5.5417 10.1555 5.776 11.843 Q6.0104 13.5305 6.0104 15.3899 Q6.0104 17.8899 5.5495 20.0618 Q5.0885 22.2336 3.7448 23.7571 Q2.401 25.2805 -0.0833 25.2805 ZM-0.0833 24.5305 Q1.526 24.5305 2.3229 22.8743 Q3.1198 21.218 3.2995 19.2024 Q3.4792 17.1868 3.4792 14.9211 Q3.4792 12.7493 3.2995 10.9055 Q3.1198 9.0618 2.3307 7.5696 Q1.5417 6.0774 -0.0833 6.0774 Q-1.724 6.0774 -2.5208 7.5774 Q-3.3177 9.0774 -3.4974 10.9133 Q-3.6771 12.7493 -3.6771 14.9211 Q-3.6771 16.5461 -3.599 17.9758 Q-3.5208 19.4055 -3.1849 20.929 Q-2.849 22.4524 -2.0911 23.4915 Q-1.3333 24.5305 -0.0833 24.5305 Z"
         id="path47" />
    </g>
    <g
       transform="translate(195.6,344.5333)"
       style="font-size:29.3333px; fill:rgb(38,38,38); text-rendering:geometricPrecision; image-rendering:optimizeQuality; color-rendering:optimizeQuality; font-family:'mwa_cmr10'; stroke:rgb(38,38,38); color-interpolation:linearRGB;"
       id="g57">
      <path
         style="stroke:none;"
         d="M-11.4908 25.2805 Q-15.0377 25.2805 -16.3189 22.3508 Q-17.6002 19.4211 -17.6002 15.3899 Q-17.6002 12.8743 -17.147 10.6477 Q-16.6939 8.4211 -15.3267 6.8743 Q-13.9595 5.3274 -11.4908 5.3274 Q-9.5845 5.3274 -8.3658 6.2571 Q-7.147 7.1868 -6.5064 8.6711 Q-5.8658 10.1555 -5.6314 11.843 Q-5.397 13.5305 -5.397 15.3899 Q-5.397 17.8899 -5.858 20.0618 Q-6.3189 22.2336 -7.6627 23.7571 Q-9.0064 25.2805 -11.4908 25.2805 ZM-11.4908 24.5305 Q-9.8814 24.5305 -9.0845 22.8743 Q-8.2877 21.218 -8.108 19.2024 Q-7.9283 17.1868 -7.9283 14.9211 Q-7.9283 12.7493 -8.108 10.9055 Q-8.2877 9.0618 -9.0767 7.5696 Q-9.8658 6.0774 -11.4908 6.0774 Q-13.1314 6.0774 -13.9283 7.5774 Q-14.7252 9.0774 -14.9048 10.9133 Q-15.0845 12.7493 -15.0845 14.9211 Q-15.0845 16.5461 -15.0064 17.9758 Q-14.9283 19.4055 -14.5923 20.929 Q-14.2564 22.4524 -13.4986 23.4915 Q-12.7408 24.5305 -11.4908 24.5305 Z"
         id="path51" />
      <path
         style="stroke:none;"
         d="M-1.6366 23.0461 Q-1.6366 22.3899 -1.1522 21.9211 Q-0.6678 21.4524 -0.0428 21.4524 Q0.3634 21.4524 0.7462 21.6633 Q1.1291 21.8743 1.34 22.2571 Q1.5509 22.6399 1.5509 23.0461 Q1.5509 23.6711 1.0822 24.1555 Q0.6134 24.6399 -0.0428 24.6399 Q-0.6678 24.6399 -1.1522 24.1555 Q-1.6366 23.6711 -1.6366 23.0461 Z"
         id="path53" />
      <path
         style="stroke:none;"
         d="M5.5116 24.6399 L5.5116 23.8586 Q5.5116 23.7961 5.5741 23.7024 L10.0741 18.718 Q11.1054 17.6086 11.7382 16.8586 Q12.371 16.1086 12.996 15.1321 Q13.621 14.1555 13.9804 13.1477 Q14.3397 12.1399 14.3397 10.9993 Q14.3397 9.8118 13.9022 8.7258 Q13.4647 7.6399 12.5897 6.9915 Q11.7147 6.343 10.496 6.343 Q9.2304 6.343 8.2225 7.1008 Q7.2147 7.8586 6.8085 9.0618 Q6.9179 9.0305 7.121 9.0305 Q7.7772 9.0305 8.2304 9.468 Q8.6835 9.9055 8.6835 10.6086 Q8.6835 11.2649 8.2304 11.7258 Q7.7772 12.1868 7.121 12.1868 Q6.4335 12.1868 5.9725 11.718 Q5.5116 11.2493 5.5116 10.6086 Q5.5116 9.5149 5.9257 8.5618 Q6.3397 7.6086 7.1132 6.8665 Q7.8866 6.1243 8.8554 5.7258 Q9.8241 5.3274 10.9179 5.3274 Q12.5741 5.3274 14.0038 6.0305 Q15.4335 6.7336 16.2694 8.0149 Q17.1054 9.2961 17.1054 10.9993 Q17.1054 12.2649 16.5507 13.3977 Q15.996 14.5305 15.1366 15.4602 Q14.2772 16.3899 12.9257 17.5618 Q11.5741 18.7336 11.1522 19.1243 L7.871 22.2961 L10.6522 22.2961 Q12.7147 22.2961 14.0975 22.2571 Q15.4804 22.218 15.5585 22.1399 Q15.9022 21.7805 16.246 19.468 L17.1054 19.468 L16.2772 24.6399 L5.5116 24.6399 Z"
         id="path55" />
    </g>
    <g
       transform="translate(292.2,344.5333)"
       style="font-size:29.3333px; fill:rgb(38,38,38); text-rendering:geometricPrecision; image-rendering:optimizeQuality; color-rendering:optimizeQuality; font-family:'mwa_cmr10'; stroke:rgb(38,38,38); color-interpolation:linearRGB;"
       id="g65">
      <path
         style="stroke:none;"
         d="M-11.4908 25.2805 Q-15.0377 25.2805 -16.3189 22.3508 Q-17.6002 19.4211 -17.6002 15.3899 Q-17.6002 12.8743 -17.147 10.6477 Q-16.6939 8.4211 -15.3267 6.8743 Q-13.9595 5.3274 -11.4908 5.3274 Q-9.5845 5.3274 -8.3658 6.2571 Q-7.147 7.1868 -6.5064 8.6711 Q-5.8658 10.1555 -5.6314 11.843 Q-5.397 13.5305 -5.397 15.3899 Q-5.397 17.8899 -5.858 20.0618 Q-6.3189 22.2336 -7.6627 23.7571 Q-9.0064 25.2805 -11.4908 25.2805 ZM-11.4908 24.5305 Q-9.8814 24.5305 -9.0845 22.8743 Q-8.2877 21.218 -8.108 19.2024 Q-7.9283 17.1868 -7.9283 14.9211 Q-7.9283 12.7493 -8.108 10.9055 Q-8.2877 9.0618 -9.0767 7.5696 Q-9.8658 6.0774 -11.4908 6.0774 Q-13.1314 6.0774 -13.9283 7.5774 Q-14.7252 9.0774 -14.9048 10.9133 Q-15.0845 12.7493 -15.0845 14.9211 Q-15.0845 16.5461 -15.0064 17.9758 Q-14.9283 19.4055 -14.5923 20.929 Q-14.2564 22.4524 -13.4986 23.4915 Q-12.7408 24.5305 -11.4908 24.5305 Z"
         id="path59" />
      <path
         style="stroke:none;"
         d="M-1.6366 23.0461 Q-1.6366 22.3899 -1.1522 21.9211 Q-0.6678 21.4524 -0.0428 21.4524 Q0.3634 21.4524 0.7462 21.6633 Q1.1291 21.8743 1.34 22.2571 Q1.5509 22.6399 1.5509 23.0461 Q1.5509 23.6711 1.0822 24.1555 Q0.6134 24.6399 -0.0428 24.6399 Q-0.6678 24.6399 -1.1522 24.1555 Q-1.6366 23.6711 -1.6366 23.0461 Z"
         id="path61" />
      <path
         style="stroke:none;"
         d="M4.8866 19.8586 L4.8866 18.8274 L13.8397 5.468 Q13.9491 5.3274 14.1366 5.3274 L14.5741 5.3274 Q14.8866 5.3274 14.8866 5.6555 L14.8866 18.8274 L17.746 18.8274 L17.746 19.8586 L14.8866 19.8586 L14.8866 22.7024 Q14.8866 23.2961 15.7382 23.4602 Q16.5897 23.6243 17.7147 23.6243 L17.7147 24.6399 L9.7304 24.6399 L9.7304 23.6243 Q10.8397 23.6243 11.6913 23.4602 Q12.5429 23.2961 12.5429 22.7024 L12.5429 19.8586 L4.8866 19.8586 ZM5.8397 18.8274 L12.7147 18.8274 L12.7147 8.5618 L5.8397 18.8274 Z"
         id="path63" />
    </g>
    <g
       transform="translate(388.8,344.5333)"
       style="font-size:29.3333px; fill:rgb(38,38,38); text-rendering:geometricPrecision; image-rendering:optimizeQuality; color-rendering:optimizeQuality; font-family:'mwa_cmr10'; stroke:rgb(38,38,38); color-interpolation:linearRGB;"
       id="g73">
      <path
         style="stroke:none;"
         d="M-11.4908 25.2805 Q-15.0377 25.2805 -16.3189 22.3508 Q-17.6002 19.4211 -17.6002 15.3899 Q-17.6002 12.8743 -17.147 10.6477 Q-16.6939 8.4211 -15.3267 6.8743 Q-13.9595 5.3274 -11.4908 5.3274 Q-9.5845 5.3274 -8.3658 6.2571 Q-7.147 7.1868 -6.5064 8.6711 Q-5.8658 10.1555 -5.6314 11.843 Q-5.397 13.5305 -5.397 15.3899 Q-5.397 17.8899 -5.858 20.0618 Q-6.3189 22.2336 -7.6627 23.7571 Q-9.0064 25.2805 -11.4908 25.2805 ZM-11.4908 24.5305 Q-9.8814 24.5305 -9.0845 22.8743 Q-8.2877 21.218 -8.108 19.2024 Q-7.9283 17.1868 -7.9283 14.9211 Q-7.9283 12.7493 -8.108 10.9055 Q-8.2877 9.0618 -9.0767 7.5696 Q-9.8658 6.0774 -11.4908 6.0774 Q-13.1314 6.0774 -13.9283 7.5774 Q-14.7252 9.0774 -14.9048 10.9133 Q-15.0845 12.7493 -15.0845 14.9211 Q-15.0845 16.5461 -15.0064 17.9758 Q-14.9283 19.4055 -14.5923 20.929 Q-14.2564 22.4524 -13.4986 23.4915 Q-12.7408 24.5305 -11.4908 24.5305 Z"
         id="path67" />
      <path
         style="stroke:none;"
         d="M-1.6366 23.0461 Q-1.6366 22.3899 -1.1522 21.9211 Q-0.6678 21.4524 -0.0428 21.4524 Q0.3634 21.4524 0.7462 21.6633 Q1.1291 21.8743 1.34 22.2571 Q1.5509 22.6399 1.5509 23.0461 Q1.5509 23.6711 1.0822 24.1555 Q0.6134 24.6399 -0.0428 24.6399 Q-0.6678 24.6399 -1.1522 24.1555 Q-1.6366 23.6711 -1.6366 23.0461 Z"
         id="path69" />
      <path
         style="stroke:none;"
         d="M11.3241 25.2805 Q9.5272 25.2805 8.3241 24.3196 Q7.121 23.3586 6.4647 21.843 Q5.8085 20.3274 5.5507 18.6555 Q5.2929 16.9836 5.2929 15.2649 Q5.2929 12.968 6.1835 10.6633 Q7.0741 8.3586 8.8085 6.843 Q10.5429 5.3274 12.9179 5.3274 Q13.9179 5.3274 14.7772 5.7024 Q15.6366 6.0774 16.121 6.804 Q16.6054 7.5305 16.6054 8.5618 Q16.6054 9.1555 16.1991 9.5618 Q15.7929 9.968 15.1991 9.968 Q14.6366 9.968 14.2304 9.5618 Q13.8241 9.1555 13.8241 8.5618 Q13.8241 7.9993 14.2304 7.593 Q14.6366 7.1868 15.1991 7.1868 L15.3554 7.1868 Q14.996 6.6555 14.3241 6.4055 Q13.6522 6.1555 12.9179 6.1555 Q12.0429 6.1555 11.3007 6.5383 Q10.5585 6.9211 9.9647 7.5774 Q9.371 8.2336 8.9725 9.0149 Q8.5741 9.7961 8.3554 10.804 Q8.1366 11.8118 8.0819 12.6868 Q8.0272 13.5618 8.0272 14.8899 Q8.5272 13.7024 9.4647 12.9446 Q10.4022 12.1868 11.5741 12.1868 Q12.871 12.1868 13.9335 12.7102 Q14.996 13.2336 15.7616 14.1633 Q16.5272 15.093 16.9257 16.2805 Q17.3241 17.468 17.3241 18.6868 Q17.3241 20.3899 16.5663 21.929 Q15.8085 23.468 14.4335 24.3743 Q13.0585 25.2805 11.3241 25.2805 ZM11.3241 24.3586 Q12.4491 24.3586 13.1288 23.8508 Q13.8085 23.343 14.121 22.4993 Q14.4335 21.6555 14.5116 20.7961 Q14.5897 19.9368 14.5897 18.6868 Q14.5897 17.0461 14.4335 15.8899 Q14.2772 14.7336 13.5897 13.843 Q12.9022 12.9524 11.4647 12.9524 Q10.2929 12.9524 9.535 13.7493 Q8.7772 14.5461 8.4257 15.7571 Q8.0741 16.968 8.0741 18.0774 Q8.0741 18.468 8.1054 18.6711 Q8.1054 18.7024 8.0975 18.7336 Q8.0897 18.7649 8.0741 18.8118 Q8.0741 20.0461 8.3319 21.3196 Q8.5897 22.593 9.3163 23.4758 Q10.0429 24.3586 11.3241 24.3586 Z"
         id="path71" />
    </g>
    <g
       transform="translate(485.4,344.5333)"
       style="font-size:29.3333px; fill:rgb(38,38,38); text-rendering:geometricPrecision; image-rendering:optimizeQuality; color-rendering:optimizeQuality; font-family:'mwa_cmr10'; stroke:rgb(38,38,38); color-interpolation:linearRGB;"
       id="g81">
      <path
         style="stroke:none;"
         d="M-11.4908 25.2805 Q-15.0377 25.2805 -16.3189 22.3508 Q-17.6002 19.4211 -17.6002 15.3899 Q-17.6002 12.8743 -17.147 10.6477 Q-16.6939 8.4211 -15.3267 6.8743 Q-13.9595 5.3274 -11.4908 5.3274 Q-9.5845 5.3274 -8.3658 6.2571 Q-7.147 7.1868 -6.5064 8.6711 Q-5.8658 10.1555 -5.6314 11.843 Q-5.397 13.5305 -5.397 15.3899 Q-5.397 17.8899 -5.858 20.0618 Q-6.3189 22.2336 -7.6627 23.7571 Q-9.0064 25.2805 -11.4908 25.2805 ZM-11.4908 24.5305 Q-9.8814 24.5305 -9.0845 22.8743 Q-8.2877 21.218 -8.108 19.2024 Q-7.9283 17.1868 -7.9283 14.9211 Q-7.9283 12.7493 -8.108 10.9055 Q-8.2877 9.0618 -9.0767 7.5696 Q-9.8658 6.0774 -11.4908 6.0774 Q-13.1314 6.0774 -13.9283 7.5774 Q-14.7252 9.0774 -14.9048 10.9133 Q-15.0845 12.7493 -15.0845 14.9211 Q-15.0845 16.5461 -15.0064 17.9758 Q-14.9283 19.4055 -14.5923 20.929 Q-14.2564 22.4524 -13.4986 23.4915 Q-12.7408 24.5305 -11.4908 24.5305 Z"
         id="path75" />
      <path
         style="stroke:none;"
         d="M-1.6366 23.0461 Q-1.6366 22.3899 -1.1522 21.9211 Q-0.6678 21.4524 -0.0428 21.4524 Q0.3634 21.4524 0.7462 21.6633 Q1.1291 21.8743 1.34 22.2571 Q1.5509 22.6399 1.5509 23.0461 Q1.5509 23.6711 1.0822 24.1555 Q0.6134 24.6399 -0.0428 24.6399 Q-0.6678 24.6399 -1.1522 24.1555 Q-1.6366 23.6711 -1.6366 23.0461 Z"
         id="path77" />
      <path
         style="stroke:none;"
         d="M5.2929 20.2336 Q5.2929 18.4993 6.4413 17.1555 Q7.5897 15.8118 9.3866 14.9211 L8.3085 14.2336 Q7.3241 13.5774 6.6991 12.4993 Q6.0741 11.4211 6.0741 10.218 Q6.0741 8.843 6.8007 7.718 Q7.5272 6.593 8.7382 5.9602 Q9.9491 5.3274 11.3241 5.3274 Q12.6054 5.3274 13.8085 5.8508 Q15.0116 6.3743 15.7772 7.3508 Q16.5429 8.3274 16.5429 9.6711 Q16.5429 10.6555 16.0897 11.4915 Q15.6366 12.3274 14.8319 12.9915 Q14.0272 13.6555 13.121 14.1243 L14.7772 15.1868 Q15.9335 15.9368 16.6288 17.1555 Q17.3241 18.3743 17.3241 19.718 Q17.3241 21.2805 16.4804 22.5696 Q15.6366 23.8586 14.2538 24.5696 Q12.871 25.2805 11.3241 25.2805 Q9.8241 25.2805 8.4257 24.6711 Q7.0272 24.0618 6.16 22.9055 Q5.2929 21.7493 5.2929 20.2336 ZM6.871 20.2336 Q6.871 21.3899 7.496 22.3352 Q8.121 23.2805 9.16 23.8196 Q10.1991 24.3586 11.3241 24.3586 Q13.0116 24.3586 14.3866 23.3743 Q15.7616 22.3899 15.7616 20.7649 Q15.7616 20.2024 15.5429 19.6633 Q15.3241 19.1243 14.9335 18.6711 Q14.5429 18.218 14.0585 17.9368 L10.1679 15.4211 Q9.2616 15.9055 8.5038 16.6399 Q7.746 17.3743 7.3085 18.2961 Q6.871 19.218 6.871 20.2336 ZM8.8554 11.3899 L12.371 13.6555 Q13.5897 12.9368 14.371 11.9368 Q15.1522 10.9368 15.1522 9.6711 Q15.1522 8.7024 14.6054 7.8821 Q14.0585 7.0618 13.1835 6.6086 Q12.3085 6.1555 11.2929 6.1555 Q10.4179 6.1555 9.5272 6.4993 Q8.6366 6.843 8.0585 7.5149 Q7.4804 8.1868 7.4804 9.093 Q7.4804 10.4524 8.8554 11.3899 Z"
         id="path79" />
    </g>
    <g
       transform="translate(582,344.5333)"
       style="font-size:29.3333px; fill:rgb(38,38,38); text-rendering:geometricPrecision; image-rendering:optimizeQuality; color-rendering:optimizeQuality; font-family:'mwa_cmr10'; stroke:rgb(38,38,38); color-interpolation:linearRGB;"
       id="g85">
      <path
         style="stroke:none;"
         d="M-4.6458 24.6399 L-4.6458 23.6243 Q-1.0208 23.6243 -1.0208 22.7024 L-1.0208 7.4836 Q-2.5208 8.2024 -4.8177 8.2024 L-4.8177 7.1868 Q-1.2552 7.1868 0.5573 5.3274 L0.9635 5.3274 Q1.0573 5.3274 1.151 5.4055 Q1.2448 5.4836 1.2448 5.5774 L1.2448 22.7024 Q1.2448 23.6243 4.8698 23.6243 L4.8698 24.6399 L-4.6458 24.6399 Z"
         id="path83" />
    </g>
    <g
       transform="translate(340.5002,381.28)"
       style="font-size:32.2667px; fill:rgb(38,38,38); text-rendering:geometricPrecision; image-rendering:optimizeQuality; color-rendering:optimizeQuality; font-family:'mwa_cmmi10'; stroke:rgb(38,38,38); color-interpolation:linearRGB;"
       id="g89">
      <path
         style="stroke:none;"
         d="M-10.1999 26.682 Q-10.1843 26.6039 -10.1296 26.4008 Q-10.0749 26.1976 -9.989 26.0883 Q-9.903 25.9789 -9.7468 25.9789 Q-6.9968 25.9789 -6.1062 25.8226 Q-5.2468 25.6039 -5.0749 24.9008 L-0.6999 7.3226 Q-0.5593 6.932 -0.5593 6.6195 Q-0.5593 6.3695 -1.6843 6.3695 L-3.5437 6.3695 Q-5.6843 6.3695 -6.8483 7.0258 Q-8.0124 7.682 -8.5593 8.7601 Q-9.1062 9.8383 -9.9655 12.2914 Q-10.0749 12.5726 -10.2937 12.5726 L-10.5749 12.5726 Q-10.903 12.5726 -10.903 12.1664 L-8.6218 5.5414 Q-8.5593 5.2445 -8.3093 5.2445 L10.597 5.2445 Q10.9251 5.2445 10.9251 5.6664 L9.8626 12.2914 Q9.8626 12.3851 9.7532 12.4789 Q9.6438 12.5726 9.5501 12.5726 L9.2532 12.5726 Q8.9407 12.5726 8.9407 12.1664 Q9.2845 9.9008 9.2845 8.9633 Q9.2845 7.8383 8.8157 7.2601 Q8.347 6.682 7.597 6.5258 Q6.847 6.3695 5.6438 6.3695 L3.7532 6.3695 Q2.8938 6.3695 2.597 6.5258 Q2.3001 6.682 2.097 7.4633 L-2.2937 25.0258 Q-2.3093 25.0883 -2.3171 25.1508 Q-2.3249 25.2133 -2.3562 25.307 Q-2.3562 25.7133 -1.8718 25.8226 Q-1.0437 25.9789 1.6751 25.9789 Q1.9876 25.9789 1.9876 26.4008 Q1.8782 26.8539 1.8157 26.9789 Q1.7532 27.1039 1.4563 27.1039 L-9.8718 27.1039 Q-10.1999 27.1039 -10.1999 26.682 Z"
         id="path87" />
    </g>
    <g
       style="text-rendering:geometricPrecision; stroke-width:0.6667; color-interpolation:linearRGB; color-rendering:optimizeQuality; image-rendering:optimizeQuality; stroke-linejoin:round;"
       id="g115">
      <line
         y2="31"
         style="fill:none;"
         x1="99"
         x2="99"
         y1="336"
         id="line91" />
      <line
         y2="31"
         style="fill:none;"
         x1="582"
         x2="582"
         y1="336"
         id="line93" />
      <line
         y2="336"
         style="fill:none;"
         x1="99"
         x2="103.8262"
         y1="336"
         id="line95" />
      <line
         y2="259.75"
         style="fill:none;"
         x1="99"
         x2="103.8262"
         y1="259.75"
         id="line97" />
      <line
         y2="183.5"
         style="fill:none;"
         x1="99"
         x2="103.8262"
         y1="183.5"
         id="line99" />
      <line
         y2="107.25"
         style="fill:none;"
         x1="99"
         x2="103.8262"
         y1="107.25"
         id="line101" />
      <line
         y2="31"
         style="fill:none;"
         x1="99"
         x2="103.8262"
         y1="31"
         id="line103" />
      <line
         y2="336"
         style="fill:none;"
         x1="582"
         x2="577.1738"
         y1="336"
         id="line105" />
      <line
         y2="259.75"
         style="fill:none;"
         x1="582"
         x2="577.1738"
         y1="259.75"
         id="line107" />
      <line
         y2="183.5"
         style="fill:none;"
         x1="582"
         x2="577.1738"
         y1="183.5"
         id="line109" />
      <line
         y2="107.25"
         style="fill:none;"
         x1="582"
         x2="577.1738"
         y1="107.25"
         id="line111" />
      <line
         y2="31"
         style="fill:none;"
         x1="582"
         x2="577.1738"
         y1="31"
         id="line113" />
    </g>
    <g
       transform="translate(90.4667,336)"
       style="font-size:29.3333px; text-rendering:geometricPrecision; color-rendering:optimizeQuality; image-rendering:optimizeQuality; font-family:'mwa_cmr10'; color-interpolation:linearRGB;"
       id="g119">
      <path
         style="stroke:none;"
         d="M-7.4167 7.6805 Q-10.9636 7.6805 -12.2448 4.7508 Q-13.5261 1.8211 -13.5261 -2.2101 Q-13.5261 -4.7257 -13.073 -6.9523 Q-12.6198 -9.1789 -11.2526 -10.7257 Q-9.8855 -12.2726 -7.4167 -12.2726 Q-5.5105 -12.2726 -4.2917 -11.3429 Q-3.073 -10.4132 -2.4323 -8.9289 Q-1.7917 -7.4445 -1.5573 -5.757 Q-1.323 -4.0695 -1.323 -2.2101 Q-1.323 0.2899 -1.7839 2.4618 Q-2.2448 4.6336 -3.5886 6.1571 Q-4.9323 7.6805 -7.4167 7.6805 ZM-7.4167 6.9305 Q-5.8073 6.9305 -5.0105 5.2743 Q-4.2136 3.618 -4.0339 1.6024 Q-3.8542 -0.4132 -3.8542 -2.6789 Q-3.8542 -4.8507 -4.0339 -6.6945 Q-4.2136 -8.5382 -5.0026 -10.0304 Q-5.7917 -11.5226 -7.4167 -11.5226 Q-9.0573 -11.5226 -9.8542 -10.0226 Q-10.6511 -8.5226 -10.8308 -6.6867 Q-11.0105 -4.8507 -11.0105 -2.6789 Q-11.0105 -1.0539 -10.9323 0.3758 Q-10.8542 1.8055 -10.5183 3.329 Q-10.1823 4.8524 -9.4245 5.8915 Q-8.6667 6.9305 -7.4167 6.9305 Z"
         id="path117" />
    </g>
    <g
       transform="translate(90.4667,259.75)"
       style="font-size:29.3333px; text-rendering:geometricPrecision; color-rendering:optimizeQuality; image-rendering:optimizeQuality; font-family:'mwa_cmr10'; color-interpolation:linearRGB;"
       id="g127">
      <path
         style="stroke:none;"
         d="M-30.2316 7.6805 Q-33.7785 7.6805 -35.0597 4.7508 Q-36.341 1.8211 -36.341 -2.2101 Q-36.341 -4.7257 -35.8878 -6.9523 Q-35.4347 -9.1789 -34.0675 -10.7257 Q-32.7003 -12.2726 -30.2316 -12.2726 Q-28.3253 -12.2726 -27.1066 -11.3429 Q-25.8878 -10.4132 -25.2472 -8.9289 Q-24.6066 -7.4445 -24.3722 -5.757 Q-24.1378 -4.0695 -24.1378 -2.2101 Q-24.1378 0.2899 -24.5988 2.4618 Q-25.0597 4.6336 -26.4035 6.1571 Q-27.7472 7.6805 -30.2316 7.6805 ZM-30.2316 6.9305 Q-28.6222 6.9305 -27.8253 5.2743 Q-27.0285 3.618 -26.8488 1.6024 Q-26.6691 -0.4132 -26.6691 -2.6789 Q-26.6691 -4.8507 -26.8488 -6.6945 Q-27.0285 -8.5382 -27.8175 -10.0304 Q-28.6066 -11.5226 -30.2316 -11.5226 Q-31.8722 -11.5226 -32.6691 -10.0226 Q-33.466 -8.5226 -33.6457 -6.6867 Q-33.8253 -4.8507 -33.8253 -2.6789 Q-33.8253 -1.0539 -33.7472 0.3758 Q-33.6691 1.8055 -33.3332 3.329 Q-32.9972 4.8524 -32.2394 5.8915 Q-31.4816 6.9305 -30.2316 6.9305 Z"
         id="path121" />
      <path
         style="stroke:none;"
         d="M-20.3774 5.4461 Q-20.3774 4.7899 -19.893 4.3211 Q-19.4086 3.8524 -18.7836 3.8524 Q-18.3774 3.8524 -17.9946 4.0633 Q-17.6118 4.2743 -17.4008 4.6571 Q-17.1899 5.0399 -17.1899 5.4461 Q-17.1899 6.0711 -17.6586 6.5555 Q-18.1274 7.0399 -18.7836 7.0399 Q-19.4086 7.0399 -19.893 6.5555 Q-20.3774 6.0711 -20.3774 5.4461 Z"
         id="path123" />
      <path
         style="stroke:none;"
         d="M-11.9792 7.0399 L-11.9792 6.0243 Q-8.3542 6.0243 -8.3542 5.1024 L-8.3542 -10.1164 Q-9.8542 -9.3976 -12.1511 -9.3976 L-12.1511 -10.4132 Q-8.5886 -10.4132 -6.7761 -12.2726 L-6.3698 -12.2726 Q-6.2761 -12.2726 -6.1823 -12.1945 Q-6.0886 -12.1164 -6.0886 -12.0226 L-6.0886 5.1024 Q-6.0886 6.0243 -2.4636 6.0243 L-2.4636 7.0399 L-11.9792 7.0399 Z"
         id="path125" />
    </g>
    <g
       transform="translate(90.4667,183.5)"
       style="font-size:29.3333px; text-rendering:geometricPrecision; color-rendering:optimizeQuality; image-rendering:optimizeQuality; font-family:'mwa_cmr10'; color-interpolation:linearRGB;"
       id="g135">
      <path
         style="stroke:none;"
         d="M-30.2316 7.6805 Q-33.7785 7.6805 -35.0597 4.7508 Q-36.341 1.8211 -36.341 -2.2101 Q-36.341 -4.7257 -35.8878 -6.9523 Q-35.4347 -9.1789 -34.0675 -10.7257 Q-32.7003 -12.2726 -30.2316 -12.2726 Q-28.3253 -12.2726 -27.1066 -11.3429 Q-25.8878 -10.4132 -25.2472 -8.9289 Q-24.6066 -7.4445 -24.3722 -5.757 Q-24.1378 -4.0695 -24.1378 -2.2101 Q-24.1378 0.2899 -24.5988 2.4618 Q-25.0597 4.6336 -26.4035 6.1571 Q-27.7472 7.6805 -30.2316 7.6805 ZM-30.2316 6.9305 Q-28.6222 6.9305 -27.8253 5.2743 Q-27.0285 3.618 -26.8488 1.6024 Q-26.6691 -0.4132 -26.6691 -2.6789 Q-26.6691 -4.8507 -26.8488 -6.6945 Q-27.0285 -8.5382 -27.8175 -10.0304 Q-28.6066 -11.5226 -30.2316 -11.5226 Q-31.8722 -11.5226 -32.6691 -10.0226 Q-33.466 -8.5226 -33.6457 -6.6867 Q-33.8253 -4.8507 -33.8253 -2.6789 Q-33.8253 -1.0539 -33.7472 0.3758 Q-33.6691 1.8055 -33.3332 3.329 Q-32.9972 4.8524 -32.2394 5.8915 Q-31.4816 6.9305 -30.2316 6.9305 Z"
         id="path129" />
      <path
         style="stroke:none;"
         d="M-20.3774 5.4461 Q-20.3774 4.7899 -19.893 4.3211 Q-19.4086 3.8524 -18.7836 3.8524 Q-18.3774 3.8524 -17.9946 4.0633 Q-17.6118 4.2743 -17.4008 4.6571 Q-17.1899 5.0399 -17.1899 5.4461 Q-17.1899 6.0711 -17.6586 6.5555 Q-18.1274 7.0399 -18.7836 7.0399 Q-19.4086 7.0399 -19.893 6.5555 Q-20.3774 6.0711 -20.3774 5.4461 Z"
         id="path131" />
      <path
         style="stroke:none;"
         d="M-13.2292 7.0399 L-13.2292 6.2586 Q-13.2292 6.1961 -13.1667 6.1024 L-8.6667 1.118 Q-7.6355 0.0086 -7.0026 -0.7414 Q-6.3698 -1.4914 -5.7448 -2.4679 Q-5.1198 -3.4445 -4.7605 -4.4523 Q-4.4011 -5.4601 -4.4011 -6.6007 Q-4.4011 -7.7882 -4.8386 -8.8742 Q-5.2761 -9.9601 -6.1511 -10.6085 Q-7.0261 -11.257 -8.2448 -11.257 Q-9.5105 -11.257 -10.5183 -10.4992 Q-11.5261 -9.7414 -11.9323 -8.5382 Q-11.823 -8.5695 -11.6198 -8.5695 Q-10.9636 -8.5695 -10.5105 -8.132 Q-10.0573 -7.6945 -10.0573 -6.9914 Q-10.0573 -6.3351 -10.5105 -5.8742 Q-10.9636 -5.4132 -11.6198 -5.4132 Q-12.3073 -5.4132 -12.7683 -5.882 Q-13.2292 -6.3507 -13.2292 -6.9914 Q-13.2292 -8.0851 -12.8151 -9.0382 Q-12.4011 -9.9914 -11.6276 -10.7335 Q-10.8542 -11.4757 -9.8855 -11.8742 Q-8.9167 -12.2726 -7.823 -12.2726 Q-6.1667 -12.2726 -4.737 -11.5695 Q-3.3073 -10.8664 -2.4714 -9.5851 Q-1.6355 -8.3039 -1.6355 -6.6007 Q-1.6355 -5.3351 -2.1901 -4.2023 Q-2.7448 -3.0695 -3.6042 -2.1398 Q-4.4636 -1.2101 -5.8151 -0.0382 Q-7.1667 1.1336 -7.5886 1.5243 L-10.8698 4.6961 L-8.0886 4.6961 Q-6.0261 4.6961 -4.6433 4.6571 Q-3.2605 4.618 -3.1823 4.5399 Q-2.8386 4.1805 -2.4948 1.868 L-1.6355 1.868 L-2.4636 7.0399 L-13.2292 7.0399 Z"
         id="path133" />
    </g>
    <g
       transform="translate(90.4667,107.25)"
       style="font-size:29.3333px; text-rendering:geometricPrecision; color-rendering:optimizeQuality; image-rendering:optimizeQuality; font-family:'mwa_cmr10'; color-interpolation:linearRGB;"
       id="g143">
      <path
         style="stroke:none;"
         d="M-30.2316 7.6805 Q-33.7785 7.6805 -35.0597 4.7508 Q-36.341 1.8211 -36.341 -2.2101 Q-36.341 -4.7257 -35.8878 -6.9523 Q-35.4347 -9.1789 -34.0675 -10.7257 Q-32.7003 -12.2726 -30.2316 -12.2726 Q-28.3253 -12.2726 -27.1066 -11.3429 Q-25.8878 -10.4132 -25.2472 -8.9289 Q-24.6066 -7.4445 -24.3722 -5.757 Q-24.1378 -4.0695 -24.1378 -2.2101 Q-24.1378 0.2899 -24.5988 2.4618 Q-25.0597 4.6336 -26.4035 6.1571 Q-27.7472 7.6805 -30.2316 7.6805 ZM-30.2316 6.9305 Q-28.6222 6.9305 -27.8253 5.2743 Q-27.0285 3.618 -26.8488 1.6024 Q-26.6691 -0.4132 -26.6691 -2.6789 Q-26.6691 -4.8507 -26.8488 -6.6945 Q-27.0285 -8.5382 -27.8175 -10.0304 Q-28.6066 -11.5226 -30.2316 -11.5226 Q-31.8722 -11.5226 -32.6691 -10.0226 Q-33.466 -8.5226 -33.6457 -6.6867 Q-33.8253 -4.8507 -33.8253 -2.6789 Q-33.8253 -1.0539 -33.7472 0.3758 Q-33.6691 1.8055 -33.3332 3.329 Q-32.9972 4.8524 -32.2394 5.8915 Q-31.4816 6.9305 -30.2316 6.9305 Z"
         id="path137" />
      <path
         style="stroke:none;"
         d="M-20.3774 5.4461 Q-20.3774 4.7899 -19.893 4.3211 Q-19.4086 3.8524 -18.7836 3.8524 Q-18.3774 3.8524 -17.9946 4.0633 Q-17.6118 4.2743 -17.4008 4.6571 Q-17.1899 5.0399 -17.1899 5.4461 Q-17.1899 6.0711 -17.6586 6.5555 Q-18.1274 7.0399 -18.7836 7.0399 Q-19.4086 7.0399 -19.893 6.5555 Q-20.3774 6.0711 -20.3774 5.4461 Z"
         id="path139" />
      <path
         style="stroke:none;"
         d="M-11.9011 4.8055 Q-11.2292 5.7899 -10.0808 6.2743 Q-8.9323 6.7586 -7.6198 6.7586 Q-5.9323 6.7586 -5.2214 5.3211 Q-4.5105 3.8836 -4.5105 2.0555 Q-4.5105 1.2274 -4.6589 0.4071 Q-4.8073 -0.4132 -5.1667 -1.1164 Q-5.5261 -1.8195 -6.1355 -2.2492 Q-6.7448 -2.6789 -7.6355 -2.6789 L-9.573 -2.6789 Q-9.823 -2.6789 -9.823 -2.9445 L-9.823 -3.1945 Q-9.823 -3.4289 -9.573 -3.4289 L-7.9636 -3.5539 Q-6.948 -3.5539 -6.2761 -4.3195 Q-5.6042 -5.0851 -5.2917 -6.1789 Q-4.9792 -7.2726 -4.9792 -8.2726 Q-4.9792 -9.6476 -5.6276 -10.546 Q-6.2761 -11.4445 -7.6198 -11.4445 Q-8.7136 -11.4445 -9.7214 -11.0226 Q-10.7292 -10.6007 -11.323 -9.757 Q-11.2605 -9.7726 -11.2214 -9.7804 Q-11.1823 -9.7882 -11.1198 -9.7882 Q-10.4792 -9.7882 -10.0417 -9.3351 Q-9.6042 -8.882 -9.6042 -8.2414 Q-9.6042 -7.6164 -10.0417 -7.1632 Q-10.4792 -6.7101 -11.1198 -6.7101 Q-11.7605 -6.7101 -12.2136 -7.1632 Q-12.6667 -7.6164 -12.6667 -8.2414 Q-12.6667 -9.4914 -11.9167 -10.4054 Q-11.1667 -11.3195 -9.987 -11.796 Q-8.8073 -12.2726 -7.6198 -12.2726 Q-6.7292 -12.2726 -5.7526 -12.0148 Q-4.7761 -11.757 -3.987 -11.2648 Q-3.198 -10.7726 -2.698 -10.007 Q-2.198 -9.2414 -2.198 -8.2726 Q-2.198 -7.0539 -2.737 -6.0148 Q-3.2761 -4.9757 -4.2292 -4.2257 Q-5.1823 -3.4757 -6.3073 -3.1164 Q-5.0573 -2.8664 -3.9245 -2.1632 Q-2.7917 -1.4601 -2.1042 -0.3507 Q-1.4167 0.7586 -1.4167 2.0243 Q-1.4167 3.6336 -2.2917 4.9227 Q-3.1667 6.2118 -4.5964 6.9461 Q-6.0261 7.6805 -7.6198 7.6805 Q-8.9792 7.6805 -10.3464 7.1649 Q-11.7136 6.6493 -12.5808 5.6102 Q-13.448 4.5711 -13.448 3.1336 Q-13.448 2.4149 -12.9636 1.9305 Q-12.4792 1.4461 -11.7605 1.4461 Q-11.2917 1.4461 -10.9011 1.6649 Q-10.5105 1.8836 -10.2917 2.2821 Q-10.073 2.6805 -10.073 3.1336 Q-10.073 3.8368 -10.573 4.3211 Q-11.073 4.8055 -11.7605 4.8055 L-11.9011 4.8055 Z"
         id="path141" />
    </g>
    <g
       transform="translate(90.4667,31)"
       style="font-size:29.3333px; text-rendering:geometricPrecision; color-rendering:optimizeQuality; image-rendering:optimizeQuality; font-family:'mwa_cmr10'; color-interpolation:linearRGB;"
       id="g151">
      <path
         style="stroke:none;"
         d="M-30.2316 7.6805 Q-33.7785 7.6805 -35.0597 4.7508 Q-36.341 1.8211 -36.341 -2.2101 Q-36.341 -4.7257 -35.8878 -6.9523 Q-35.4347 -9.1789 -34.0675 -10.7257 Q-32.7003 -12.2726 -30.2316 -12.2726 Q-28.3253 -12.2726 -27.1066 -11.3429 Q-25.8878 -10.4132 -25.2472 -8.9289 Q-24.6066 -7.4445 -24.3722 -5.757 Q-24.1378 -4.0695 -24.1378 -2.2101 Q-24.1378 0.2899 -24.5988 2.4618 Q-25.0597 4.6336 -26.4035 6.1571 Q-27.7472 7.6805 -30.2316 7.6805 ZM-30.2316 6.9305 Q-28.6222 6.9305 -27.8253 5.2743 Q-27.0285 3.618 -26.8488 1.6024 Q-26.6691 -0.4132 -26.6691 -2.6789 Q-26.6691 -4.8507 -26.8488 -6.6945 Q-27.0285 -8.5382 -27.8175 -10.0304 Q-28.6066 -11.5226 -30.2316 -11.5226 Q-31.8722 -11.5226 -32.6691 -10.0226 Q-33.466 -8.5226 -33.6457 -6.6867 Q-33.8253 -4.8507 -33.8253 -2.6789 Q-33.8253 -1.0539 -33.7472 0.3758 Q-33.6691 1.8055 -33.3332 3.329 Q-32.9972 4.8524 -32.2394 5.8915 Q-31.4816 6.9305 -30.2316 6.9305 Z"
         id="path145" />
      <path
         style="stroke:none;"
         d="M-20.3774 5.4461 Q-20.3774 4.7899 -19.893 4.3211 Q-19.4086 3.8524 -18.7836 3.8524 Q-18.3774 3.8524 -17.9946 4.0633 Q-17.6118 4.2743 -17.4008 4.6571 Q-17.1899 5.0399 -17.1899 5.4461 Q-17.1899 6.0711 -17.6586 6.5555 Q-18.1274 7.0399 -18.7836 7.0399 Q-19.4086 7.0399 -19.893 6.5555 Q-20.3774 6.0711 -20.3774 5.4461 Z"
         id="path147" />
      <path
         style="stroke:none;"
         d="M-13.8542 2.2586 L-13.8542 1.2274 L-4.9011 -12.132 Q-4.7917 -12.2726 -4.6042 -12.2726 L-4.1667 -12.2726 Q-3.8542 -12.2726 -3.8542 -11.9445 L-3.8542 1.2274 L-0.9948 1.2274 L-0.9948 2.2586 L-3.8542 2.2586 L-3.8542 5.1024 Q-3.8542 5.6961 -3.0026 5.8602 Q-2.1511 6.0243 -1.0261 6.0243 L-1.0261 7.0399 L-9.0105 7.0399 L-9.0105 6.0243 Q-7.9011 6.0243 -7.0495 5.8602 Q-6.198 5.6961 -6.198 5.1024 L-6.198 2.2586 L-13.8542 2.2586 ZM-12.9011 1.2274 L-6.0261 1.2274 L-6.0261 -9.0382 L-12.9011 1.2274 Z"
         id="path149" />
    </g>
    <g
       transform="translate(49.3628,183.4998) rotate(-90)"
       style="font-size:22.5867px; text-rendering:geometricPrecision; color-rendering:optimizeQuality; image-rendering:optimizeQuality; font-family:'mwa_cmsy10'; color-interpolation:linearRGB;"
       id="g223">
      <path
         style="stroke:none;"
         d="M-121.2798 -33.454 Q-121.2798 -33.8603 -120.6235 -34.2509 Q-119.9673 -34.6415 -119.5298 -34.6728 L-119.3891 -34.6728 Q-119.311 -34.6415 -119.0141 -34.1494 Q-118.7173 -33.6572 -118.2876 -33.3369 Q-117.8579 -33.0165 -117.061 -33.0165 Q-116.9048 -33.2197 -116.7954 -33.4072 Q-115.1391 -36.4697 -113.9829 -39.6415 Q-113.3579 -41.3759 -112.8579 -43.2197 Q-112.3579 -45.0634 -112.0766 -46.7822 L-113.0454 -46.7822 Q-115.3423 -46.7822 -115.936 -44.6259 Q-116.1704 -44.2197 -116.6782 -43.9228 Q-117.186 -43.6259 -117.6704 -43.579 L-117.811 -43.579 Q-117.9673 -43.6728 -117.9673 -43.8134 Q-117.6235 -45.0322 -116.5923 -46.0244 Q-115.561 -47.0165 -114.2016 -47.579 Q-112.8423 -48.1415 -111.5766 -48.1415 L-104.8423 -48.1415 Q-102.6079 -48.1415 -102.6079 -47.2509 Q-102.6079 -46.7509 -103.2095 -46.3447 Q-103.811 -45.9384 -104.4048 -45.8759 L-104.5141 -45.8759 Q-104.686 -45.9697 -104.686 -46.0165 Q-104.6704 -46.079 -104.6548 -46.1572 Q-104.6391 -46.2353 -104.6391 -46.2665 Q-104.6391 -46.7822 -106.561 -46.7822 L-110.186 -46.7822 Q-110.8423 -43.5478 -111.8735 -40.704 L-106.0766 -40.704 Q-105.9204 -40.6259 -105.9204 -40.5009 Q-106.061 -39.954 -106.6001 -39.5634 Q-107.1391 -39.1728 -107.7329 -39.1103 L-107.8735 -39.1103 Q-108.0298 -39.204 -108.0298 -39.2978 L-108.0298 -39.3447 L-112.3891 -39.3447 Q-113.3891 -36.7509 -114.7798 -34.204 Q-115.3423 -33.1728 -116.397 -32.415 Q-117.4516 -31.6572 -118.5141 -31.6572 L-118.6391 -31.6572 Q-119.5298 -31.6572 -120.2485 -32.1337 Q-120.9673 -32.6103 -121.2798 -33.454 Z"
         id="path153" />
      <path
         style="stroke:none;"
         d="M-101.8894 -29.0348 L-103.9675 -34.863 Q-104.1081 -35.2067 -104.3738 -35.2926 Q-104.6394 -35.3786 -105.1394 -35.3786 L-105.1394 -35.9411 L-101.8425 -35.9411 L-101.8425 -35.3786 Q-102.7956 -35.3786 -102.7956 -34.9723 Q-102.78 -34.9567 -102.78 -34.9333 Q-102.78 -34.9098 -102.78 -34.863 L-101.2331 -30.5505 L-99.905 -34.3005 L-100.1238 -34.863 Q-100.2488 -35.2067 -100.5222 -35.2926 Q-100.7956 -35.3786 -101.2956 -35.3786 L-101.2956 -35.9411 L-98.1394 -35.9411 L-98.1394 -35.3786 Q-99.0769 -35.3786 -99.0769 -34.9723 Q-99.0769 -34.9098 -99.0613 -34.863 L-97.4675 -30.3473 L-96.0144 -34.4255 Q-95.9831 -34.5505 -95.9831 -34.6598 Q-95.9831 -34.988 -96.2644 -35.1833 Q-96.5456 -35.3786 -96.905 -35.3786 L-96.905 -35.9411 L-94.1863 -35.9411 L-94.1863 -35.3786 Q-94.6706 -35.3786 -95.0144 -35.1208 Q-95.3581 -34.863 -95.53 -34.4255 L-97.4363 -29.0348 Q-97.4831 -28.8473 -97.6706 -28.8473 L-97.7956 -28.8473 Q-97.9831 -28.8473 -98.0456 -29.0348 L-99.655 -33.5973 L-101.28 -29.0348 Q-101.3581 -28.8473 -101.53 -28.8473 L-101.6394 -28.8473 Q-101.8425 -28.8473 -101.8894 -29.0348 Z"
         id="path155" />
      <path
         style="stroke:none;"
         d="M-84.8221 -26.7197 Q-86.1033 -27.7353 -87.0252 -29.04 Q-87.9471 -30.3447 -88.5408 -31.829 Q-89.1346 -33.3134 -89.4236 -34.9306 Q-89.7127 -36.5478 -89.7127 -38.1728 Q-89.7127 -39.829 -89.4236 -41.4462 Q-89.1346 -43.0634 -88.533 -44.5556 Q-87.9314 -46.0478 -86.9939 -47.3525 Q-86.0564 -48.6572 -84.8221 -49.6259 Q-84.8221 -49.6728 -84.6971 -49.6728 L-84.4939 -49.6728 Q-84.4158 -49.6728 -84.3611 -49.6103 Q-84.3064 -49.5478 -84.3064 -49.4697 Q-84.3064 -49.3759 -84.3533 -49.329 Q-85.4783 -48.2197 -86.2283 -46.9619 Q-86.9783 -45.704 -87.4314 -44.2822 Q-87.8846 -42.8603 -88.0877 -41.3447 Q-88.2908 -39.829 -88.2908 -38.1728 Q-88.2908 -30.8603 -84.3846 -27.0634 Q-84.3064 -27.0009 -84.3064 -26.8759 Q-84.3064 -26.8134 -84.3689 -26.7431 Q-84.4314 -26.6728 -84.4939 -26.6728 L-84.6971 -26.6728 Q-84.8221 -26.6728 -84.8221 -26.7197 Z"
         id="path157" />
      <path
         style="stroke:none;"
         d="M-82.1008 -32.7197 Q-82.1008 -32.7822 -82.0618 -32.9306 Q-82.0227 -33.079 -81.9602 -33.1572 Q-81.8977 -33.2353 -81.7883 -33.2353 Q-79.804 -33.2353 -79.1633 -33.3447 Q-78.554 -33.5009 -78.429 -34.0009 L-75.2727 -46.6415 Q-75.179 -46.9228 -75.179 -47.1415 Q-75.179 -47.329 -75.9915 -47.329 L-77.3196 -47.329 Q-78.8665 -47.329 -79.7024 -46.8525 Q-80.5383 -46.3759 -80.929 -45.6025 Q-81.3196 -44.829 -81.9446 -43.0634 Q-82.0227 -42.8603 -82.179 -42.8603 L-82.3821 -42.8603 Q-82.6165 -42.8603 -82.6165 -43.1572 L-80.9758 -47.9228 Q-80.929 -48.1415 -80.7415 -48.1415 L-67.1633 -48.1415 Q-66.929 -48.1415 -66.929 -47.829 L-67.6946 -43.0634 Q-67.6946 -43.0009 -67.7727 -42.9306 Q-67.8508 -42.8603 -67.9133 -42.8603 L-68.1321 -42.8603 Q-68.3508 -42.8603 -68.3508 -43.1572 Q-68.1008 -44.7822 -68.1008 -45.454 Q-68.1008 -46.2665 -68.4368 -46.6806 Q-68.7727 -47.0947 -69.3118 -47.2119 Q-69.8508 -47.329 -70.7258 -47.329 L-72.0852 -47.329 Q-72.6946 -47.329 -72.9055 -47.2119 Q-73.1165 -47.0947 -73.2727 -46.5322 L-76.429 -33.9228 Q-76.429 -33.8759 -76.4368 -33.829 Q-76.4446 -33.7822 -76.4758 -33.7197 Q-76.4758 -33.4228 -76.1165 -33.3447 Q-75.5227 -33.2353 -73.5696 -33.2353 Q-73.3508 -33.2353 -73.3508 -32.9228 Q-73.429 -32.6103 -73.4758 -32.5165 Q-73.5227 -32.4228 -73.7258 -32.4228 L-81.8665 -32.4228 Q-82.1008 -32.4228 -82.1008 -32.7197 Z"
         id="path159" />
      <path
         style="stroke:none;"
         d="M-65.3272 -26.6728 Q-65.5303 -26.6728 -65.5303 -26.8759 Q-65.5303 -26.9697 -65.4835 -27.0165 Q-61.5616 -30.8603 -61.5616 -38.1728 Q-61.5616 -45.4853 -65.4522 -49.2822 Q-65.5303 -49.329 -65.5303 -49.4697 Q-65.5303 -49.5478 -65.4678 -49.6103 Q-65.4053 -49.6728 -65.3272 -49.6728 L-65.1241 -49.6728 Q-65.046 -49.6728 -65.0147 -49.6259 Q-63.3585 -48.329 -62.2569 -46.4619 Q-61.1553 -44.5947 -60.6475 -42.4853 Q-60.1397 -40.3759 -60.1397 -38.1728 Q-60.1397 -36.5478 -60.4131 -34.9697 Q-60.6866 -33.3915 -61.2881 -31.8603 Q-61.8897 -30.329 -62.8116 -29.0322 Q-63.7335 -27.7353 -65.0147 -26.7197 Q-65.046 -26.6728 -65.1241 -26.6728 L-65.3272 -26.6728 Z"
         id="path161" />
      <path
         style="stroke:none;"
         d="M-55.6997 -37.7197 Q-55.8872 -37.7197 -56.0122 -37.8603 Q-56.1372 -38.0009 -56.1372 -38.1728 Q-56.1372 -38.3447 -56.0122 -38.4853 Q-55.8872 -38.6259 -55.6997 -38.6259 L-42.4966 -38.6259 Q-42.3247 -38.6259 -42.2075 -38.4853 Q-42.0903 -38.3447 -42.0903 -38.1728 Q-42.0903 -38.0009 -42.2075 -37.8603 Q-42.3247 -37.7197 -42.4966 -37.7197 L-55.6997 -37.7197 Z"
         id="path163" />
      <path
         style="stroke:none;"
         d="M-40.0854 -33.454 Q-40.0854 -33.8603 -39.4291 -34.2509 Q-38.7729 -34.6415 -38.3354 -34.6728 L-38.1948 -34.6728 Q-38.1166 -34.6415 -37.8198 -34.1494 Q-37.5229 -33.6572 -37.0932 -33.3369 Q-36.6635 -33.0165 -35.8666 -33.0165 Q-35.7104 -33.2197 -35.601 -33.4072 Q-33.9448 -36.4697 -32.7885 -39.6415 Q-32.1635 -41.3759 -31.6635 -43.2197 Q-31.1635 -45.0634 -30.8823 -46.7822 L-31.851 -46.7822 Q-34.1479 -46.7822 -34.7416 -44.6259 Q-34.976 -44.2197 -35.4838 -43.9228 Q-35.9916 -43.6259 -36.476 -43.579 L-36.6166 -43.579 Q-36.7729 -43.6728 -36.7729 -43.8134 Q-36.4291 -45.0322 -35.3979 -46.0244 Q-34.3666 -47.0165 -33.0073 -47.579 Q-31.6479 -48.1415 -30.3823 -48.1415 L-23.6479 -48.1415 Q-21.4135 -48.1415 -21.4135 -47.2509 Q-21.4135 -46.7509 -22.0151 -46.3447 Q-22.6166 -45.9384 -23.2104 -45.8759 L-23.3198 -45.8759 Q-23.4916 -45.9697 -23.4916 -46.0165 Q-23.476 -46.079 -23.4604 -46.1572 Q-23.4448 -46.2353 -23.4448 -46.2665 Q-23.4448 -46.7822 -25.3666 -46.7822 L-28.9916 -46.7822 Q-29.6479 -43.5478 -30.6791 -40.704 L-24.8823 -40.704 Q-24.726 -40.6259 -24.726 -40.5009 Q-24.8666 -39.954 -25.4057 -39.5634 Q-25.9448 -39.1728 -26.5385 -39.1103 L-26.6791 -39.1103 Q-26.8354 -39.204 -26.8354 -39.2978 L-26.8354 -39.3447 L-31.1948 -39.3447 Q-32.1948 -36.7509 -33.5854 -34.204 Q-34.1479 -33.1728 -35.2026 -32.415 Q-36.2573 -31.6572 -37.3198 -31.6572 L-37.4448 -31.6572 Q-38.3354 -31.6572 -39.0541 -32.1337 Q-39.7729 -32.6103 -40.0854 -33.454 Z"
         id="path165" />
      <path
         style="stroke:none;"
         d="M-20.695 -29.0348 L-22.7732 -34.863 Q-22.9138 -35.2067 -23.1794 -35.2926 Q-23.445 -35.3786 -23.945 -35.3786 L-23.945 -35.9411 L-20.6482 -35.9411 L-20.6482 -35.3786 Q-21.6013 -35.3786 -21.6013 -34.9723 Q-21.5857 -34.9567 -21.5857 -34.9333 Q-21.5857 -34.9098 -21.5857 -34.863 L-20.0388 -30.5505 L-18.7107 -34.3005 L-18.9294 -34.863 Q-19.0544 -35.2067 -19.3278 -35.2926 Q-19.6013 -35.3786 -20.1013 -35.3786 L-20.1013 -35.9411 L-16.945 -35.9411 L-16.945 -35.3786 Q-17.8825 -35.3786 -17.8825 -34.9723 Q-17.8825 -34.9098 -17.8669 -34.863 L-16.2732 -30.3473 L-14.82 -34.4255 Q-14.7888 -34.5505 -14.7888 -34.6598 Q-14.7888 -34.988 -15.07 -35.1833 Q-15.3513 -35.3786 -15.7107 -35.3786 L-15.7107 -35.9411 L-12.9919 -35.9411 L-12.9919 -35.3786 Q-13.4763 -35.3786 -13.82 -35.1208 Q-14.1638 -34.863 -14.3357 -34.4255 L-16.2419 -29.0348 Q-16.2888 -28.8473 -16.4763 -28.8473 L-16.6013 -28.8473 Q-16.7888 -28.8473 -16.8513 -29.0348 L-18.4607 -33.5973 L-20.0857 -29.0348 Q-20.1638 -28.8473 -20.3357 -28.8473 L-20.445 -28.8473 Q-20.6482 -28.8473 -20.695 -29.0348 Z"
         id="path167" />
      <path
         style="stroke:none;"
         d="M-3.6277 -26.7197 Q-4.9089 -27.7353 -5.8308 -29.04 Q-6.7527 -30.3447 -7.3464 -31.829 Q-7.9402 -33.3134 -8.2292 -34.9306 Q-8.5183 -36.5478 -8.5183 -38.1728 Q-8.5183 -39.829 -8.2292 -41.4462 Q-7.9402 -43.0634 -7.3386 -44.5556 Q-6.7371 -46.0478 -5.7996 -47.3525 Q-4.8621 -48.6572 -3.6277 -49.6259 Q-3.6277 -49.6728 -3.5027 -49.6728 L-3.2996 -49.6728 Q-3.2214 -49.6728 -3.1667 -49.6103 Q-3.1121 -49.5478 -3.1121 -49.4697 Q-3.1121 -49.3759 -3.1589 -49.329 Q-4.2839 -48.2197 -5.0339 -46.9619 Q-5.7839 -45.704 -6.2371 -44.2822 Q-6.6902 -42.8603 -6.8933 -41.3447 Q-7.0964 -39.829 -7.0964 -38.1728 Q-7.0964 -30.8603 -3.1902 -27.0634 Q-3.1121 -27.0009 -3.1121 -26.8759 Q-3.1121 -26.8134 -3.1746 -26.7431 Q-3.2371 -26.6728 -3.2996 -26.6728 L-3.5027 -26.6728 Q-3.6277 -26.6728 -3.6277 -26.7197 Z"
         id="path169" />
      <path
         style="stroke:none;"
         d="M0.1717 -32.4228 L0.1717 -33.2353 Q3.0467 -33.2353 3.0467 -33.954 L3.0467 -46.0322 Q1.8435 -45.454 0.031 -45.454 L0.031 -46.2665 Q2.8435 -46.2665 4.281 -47.7353 L4.6092 -47.7353 Q4.6873 -47.7353 4.7654 -47.6728 Q4.8435 -47.6103 4.8435 -47.5322 L4.8435 -33.954 Q4.8435 -33.2353 7.7185 -33.2353 L7.7185 -32.4228 L0.1717 -32.4228 Z"
         id="path171" />
      <path
         style="stroke:none;"
         d="M10.8244 -26.6728 Q10.6213 -26.6728 10.6213 -26.8759 Q10.6213 -26.9697 10.6681 -27.0165 Q14.59 -30.8603 14.59 -38.1728 Q14.59 -45.4853 10.6994 -49.2822 Q10.6213 -49.329 10.6213 -49.4697 Q10.6213 -49.5478 10.6838 -49.6103 Q10.7463 -49.6728 10.8244 -49.6728 L11.0275 -49.6728 Q11.1056 -49.6728 11.1369 -49.6259 Q12.7931 -48.329 13.8947 -46.4619 Q14.9963 -44.5947 15.5041 -42.4853 Q16.0119 -40.3759 16.0119 -38.1728 Q16.0119 -36.5478 15.7384 -34.9697 Q15.465 -33.3915 14.8634 -31.8603 Q14.2619 -30.329 13.34 -29.0322 Q12.4181 -27.7353 11.1369 -26.7197 Q11.1056 -26.6728 11.0275 -26.6728 L10.8244 -26.6728 Z"
         id="path173" />
      <rect
         x="-121.6704"
         width="139.7785"
         height="1.2906"
         y="-25.4855"
         style="stroke:none;"
         id="rect175" />
      <path
         style="stroke:none;"
         d="M-118.7583 -6.678 Q-118.7583 -7.0842 -118.1021 -7.4748 Q-117.4458 -7.8655 -117.0083 -7.8967 L-116.8677 -7.8967 Q-116.7896 -7.8655 -116.4927 -7.3733 Q-116.1958 -6.8811 -115.7662 -6.5608 Q-115.3365 -6.2405 -114.5396 -6.2405 Q-114.3833 -6.4436 -114.274 -6.6311 Q-112.6177 -9.6936 -111.4615 -12.8655 Q-110.8365 -14.5998 -110.3365 -16.4436 Q-109.8365 -18.2873 -109.5552 -20.0061 L-110.524 -20.0061 Q-112.8208 -20.0061 -113.4146 -17.8498 Q-113.649 -17.4436 -114.1568 -17.1467 Q-114.6646 -16.8498 -115.149 -16.803 L-115.2896 -16.803 Q-115.4458 -16.8967 -115.4458 -17.0373 Q-115.1021 -18.2561 -114.0708 -19.2483 Q-113.0396 -20.2405 -111.6802 -20.803 Q-110.3208 -21.3655 -109.0552 -21.3655 L-102.3208 -21.3655 Q-100.0865 -21.3655 -100.0865 -20.4748 Q-100.0865 -19.9748 -100.688 -19.5686 Q-101.2896 -19.1623 -101.8833 -19.0998 L-101.9927 -19.0998 Q-102.1646 -19.1936 -102.1646 -19.2405 Q-102.149 -19.303 -102.1333 -19.3811 Q-102.1177 -19.4592 -102.1177 -19.4905 Q-102.1177 -20.0061 -104.0396 -20.0061 L-107.6646 -20.0061 Q-108.3208 -16.7717 -109.3521 -13.928 L-103.5552 -13.928 Q-103.399 -13.8498 -103.399 -13.7248 Q-103.5396 -13.178 -104.0787 -12.7873 Q-104.6177 -12.3967 -105.2115 -12.3342 L-105.3521 -12.3342 Q-105.5083 -12.428 -105.5083 -12.5217 L-105.5083 -12.5686 L-109.8677 -12.5686 Q-110.8677 -9.9748 -112.2583 -7.428 Q-112.8208 -6.3967 -113.8755 -5.6389 Q-114.9302 -4.8811 -115.9927 -4.8811 L-116.1177 -4.8811 Q-117.0083 -4.8811 -117.7271 -5.3577 Q-118.4458 -5.8342 -118.7583 -6.678 Z"
         id="path177" />
      <path
         style="stroke:none;"
         d="M-99.368 -2.2588 L-101.4461 -8.0869 Q-101.5867 -8.4306 -101.8523 -8.5166 Q-102.118 -8.6025 -102.618 -8.6025 L-102.618 -9.165 L-99.3211 -9.165 L-99.3211 -8.6025 Q-100.2742 -8.6025 -100.2742 -8.1963 Q-100.2586 -8.1806 -100.2586 -8.1572 Q-100.2586 -8.1338 -100.2586 -8.0869 L-98.7117 -3.7744 L-97.3836 -7.5244 L-97.6023 -8.0869 Q-97.7273 -8.4306 -98.0008 -8.5166 Q-98.2742 -8.6025 -98.7742 -8.6025 L-98.7742 -9.165 L-95.618 -9.165 L-95.618 -8.6025 Q-96.5555 -8.6025 -96.5555 -8.1963 Q-96.5555 -8.1338 -96.5398 -8.0869 L-94.9461 -3.5713 L-93.493 -7.6494 Q-93.4617 -7.7744 -93.4617 -7.8838 Q-93.4617 -8.2119 -93.743 -8.4072 Q-94.0242 -8.6025 -94.3836 -8.6025 L-94.3836 -9.165 L-91.6648 -9.165 L-91.6648 -8.6025 Q-92.1492 -8.6025 -92.493 -8.3447 Q-92.8367 -8.0869 -93.0086 -7.6494 L-94.9148 -2.2588 Q-94.9617 -2.0713 -95.1492 -2.0713 L-95.2742 -2.0713 Q-95.4617 -2.0713 -95.5242 -2.2588 L-97.1336 -6.8213 L-98.7586 -2.2588 Q-98.8367 -2.0713 -99.0086 -2.0713 L-99.118 -2.0713 Q-99.3211 -2.0713 -99.368 -2.2588 Z"
         id="path179" />
      <path
         style="stroke:none;"
         d="M-82.3006 0.0564 Q-83.5819 -0.9592 -84.5038 -2.2639 Q-85.4256 -3.5686 -86.0194 -5.053 Q-86.6131 -6.5373 -86.9022 -8.1545 Q-87.1913 -9.7717 -87.1913 -11.3967 Q-87.1913 -13.053 -86.9022 -14.6702 Q-86.6131 -16.2873 -86.0116 -17.7795 Q-85.41 -19.2717 -84.4725 -20.5764 Q-83.535 -21.8811 -82.3006 -22.8498 Q-82.3006 -22.8967 -82.1756 -22.8967 L-81.9725 -22.8967 Q-81.8944 -22.8967 -81.8397 -22.8342 Q-81.785 -22.7717 -81.785 -22.6936 Q-81.785 -22.5998 -81.8319 -22.553 Q-82.9569 -21.4436 -83.7069 -20.1858 Q-84.4569 -18.928 -84.91 -17.5061 Q-85.3631 -16.0842 -85.5663 -14.5686 Q-85.7694 -13.053 -85.7694 -11.3967 Q-85.7694 -4.0842 -81.8631 -0.2873 Q-81.785 -0.2248 -81.785 -0.0998 Q-81.785 -0.0373 -81.8475 0.033 Q-81.91 0.1033 -81.9725 0.1033 L-82.1756 0.1033 Q-82.3006 0.1033 -82.3006 0.0564 Z"
         id="path181" />
      <path
         style="stroke:none;"
         d="M-74.8919 -5.1467 Q-77.7044 -5.1467 -78.72 -7.467 Q-79.7357 -9.7873 -79.7357 -12.9748 Q-79.7357 -14.9748 -79.3763 -16.7405 Q-79.0169 -18.5061 -77.931 -19.7327 Q-76.845 -20.9592 -74.8919 -20.9592 Q-73.3763 -20.9592 -72.4075 -20.2248 Q-71.4388 -19.4905 -70.9388 -18.3108 Q-70.4388 -17.1311 -70.2513 -15.7952 Q-70.0638 -14.4592 -70.0638 -12.9748 Q-70.0638 -11.0061 -70.431 -9.2795 Q-70.7982 -7.553 -71.8607 -6.3498 Q-72.9232 -5.1467 -74.8919 -5.1467 ZM-74.8919 -5.7405 Q-73.6107 -5.7405 -72.9857 -7.053 Q-72.3607 -8.3655 -72.2122 -9.9592 Q-72.0638 -11.553 -72.0638 -13.3498 Q-72.0638 -15.0842 -72.2122 -16.5452 Q-72.3607 -18.0061 -72.9778 -19.1858 Q-73.595 -20.3655 -74.8919 -20.3655 Q-76.1888 -20.3655 -76.8216 -19.178 Q-77.4544 -17.9905 -77.6028 -16.5373 Q-77.7513 -15.0842 -77.7513 -13.3498 Q-77.7513 -12.0686 -77.6888 -10.9358 Q-77.6263 -9.803 -77.3528 -8.592 Q-77.0794 -7.3811 -76.4778 -6.5608 Q-75.8763 -5.7405 -74.8919 -5.7405 Z"
         id="path183" />
      <path
         style="stroke:none;"
         d="M-67.8486 0.1033 Q-68.0517 0.1033 -68.0517 -0.0998 Q-68.0517 -0.1936 -68.0048 -0.2405 Q-64.0829 -4.0842 -64.0829 -11.3967 Q-64.0829 -18.7092 -67.9736 -22.5061 Q-68.0517 -22.553 -68.0517 -22.6936 Q-68.0517 -22.7717 -67.9892 -22.8342 Q-67.9267 -22.8967 -67.8486 -22.8967 L-67.6454 -22.8967 Q-67.5673 -22.8967 -67.5361 -22.8498 Q-65.8798 -21.553 -64.7783 -19.6858 Q-63.6767 -17.8186 -63.1689 -15.7092 Q-62.6611 -13.5998 -62.6611 -11.3967 Q-62.6611 -9.7717 -62.9345 -8.1936 Q-63.2079 -6.6155 -63.8095 -5.0842 Q-64.4111 -3.553 -65.3329 -2.2561 Q-66.2548 -0.9592 -67.5361 0.0564 Q-67.5673 0.1033 -67.6454 0.1033 L-67.8486 0.1033 Z"
         id="path185" />
      <path
         style="stroke:none;"
         d="M-58.2211 -10.9436 Q-58.4086 -10.9436 -58.5336 -11.0842 Q-58.6586 -11.2248 -58.6586 -11.3967 Q-58.6586 -11.5686 -58.5336 -11.7092 Q-58.4086 -11.8498 -58.2211 -11.8498 L-45.018 -11.8498 Q-44.8461 -11.8498 -44.7289 -11.7092 Q-44.6117 -11.5686 -44.6117 -11.3967 Q-44.6117 -11.2248 -44.7289 -11.0842 Q-44.8461 -10.9436 -45.018 -10.9436 L-58.2211 -10.9436 Z"
         id="path187" />
      <path
         style="stroke:none;"
         d="M-42.6068 -6.678 Q-42.6068 -7.0842 -41.9505 -7.4748 Q-41.2943 -7.8655 -40.8568 -7.8967 L-40.7161 -7.8967 Q-40.638 -7.8655 -40.3411 -7.3733 Q-40.0443 -6.8811 -39.6146 -6.5608 Q-39.1849 -6.2405 -38.388 -6.2405 Q-38.2318 -6.4436 -38.1224 -6.6311 Q-36.4661 -9.6936 -35.3099 -12.8655 Q-34.6849 -14.5998 -34.1849 -16.4436 Q-33.6849 -18.2873 -33.4036 -20.0061 L-34.3724 -20.0061 Q-36.6693 -20.0061 -37.263 -17.8498 Q-37.4974 -17.4436 -38.0052 -17.1467 Q-38.513 -16.8498 -38.9974 -16.803 L-39.138 -16.803 Q-39.2943 -16.8967 -39.2943 -17.0373 Q-38.9505 -18.2561 -37.9193 -19.2483 Q-36.888 -20.2405 -35.5286 -20.803 Q-34.1693 -21.3655 -32.9036 -21.3655 L-26.1693 -21.3655 Q-23.9349 -21.3655 -23.9349 -20.4748 Q-23.9349 -19.9748 -24.5365 -19.5686 Q-25.138 -19.1623 -25.7318 -19.0998 L-25.8411 -19.0998 Q-26.013 -19.1936 -26.013 -19.2405 Q-25.9974 -19.303 -25.9818 -19.3811 Q-25.9661 -19.4592 -25.9661 -19.4905 Q-25.9661 -20.0061 -27.888 -20.0061 L-31.513 -20.0061 Q-32.1693 -16.7717 -33.2005 -13.928 L-27.4036 -13.928 Q-27.2474 -13.8498 -27.2474 -13.7248 Q-27.388 -13.178 -27.9271 -12.7873 Q-28.4661 -12.3967 -29.0599 -12.3342 L-29.2005 -12.3342 Q-29.3568 -12.428 -29.3568 -12.5217 L-29.3568 -12.5686 L-33.7161 -12.5686 Q-34.7161 -9.9748 -36.1068 -7.428 Q-36.6693 -6.3967 -37.724 -5.6389 Q-38.7786 -4.8811 -39.8411 -4.8811 L-39.9661 -4.8811 Q-40.8568 -4.8811 -41.5755 -5.3577 Q-42.2943 -5.8342 -42.6068 -6.678 Z"
         id="path189" />
      <path
         style="stroke:none;"
         d="M-23.2164 -2.2588 L-25.2945 -8.0869 Q-25.4352 -8.4306 -25.7008 -8.5166 Q-25.9664 -8.6025 -26.4664 -8.6025 L-26.4664 -9.165 L-23.1695 -9.165 L-23.1695 -8.6025 Q-24.1227 -8.6025 -24.1227 -8.1963 Q-24.107 -8.1806 -24.107 -8.1572 Q-24.107 -8.1338 -24.107 -8.0869 L-22.5602 -3.7744 L-21.232 -7.5244 L-21.4508 -8.0869 Q-21.5758 -8.4306 -21.8492 -8.5166 Q-22.1227 -8.6025 -22.6227 -8.6025 L-22.6227 -9.165 L-19.4664 -9.165 L-19.4664 -8.6025 Q-20.4039 -8.6025 -20.4039 -8.1963 Q-20.4039 -8.1338 -20.3883 -8.0869 L-18.7945 -3.5713 L-17.3414 -7.6494 Q-17.3102 -7.7744 -17.3102 -7.8838 Q-17.3102 -8.2119 -17.5914 -8.4072 Q-17.8727 -8.6025 -18.232 -8.6025 L-18.232 -9.165 L-15.5133 -9.165 L-15.5133 -8.6025 Q-15.9977 -8.6025 -16.3414 -8.3447 Q-16.6852 -8.0869 -16.857 -7.6494 L-18.7633 -2.2588 Q-18.8102 -2.0713 -18.9977 -2.0713 L-19.1227 -2.0713 Q-19.3102 -2.0713 -19.3727 -2.2588 L-20.982 -6.8213 L-22.607 -2.2588 Q-22.6852 -2.0713 -22.857 -2.0713 L-22.9664 -2.0713 Q-23.1695 -2.0713 -23.2164 -2.2588 Z"
         id="path191" />
      <path
         style="stroke:none;"
         d="M-6.1491 0.0564 Q-7.4303 -0.9592 -8.3522 -2.2639 Q-9.2741 -3.5686 -9.8678 -5.053 Q-10.4616 -6.5373 -10.7506 -8.1545 Q-11.0397 -9.7717 -11.0397 -11.3967 Q-11.0397 -13.053 -10.7506 -14.6702 Q-10.4616 -16.2873 -9.86 -17.7795 Q-9.2584 -19.2717 -8.3209 -20.5764 Q-7.3834 -21.8811 -6.1491 -22.8498 Q-6.1491 -22.8967 -6.0241 -22.8967 L-5.8209 -22.8967 Q-5.7428 -22.8967 -5.6881 -22.8342 Q-5.6334 -22.7717 -5.6334 -22.6936 Q-5.6334 -22.5998 -5.6803 -22.553 Q-6.8053 -21.4436 -7.5553 -20.1858 Q-8.3053 -18.928 -8.7584 -17.5061 Q-9.2116 -16.0842 -9.4147 -14.5686 Q-9.6178 -13.053 -9.6178 -11.3967 Q-9.6178 -4.0842 -5.7116 -0.2873 Q-5.6334 -0.2248 -5.6334 -0.0998 Q-5.6334 -0.0373 -5.6959 0.033 Q-5.7584 0.1033 -5.8209 0.1033 L-6.0241 0.1033 Q-6.1491 0.1033 -6.1491 0.0564 Z"
         id="path193" />
      <path
         style="stroke:none;"
         d="M-2.3497 -5.6467 L-2.3497 -6.4592 Q0.5253 -6.4592 0.5253 -7.178 L0.5253 -19.2561 Q-0.6778 -18.678 -2.4903 -18.678 L-2.4903 -19.4905 Q0.3222 -19.4905 1.7597 -20.9592 L2.0878 -20.9592 Q2.1659 -20.9592 2.244 -20.8967 Q2.3222 -20.8342 2.3222 -20.7561 L2.3222 -7.178 Q2.3222 -6.4592 5.1972 -6.4592 L5.1972 -5.6467 L-2.3497 -5.6467 Z"
         id="path195" />
      <path
         style="stroke:none;"
         d="M8.303 0.1033 Q8.0999 0.1033 8.0999 -0.0998 Q8.0999 -0.1936 8.1468 -0.2405 Q12.0686 -4.0842 12.0686 -11.3967 Q12.0686 -18.7092 8.178 -22.5061 Q8.0999 -22.553 8.0999 -22.6936 Q8.0999 -22.7717 8.1624 -22.8342 Q8.2249 -22.8967 8.303 -22.8967 L8.5061 -22.8967 Q8.5843 -22.8967 8.6155 -22.8498 Q10.2718 -21.553 11.3733 -19.6858 Q12.4749 -17.8186 12.9827 -15.7092 Q13.4905 -13.5998 13.4905 -11.3967 Q13.4905 -9.7717 13.2171 -8.1936 Q12.9436 -6.6155 12.3421 -5.0842 Q11.7405 -3.553 10.8186 -2.2561 Q9.8968 -0.9592 8.6155 0.0564 Q8.5843 0.1033 8.5061 0.1033 L8.303 0.1033 Z"
         id="path197" />
      <path
         style="stroke:none;"
         d="M33.8534 -17.6954 Q33.8534 -17.9454 34.0097 -18.1485 L40.6659 -24.7735 L34.0097 -31.4298 Q33.8534 -31.586 33.8534 -31.8517 Q33.8534 -32.086 34.0409 -32.2892 Q34.2284 -32.4923 34.494 -32.4923 Q34.7128 -32.4923 34.9784 -32.2892 L41.6034 -25.6642 L48.1972 -32.2892 Q48.4628 -32.4923 48.6659 -32.4923 Q48.9315 -32.4923 49.119 -32.3048 Q49.3065 -32.1173 49.3065 -31.8517 Q49.3065 -31.586 49.1503 -31.4298 L42.494 -24.7735 L49.1503 -18.1485 Q49.3065 -17.9454 49.3065 -17.6954 Q49.3065 -17.4298 49.119 -17.2423 Q48.9315 -17.0548 48.6659 -17.0548 Q48.4315 -17.0548 48.1972 -17.2892 L41.6034 -23.8829 L34.9784 -17.2892 Q34.744 -17.0548 34.494 -17.0548 Q34.2284 -17.0548 34.0409 -17.2579 Q33.8534 -17.461 33.8534 -17.6954 Z"
         id="path199" />
      <path
         style="stroke:none;"
         d="M66.4138 -32.4228 Q66.1951 -32.4228 66.1951 -32.7197 Q66.1951 -32.7822 66.2342 -32.9228 Q66.2732 -33.0634 66.3279 -33.1494 Q66.3826 -33.2353 66.4763 -33.2353 Q67.8826 -33.2353 68.4451 -33.3915 Q68.742 -33.4853 68.867 -34.0009 L72.0232 -46.6415 Q72.0701 -46.8603 72.0701 -46.954 Q72.0701 -47.204 71.8045 -47.2353 Q71.367 -47.329 70.1482 -47.329 Q69.9138 -47.329 69.9138 -47.6259 Q69.9295 -47.6884 69.9607 -47.829 Q69.992 -47.9697 70.0545 -48.0556 Q70.117 -48.1415 70.2107 -48.1415 L78.1482 -48.1415 Q79.242 -48.1415 80.2654 -47.7509 Q81.2888 -47.3603 81.9373 -46.5634 Q82.5857 -45.7665 82.5857 -44.6259 Q82.5857 -43.1728 81.5545 -42.0244 Q80.5232 -40.8759 78.992 -40.2353 Q77.4607 -39.5947 76.0232 -39.5947 L72.2888 -39.5947 L70.8826 -33.9228 Q70.8357 -33.6884 70.8357 -33.5947 Q70.8357 -33.5009 70.867 -33.4384 Q70.8982 -33.3759 70.9451 -33.3603 Q70.992 -33.3447 71.1013 -33.329 Q71.5388 -33.2353 72.7732 -33.2353 Q72.992 -33.2353 72.992 -32.9228 Q72.9138 -32.6103 72.867 -32.5165 Q72.8201 -32.4228 72.6013 -32.4228 L66.4138 -32.4228 ZM72.3982 -40.2822 L75.617 -40.2822 Q77.8513 -40.2822 79.0232 -41.4853 Q79.617 -42.079 79.992 -43.204 Q80.367 -44.329 80.367 -45.2353 Q80.367 -46.3759 79.5076 -46.8525 Q78.6482 -47.329 77.367 -47.329 L75.1638 -47.329 Q74.5388 -47.329 74.3357 -47.2197 Q74.1326 -47.1103 73.9607 -46.5322 L72.3982 -40.2822 Z"
         id="path201" />
      <path
         style="stroke:none;"
         d="M80.321 -28.988 L80.321 -31.5973 Q80.321 -31.7223 80.4617 -31.7223 L80.6648 -31.7223 Q80.7585 -31.7223 80.7898 -31.5973 Q81.2273 -29.2848 82.946 -29.2848 Q83.696 -29.2848 84.2117 -29.6286 Q84.7273 -29.9723 84.7273 -30.6911 Q84.7273 -31.2067 84.3289 -31.5661 Q83.9304 -31.9255 83.3835 -32.0661 L82.3054 -32.2692 Q81.7742 -32.3942 81.3289 -32.6364 Q80.8835 -32.8786 80.6023 -33.277 Q80.321 -33.6755 80.321 -34.2067 Q80.321 -34.9098 80.696 -35.363 Q81.071 -35.8161 81.6648 -36.0114 Q82.2585 -36.2067 82.946 -36.2067 Q83.7585 -36.2067 84.3679 -35.7692 L84.8367 -36.1755 Q84.8367 -36.2067 84.9148 -36.2067 L85.0242 -36.2067 Q85.071 -36.2067 85.1101 -36.1676 Q85.1492 -36.1286 85.1492 -36.0817 L85.1492 -33.988 Q85.1492 -33.8317 85.0242 -33.8317 L84.8367 -33.8317 Q84.696 -33.8317 84.696 -33.988 Q84.696 -34.8161 84.2273 -35.3239 Q83.7585 -35.8317 82.9304 -35.8317 Q82.2117 -35.8317 81.6804 -35.5661 Q81.1492 -35.3005 81.1492 -34.6598 Q81.1492 -34.2067 81.532 -33.9255 Q81.9148 -33.6442 82.4148 -33.5192 L83.5085 -33.3161 Q84.0554 -33.1911 84.5242 -32.8942 Q84.9929 -32.5973 85.2742 -32.1442 Q85.5554 -31.6911 85.5554 -31.113 Q85.5554 -30.5348 85.3523 -30.113 Q85.1492 -29.6911 84.7976 -29.4098 Q84.446 -29.1286 83.9617 -28.988 Q83.4773 -28.8473 82.946 -28.8473 Q81.946 -28.8473 81.2273 -29.5348 L80.6492 -28.8942 Q80.6492 -28.8473 80.5554 -28.8473 L80.4617 -28.8473 Q80.321 -28.8473 80.321 -28.988 Z"
         id="path203" />
      <path
         style="stroke:none;"
         d="M94.8918 -26.7197 Q93.6106 -27.7353 92.6887 -29.04 Q91.7668 -30.3447 91.1731 -31.829 Q90.5793 -33.3134 90.2902 -34.9306 Q90.0012 -36.5478 90.0012 -38.1728 Q90.0012 -39.829 90.2902 -41.4462 Q90.5793 -43.0634 91.1809 -44.5556 Q91.7824 -46.0478 92.7199 -47.3525 Q93.6574 -48.6572 94.8918 -49.6259 Q94.8918 -49.6728 95.0168 -49.6728 L95.2199 -49.6728 Q95.2981 -49.6728 95.3527 -49.6103 Q95.4074 -49.5478 95.4074 -49.4697 Q95.4074 -49.3759 95.3606 -49.329 Q94.2356 -48.2197 93.4856 -46.9619 Q92.7356 -45.704 92.2824 -44.2822 Q91.8293 -42.8603 91.6262 -41.3447 Q91.4231 -39.829 91.4231 -38.1728 Q91.4231 -30.8603 95.3293 -27.0634 Q95.4074 -27.0009 95.4074 -26.8759 Q95.4074 -26.8134 95.3449 -26.7431 Q95.2824 -26.6728 95.2199 -26.6728 L95.0168 -26.6728 Q94.8918 -26.6728 94.8918 -26.7197 Z"
         id="path205" />
      <path
         style="stroke:none;"
         d="M97.613 -32.7197 Q97.613 -32.7822 97.6521 -32.9306 Q97.6912 -33.079 97.7537 -33.1572 Q97.8162 -33.2353 97.9255 -33.2353 Q99.9099 -33.2353 100.5505 -33.3447 Q101.1599 -33.5009 101.2849 -34.0009 L104.4412 -46.6415 Q104.5349 -46.9228 104.5349 -47.1415 Q104.5349 -47.329 103.7224 -47.329 L102.3943 -47.329 Q100.8474 -47.329 100.0115 -46.8525 Q99.1755 -46.3759 98.7849 -45.6025 Q98.3943 -44.829 97.7693 -43.0634 Q97.6912 -42.8603 97.5349 -42.8603 L97.3318 -42.8603 Q97.0974 -42.8603 97.0974 -43.1572 L98.738 -47.9228 Q98.7849 -48.1415 98.9724 -48.1415 L112.5505 -48.1415 Q112.7849 -48.1415 112.7849 -47.829 L112.0193 -43.0634 Q112.0193 -43.0009 111.9412 -42.9306 Q111.863 -42.8603 111.8005 -42.8603 L111.5818 -42.8603 Q111.363 -42.8603 111.363 -43.1572 Q111.613 -44.7822 111.613 -45.454 Q111.613 -46.2665 111.2771 -46.6806 Q110.9412 -47.0947 110.4021 -47.2119 Q109.863 -47.329 108.988 -47.329 L107.6287 -47.329 Q107.0193 -47.329 106.8083 -47.2119 Q106.5974 -47.0947 106.4412 -46.5322 L103.2849 -33.9228 Q103.2849 -33.8759 103.2771 -33.829 Q103.2693 -33.7822 103.238 -33.7197 Q103.238 -33.4228 103.5974 -33.3447 Q104.1912 -33.2353 106.1443 -33.2353 Q106.363 -33.2353 106.363 -32.9228 Q106.2849 -32.6103 106.238 -32.5165 Q106.1912 -32.4228 105.988 -32.4228 L97.8474 -32.4228 Q97.613 -32.4228 97.613 -32.7197 Z"
         id="path207" />
      <path
         style="stroke:none;"
         d="M114.3867 -26.6728 Q114.1835 -26.6728 114.1835 -26.8759 Q114.1835 -26.9697 114.2304 -27.0165 Q118.1523 -30.8603 118.1523 -38.1728 Q118.1523 -45.4853 114.2617 -49.2822 Q114.1835 -49.329 114.1835 -49.4697 Q114.1835 -49.5478 114.246 -49.6103 Q114.3085 -49.6728 114.3867 -49.6728 L114.5898 -49.6728 Q114.6679 -49.6728 114.6992 -49.6259 Q116.3554 -48.329 117.457 -46.4619 Q118.5585 -44.5947 119.0664 -42.4853 Q119.5742 -40.3759 119.5742 -38.1728 Q119.5742 -36.5478 119.3007 -34.9697 Q119.0273 -33.3915 118.4257 -31.8603 Q117.8242 -30.329 116.9023 -29.0322 Q115.9804 -27.7353 114.6992 -26.7197 Q114.6679 -26.6728 114.5898 -26.6728 L114.3867 -26.6728 Z"
         id="path209" />
      <rect
         x="65.2888"
         width="56.3815"
         height="1.2906"
         y="-25.4855"
         style="stroke:none;"
         id="rect211" />
      <path
         style="stroke:none;"
         d="M68.9353 -5.6467 Q68.7165 -5.6467 68.7165 -5.9436 Q68.7165 -6.0061 68.7556 -6.1467 Q68.7946 -6.2873 68.8493 -6.3733 Q68.904 -6.4592 68.9978 -6.4592 Q70.404 -6.4592 70.9665 -6.6155 Q71.2634 -6.7092 71.3884 -7.2248 L74.5446 -19.8655 Q74.5915 -20.0842 74.5915 -20.178 Q74.5915 -20.428 74.3259 -20.4592 Q73.8884 -20.553 72.6696 -20.553 Q72.4353 -20.553 72.4353 -20.8498 Q72.4509 -20.9123 72.4821 -21.053 Q72.5134 -21.1936 72.5759 -21.2795 Q72.6384 -21.3655 72.7321 -21.3655 L80.6696 -21.3655 Q81.7634 -21.3655 82.7868 -20.9748 Q83.8103 -20.5842 84.4587 -19.7873 Q85.1071 -18.9905 85.1071 -17.8498 Q85.1071 -16.3967 84.0759 -15.2483 Q83.0446 -14.0998 81.5134 -13.4592 Q79.9821 -12.8186 78.5446 -12.8186 L74.8103 -12.8186 L73.404 -7.1467 Q73.3571 -6.9123 73.3571 -6.8186 Q73.3571 -6.7248 73.3884 -6.6623 Q73.4196 -6.5998 73.4665 -6.5842 Q73.5134 -6.5686 73.6228 -6.553 Q74.0603 -6.4592 75.2946 -6.4592 Q75.5134 -6.4592 75.5134 -6.1467 Q75.4353 -5.8342 75.3884 -5.7405 Q75.3415 -5.6467 75.1228 -5.6467 L68.9353 -5.6467 ZM74.9196 -13.5061 L78.1384 -13.5061 Q80.3728 -13.5061 81.5446 -14.7092 Q82.1384 -15.303 82.5134 -16.428 Q82.8884 -17.553 82.8884 -18.4592 Q82.8884 -19.5998 82.029 -20.0764 Q81.1696 -20.553 79.8884 -20.553 L77.6853 -20.553 Q77.0603 -20.553 76.8571 -20.4436 Q76.654 -20.3342 76.4821 -19.7561 L74.9196 -13.5061 Z"
         id="path213" />
      <path
         style="stroke:none;"
         d="M82.8425 -2.2119 L82.8425 -4.8213 Q82.8425 -4.9463 82.9831 -4.9463 L83.1862 -4.9463 Q83.28 -4.9463 83.3112 -4.8213 Q83.7487 -2.5088 85.4675 -2.5088 Q86.2175 -2.5088 86.7331 -2.8525 Q87.2487 -3.1963 87.2487 -3.915 Q87.2487 -4.4306 86.8503 -4.79 Q86.4518 -5.1494 85.905 -5.29 L84.8268 -5.4931 Q84.2956 -5.6181 83.8503 -5.8603 Q83.405 -6.1025 83.1237 -6.5009 Q82.8425 -6.8994 82.8425 -7.4306 Q82.8425 -8.1338 83.2175 -8.5869 Q83.5925 -9.04 84.1862 -9.2353 Q84.78 -9.4306 85.4675 -9.4306 Q86.28 -9.4306 86.8893 -8.9931 L87.3581 -9.3994 Q87.3581 -9.4306 87.4362 -9.4306 L87.5456 -9.4306 Q87.5925 -9.4306 87.6315 -9.3916 Q87.6706 -9.3525 87.6706 -9.3056 L87.6706 -7.2119 Q87.6706 -7.0556 87.5456 -7.0556 L87.3581 -7.0556 Q87.2175 -7.0556 87.2175 -7.2119 Q87.2175 -8.04 86.7487 -8.5478 Q86.28 -9.0556 85.4518 -9.0556 Q84.7331 -9.0556 84.2018 -8.79 Q83.6706 -8.5244 83.6706 -7.8838 Q83.6706 -7.4306 84.0534 -7.1494 Q84.4362 -6.8681 84.9362 -6.7431 L86.03 -6.54 Q86.5768 -6.415 87.0456 -6.1181 Q87.5143 -5.8213 87.7956 -5.3681 Q88.0768 -4.915 88.0768 -4.3369 Q88.0768 -3.7588 87.8737 -3.3369 Q87.6706 -2.915 87.319 -2.6338 Q86.9675 -2.3525 86.4831 -2.2119 Q85.9987 -2.0713 85.4675 -2.0713 Q84.4675 -2.0713 83.7487 -2.7588 L83.1706 -2.1181 Q83.1706 -2.0713 83.0768 -2.0713 L82.9831 -2.0713 Q82.8425 -2.0713 82.8425 -2.2119 Z"
         id="path215" />
      <path
         style="stroke:none;"
         d="M97.4132 0.0564 Q96.132 -0.9592 95.2101 -2.2639 Q94.2882 -3.5686 93.6945 -5.053 Q93.1007 -6.5373 92.8117 -8.1545 Q92.5226 -9.7717 92.5226 -11.3967 Q92.5226 -13.053 92.8117 -14.6702 Q93.1007 -16.2873 93.7023 -17.7795 Q94.3039 -19.2717 95.2414 -20.5764 Q96.1789 -21.8811 97.4132 -22.8498 Q97.4132 -22.8967 97.5382 -22.8967 L97.7414 -22.8967 Q97.8195 -22.8967 97.8742 -22.8342 Q97.9289 -22.7717 97.9289 -22.6936 Q97.9289 -22.5998 97.882 -22.553 Q96.757 -21.4436 96.007 -20.1858 Q95.257 -18.928 94.8039 -17.5061 Q94.3507 -16.0842 94.1476 -14.5686 Q93.9445 -13.053 93.9445 -11.3967 Q93.9445 -4.0842 97.8507 -0.2873 Q97.9289 -0.2248 97.9289 -0.0998 Q97.9289 -0.0373 97.8664 0.033 Q97.8039 0.1033 97.7414 0.1033 L97.5382 0.1033 Q97.4132 0.1033 97.4132 0.0564 Z"
         id="path217" />
      <path
         style="stroke:none;"
         d="M101.2126 -5.6467 L101.2126 -6.4592 Q104.0876 -6.4592 104.0876 -7.178 L104.0876 -19.2561 Q102.8845 -18.678 101.072 -18.678 L101.072 -19.4905 Q103.8845 -19.4905 105.322 -20.9592 L105.6501 -20.9592 Q105.7282 -20.9592 105.8063 -20.8967 Q105.8845 -20.8342 105.8845 -20.7561 L105.8845 -7.178 Q105.8845 -6.4592 108.7595 -6.4592 L108.7595 -5.6467 L101.2126 -5.6467 Z"
         id="path219" />
      <path
         style="stroke:none;"
         d="M111.8653 0.1033 Q111.6622 0.1033 111.6622 -0.0998 Q111.6622 -0.1936 111.709 -0.2405 Q115.6309 -4.0842 115.6309 -11.3967 Q115.6309 -18.7092 111.7403 -22.5061 Q111.6622 -22.553 111.6622 -22.6936 Q111.6622 -22.7717 111.7247 -22.8342 Q111.7872 -22.8967 111.8653 -22.8967 L112.0684 -22.8967 Q112.1465 -22.8967 112.1778 -22.8498 Q113.834 -21.553 114.9356 -19.6858 Q116.0372 -17.8186 116.545 -15.7092 Q117.0528 -13.5998 117.0528 -11.3967 Q117.0528 -9.7717 116.7794 -8.1936 Q116.5059 -6.6155 115.9044 -5.0842 Q115.3028 -3.553 114.3809 -2.2561 Q113.459 -0.9592 112.1778 0.0564 Q112.1465 0.1033 112.0684 0.1033 L111.8653 0.1033 Z"
         id="path221" />
    </g>
    <g
       style="stroke-linecap:butt; text-rendering:geometricPrecision; image-rendering:optimizeQuality; color-rendering:optimizeQuality; stroke-linejoin:bevel; stroke-dasharray:1,3; color-interpolation:linearRGB; stroke-width:1.3333; stroke-miterlimit:1;"
       id="g229">
      <path
         d="M103.83 335.9872 L127.7385 333.7625 L151.647 324.6591 L175.5555 307.3585 L199.464 282.8772 L223.3725 254.2145 L247.281 224.0699 L271.1895 195.1366 L295.098 170.0427 L319.0065 149.9733 L342.915 136.9777 L366.8235 132.3935 L390.732 135.1863 L414.6405 143.5944 L438.549 159.975 L462.4575 182.2253 L486.366 208.4999 L510.2745 237.9111 L534.183 269.0405 L558.0915 302.5379 L582 336"
         style="fill:none; fill-rule:evenodd;"
         id="path225" />
      <circle
         r="1.3333"
         style="stroke:none;"
         cx="0"
         transform="translate(103.83,335.9872)"
         cy="0"
         id="circle227" />
    </g>
    <g
       transform="translate(127.7385,333.7625)"
       style="stroke-linecap:butt; text-rendering:geometricPrecision; image-rendering:optimizeQuality; color-rendering:optimizeQuality; stroke-linejoin:bevel; stroke-dasharray:1,3; color-interpolation:linearRGB; stroke-width:1.3333; stroke-miterlimit:1;"
       id="g233">
      <circle
         r="1.3333"
         style="stroke:none;"
         cx="0"
         cy="0"
         id="circle231" />
    </g>
    <g
       transform="translate(151.647,324.6591)"
       style="stroke-linecap:butt; text-rendering:geometricPrecision; image-rendering:optimizeQuality; color-rendering:optimizeQuality; stroke-linejoin:bevel; stroke-dasharray:1,3; color-interpolation:linearRGB; stroke-width:1.3333; stroke-miterlimit:1;"
       id="g237">
      <circle
         r="1.3333"
         style="stroke:none;"
         cx="0"
         cy="0"
         id="circle235" />
    </g>
    <g
       transform="translate(175.5555,307.3585)"
       style="stroke-linecap:butt; text-rendering:geometricPrecision; image-rendering:optimizeQuality; color-rendering:optimizeQuality; stroke-linejoin:bevel; stroke-dasharray:1,3; color-interpolation:linearRGB; stroke-width:1.3333; stroke-miterlimit:1;"
       id="g241">
      <circle
         r="1.3333"
         style="stroke:none;"
         cx="0"
         cy="0"
         id="circle239" />
    </g>
    <g
       transform="translate(199.464,282.8772)"
       style="stroke-linecap:butt; text-rendering:geometricPrecision; image-rendering:optimizeQuality; color-rendering:optimizeQuality; stroke-linejoin:bevel; stroke-dasharray:1,3; color-interpolation:linearRGB; stroke-width:1.3333; stroke-miterlimit:1;"
       id="g245">
      <circle
         r="1.3333"
         style="stroke:none;"
         cx="0"
         cy="0"
         id="circle243" />
    </g>
    <g
       transform="translate(223.3725,254.2145)"
       style="stroke-linecap:butt; text-rendering:geometricPrecision; image-rendering:optimizeQuality; color-rendering:optimizeQuality; stroke-linejoin:bevel; stroke-dasharray:1,3; color-interpolation:linearRGB; stroke-width:1.3333; stroke-miterlimit:1;"
       id="g249">
      <circle
         r="1.3333"
         style="stroke:none;"
         cx="0"
         cy="0"
         id="circle247" />
    </g>
    <g
       transform="translate(247.281,224.0699)"
       style="stroke-linecap:butt; text-rendering:geometricPrecision; image-rendering:optimizeQuality; color-rendering:optimizeQuality; stroke-linejoin:bevel; stroke-dasharray:1,3; color-interpolation:linearRGB; stroke-width:1.3333; stroke-miterlimit:1;"
       id="g253">
      <circle
         r="1.3333"
         style="stroke:none;"
         cx="0"
         cy="0"
         id="circle251" />
    </g>
    <g
       transform="translate(271.1895,195.1366)"
       style="stroke-linecap:butt; text-rendering:geometricPrecision; image-rendering:optimizeQuality; color-rendering:optimizeQuality; stroke-linejoin:bevel; stroke-dasharray:1,3; color-interpolation:linearRGB; stroke-width:1.3333; stroke-miterlimit:1;"
       id="g257">
      <circle
         r="1.3333"
         style="stroke:none;"
         cx="0"
         cy="0"
         id="circle255" />
    </g>
    <g
       transform="translate(295.098,170.0427)"
       style="stroke-linecap:butt; text-rendering:geometricPrecision; image-rendering:optimizeQuality; color-rendering:optimizeQuality; stroke-linejoin:bevel; stroke-dasharray:1,3; color-interpolation:linearRGB; stroke-width:1.3333; stroke-miterlimit:1;"
       id="g261">
      <circle
         r="1.3333"
         style="stroke:none;"
         cx="0"
         cy="0"
         id="circle259" />
    </g>
    <g
       transform="translate(319.0065,149.9733)"
       style="stroke-linecap:butt; text-rendering:geometricPrecision; image-rendering:optimizeQuality; color-rendering:optimizeQuality; stroke-linejoin:bevel; stroke-dasharray:1,3; color-interpolation:linearRGB; stroke-width:1.3333; stroke-miterlimit:1;"
       id="g265">
      <circle
         r="1.3333"
         style="stroke:none;"
         cx="0"
         cy="0"
         id="circle263" />
    </g>
    <g
       transform="translate(342.915,136.9777)"
       style="stroke-linecap:butt; text-rendering:geometricPrecision; image-rendering:optimizeQuality; color-rendering:optimizeQuality; stroke-linejoin:bevel; stroke-dasharray:1,3; color-interpolation:linearRGB; stroke-width:1.3333; stroke-miterlimit:1;"
       id="g269">
      <circle
         r="1.3333"
         style="stroke:none;"
         cx="0"
         cy="0"
         id="circle267" />
    </g>
    <g
       transform="translate(366.8235,132.3935)"
       style="stroke-linecap:butt; text-rendering:geometricPrecision; image-rendering:optimizeQuality; color-rendering:optimizeQuality; stroke-linejoin:bevel; stroke-dasharray:1,3; color-interpolation:linearRGB; stroke-width:1.3333; stroke-miterlimit:1;"
       id="g273">
      <circle
         r="1.3333"
         style="stroke:none;"
         cx="0"
         cy="0"
         id="circle271" />
    </g>
    <g
       transform="translate(390.732,135.1863)"
       style="stroke-linecap:butt; text-rendering:geometricPrecision; image-rendering:optimizeQuality; color-rendering:optimizeQuality; stroke-linejoin:bevel; stroke-dasharray:1,3; color-interpolation:linearRGB; stroke-width:1.3333; stroke-miterlimit:1;"
       id="g277">
      <circle
         r="1.3333"
         style="stroke:none;"
         cx="0"
         cy="0"
         id="circle275" />
    </g>
    <g
       transform="translate(414.6405,143.5944)"
       style="stroke-linecap:butt; text-rendering:geometricPrecision; image-rendering:optimizeQuality; color-rendering:optimizeQuality; stroke-linejoin:bevel; stroke-dasharray:1,3; color-interpolation:linearRGB; stroke-width:1.3333; stroke-miterlimit:1;"
       id="g281">
      <circle
         r="1.3333"
         style="stroke:none;"
         cx="0"
         cy="0"
         id="circle279" />
    </g>
    <g
       transform="translate(438.549,159.975)"
       style="stroke-linecap:butt; text-rendering:geometricPrecision; image-rendering:optimizeQuality; color-rendering:optimizeQuality; stroke-linejoin:bevel; stroke-dasharray:1,3; color-interpolation:linearRGB; stroke-width:1.3333; stroke-miterlimit:1;"
       id="g285">
      <circle
         r="1.3333"
         style="stroke:none;"
         cx="0"
         cy="0"
         id="circle283" />
    </g>
    <g
       transform="translate(462.4575,182.2253)"
       style="stroke-linecap:butt; text-rendering:geometricPrecision; image-rendering:optimizeQuality; color-rendering:optimizeQuality; stroke-linejoin:bevel; stroke-dasharray:1,3; color-interpolation:linearRGB; stroke-width:1.3333; stroke-miterlimit:1;"
       id="g289">
      <circle
         r="1.3333"
         style="stroke:none;"
         cx="0"
         cy="0"
         id="circle287" />
    </g>
    <g
       transform="translate(486.366,208.4999)"
       style="stroke-linecap:butt; text-rendering:geometricPrecision; image-rendering:optimizeQuality; color-rendering:optimizeQuality; stroke-linejoin:bevel; stroke-dasharray:1,3; color-interpolation:linearRGB; stroke-width:1.3333; stroke-miterlimit:1;"
       id="g293">
      <circle
         r="1.3333"
         style="stroke:none;"
         cx="0"
         cy="0"
         id="circle291" />
    </g>
    <g
       transform="translate(510.2745,237.9111)"
       style="stroke-linecap:butt; text-rendering:geometricPrecision; image-rendering:optimizeQuality; color-rendering:optimizeQuality; stroke-linejoin:bevel; stroke-dasharray:1,3; color-interpolation:linearRGB; stroke-width:1.3333; stroke-miterlimit:1;"
       id="g297">
      <circle
         r="1.3333"
         style="stroke:none;"
         cx="0"
         cy="0"
         id="circle295" />
    </g>
    <g
       transform="translate(534.183,269.0405)"
       style="stroke-linecap:butt; text-rendering:geometricPrecision; image-rendering:optimizeQuality; color-rendering:optimizeQuality; stroke-linejoin:bevel; stroke-dasharray:1,3; color-interpolation:linearRGB; stroke-width:1.3333; stroke-miterlimit:1;"
       id="g301">
      <circle
         r="1.3333"
         style="stroke:none;"
         cx="0"
         cy="0"
         id="circle299" />
    </g>
    <g
       transform="translate(558.0915,302.5379)"
       style="stroke-linecap:butt; text-rendering:geometricPrecision; image-rendering:optimizeQuality; color-rendering:optimizeQuality; stroke-linejoin:bevel; stroke-dasharray:1,3; color-interpolation:linearRGB; stroke-width:1.3333; stroke-miterlimit:1;"
       id="g305">
      <circle
         r="1.3333"
         style="stroke:none;"
         cx="0"
         cy="0"
         id="circle303" />
    </g>
    <g
       transform="translate(582,336)"
       style="stroke-linecap:butt; text-rendering:geometricPrecision; image-rendering:optimizeQuality; color-rendering:optimizeQuality; stroke-linejoin:bevel; stroke-dasharray:1,3; color-interpolation:linearRGB; stroke-width:1.3333; stroke-miterlimit:1;"
       id="g309">
      <circle
         r="1.3333"
         style="stroke:none;"
         cx="0"
         cy="0"
         id="circle307" />
    </g>
    <g
       style="stroke-linecap:butt; text-rendering:geometricPrecision; image-rendering:optimizeQuality; color-rendering:optimizeQuality; stroke-linejoin:bevel; stroke-dasharray:10,6; color-interpolation:linearRGB; stroke-width:1.3333; stroke-miterlimit:1;"
       id="g313">
      <path
         d="M103.83 335.985 L127.7385 333.364 L151.647 322.5668 L175.5555 301.9002 L199.464 272.4873 L223.3725 237.7793 L247.281 200.6619 L271.1895 164.8679 L295.098 133.4683 L319.0065 108.8321 L342.915 92.03 L366.8235 84.8369 L390.732 86.7744 L414.6405 97.495 L438.549 116.778 L462.4575 143.0503 L486.366 174.69 L510.2745 208.9845 L534.183 251.9351 L558.0915 293.9967 L582 336"
         style="fill:none; fill-rule:evenodd;"
         id="path311" />
    </g>
    <g
       style="text-rendering:geometricPrecision; color-rendering:optimizeQuality; color-interpolation:linearRGB; image-rendering:optimizeQuality;"
       transform="translate(103.83,335.985)"
       id="g317">
      <path
         style="stroke:none;"
         d="M-2.8284 -2.8284 L2.8284 2.8284 M-2.8284 2.8284 L2.8284 -2.8284"
         id="path315" />
    </g>
    <g
       transform="translate(103.83,335.985)"
       style="stroke-linecap:butt; text-rendering:geometricPrecision; color-rendering:optimizeQuality; image-rendering:optimizeQuality; color-interpolation:linearRGB; stroke-width:1.3333;"
       id="g321">
      <path
         style="fill:none;"
         d="M-2.8284 -2.8284 L2.8284 2.8284 M-2.8284 2.8284 L2.8284 -2.8284"
         id="path319" />
    </g>
    <g
       style="text-rendering:geometricPrecision; color-rendering:optimizeQuality; color-interpolation:linearRGB; image-rendering:optimizeQuality;"
       transform="translate(127.7385,333.364)"
       id="g325">
      <path
         style="stroke:none;"
         d="M-2.8284 -2.8284 L2.8284 2.8284 M-2.8284 2.8284 L2.8284 -2.8284"
         id="path323" />
    </g>
    <g
       transform="translate(127.7385,333.364)"
       style="stroke-linecap:butt; text-rendering:geometricPrecision; color-rendering:optimizeQuality; image-rendering:optimizeQuality; color-interpolation:linearRGB; stroke-width:1.3333;"
       id="g329">
      <path
         style="fill:none;"
         d="M-2.8284 -2.8284 L2.8284 2.8284 M-2.8284 2.8284 L2.8284 -2.8284"
         id="path327" />
    </g>
    <g
       style="text-rendering:geometricPrecision; color-rendering:optimizeQuality; color-interpolation:linearRGB; image-rendering:optimizeQuality;"
       transform="translate(151.647,322.5668)"
       id="g333">
      <path
         style="stroke:none;"
         d="M-2.8284 -2.8284 L2.8284 2.8284 M-2.8284 2.8284 L2.8284 -2.8284"
         id="path331" />
    </g>
    <g
       transform="translate(151.647,322.5668)"
       style="stroke-linecap:butt; text-rendering:geometricPrecision; color-rendering:optimizeQuality; image-rendering:optimizeQuality; color-interpolation:linearRGB; stroke-width:1.3333;"
       id="g337">
      <path
         style="fill:none;"
         d="M-2.8284 -2.8284 L2.8284 2.8284 M-2.8284 2.8284 L2.8284 -2.8284"
         id="path335" />
    </g>
    <g
       style="text-rendering:geometricPrecision; color-rendering:optimizeQuality; color-interpolation:linearRGB; image-rendering:optimizeQuality;"
       transform="translate(175.5555,301.9002)"
       id="g341">
      <path
         style="stroke:none;"
         d="M-2.8284 -2.8284 L2.8284 2.8284 M-2.8284 2.8284 L2.8284 -2.8284"
         id="path339" />
    </g>
    <g
       transform="translate(175.5555,301.9002)"
       style="stroke-linecap:butt; text-rendering:geometricPrecision; color-rendering:optimizeQuality; image-rendering:optimizeQuality; color-interpolation:linearRGB; stroke-width:1.3333;"
       id="g345">
      <path
         style="fill:none;"
         d="M-2.8284 -2.8284 L2.8284 2.8284 M-2.8284 2.8284 L2.8284 -2.8284"
         id="path343" />
    </g>
    <g
       style="text-rendering:geometricPrecision; color-rendering:optimizeQuality; color-interpolation:linearRGB; image-rendering:optimizeQuality;"
       transform="translate(199.464,272.4873)"
       id="g349">
      <path
         style="stroke:none;"
         d="M-2.8284 -2.8284 L2.8284 2.8284 M-2.8284 2.8284 L2.8284 -2.8284"
         id="path347" />
    </g>
    <g
       transform="translate(199.464,272.4873)"
       style="stroke-linecap:butt; text-rendering:geometricPrecision; color-rendering:optimizeQuality; image-rendering:optimizeQuality; color-interpolation:linearRGB; stroke-width:1.3333;"
       id="g353">
      <path
         style="fill:none;"
         d="M-2.8284 -2.8284 L2.8284 2.8284 M-2.8284 2.8284 L2.8284 -2.8284"
         id="path351" />
    </g>
    <g
       style="text-rendering:geometricPrecision; color-rendering:optimizeQuality; color-interpolation:linearRGB; image-rendering:optimizeQuality;"
       transform="translate(223.3725,237.7793)"
       id="g357">
      <path
         style="stroke:none;"
         d="M-2.8284 -2.8284 L2.8284 2.8284 M-2.8284 2.8284 L2.8284 -2.8284"
         id="path355" />
    </g>
    <g
       transform="translate(223.3725,237.7793)"
       style="stroke-linecap:butt; text-rendering:geometricPrecision; color-rendering:optimizeQuality; image-rendering:optimizeQuality; color-interpolation:linearRGB; stroke-width:1.3333;"
       id="g361">
      <path
         style="fill:none;"
         d="M-2.8284 -2.8284 L2.8284 2.8284 M-2.8284 2.8284 L2.8284 -2.8284"
         id="path359" />
    </g>
    <g
       style="text-rendering:geometricPrecision; color-rendering:optimizeQuality; color-interpolation:linearRGB; image-rendering:optimizeQuality;"
       transform="translate(247.281,200.6619)"
       id="g365">
      <path
         style="stroke:none;"
         d="M-2.8284 -2.8284 L2.8284 2.8284 M-2.8284 2.8284 L2.8284 -2.8284"
         id="path363" />
    </g>
    <g
       transform="translate(247.281,200.6619)"
       style="stroke-linecap:butt; text-rendering:geometricPrecision; color-rendering:optimizeQuality; image-rendering:optimizeQuality; color-interpolation:linearRGB; stroke-width:1.3333;"
       id="g369">
      <path
         style="fill:none;"
         d="M-2.8284 -2.8284 L2.8284 2.8284 M-2.8284 2.8284 L2.8284 -2.8284"
         id="path367" />
    </g>
    <g
       style="text-rendering:geometricPrecision; color-rendering:optimizeQuality; color-interpolation:linearRGB; image-rendering:optimizeQuality;"
       transform="translate(271.1895,164.8679)"
       id="g373">
      <path
         style="stroke:none;"
         d="M-2.8284 -2.8284 L2.8284 2.8284 M-2.8284 2.8284 L2.8284 -2.8284"
         id="path371" />
    </g>
    <g
       transform="translate(271.1895,164.8679)"
       style="stroke-linecap:butt; text-rendering:geometricPrecision; color-rendering:optimizeQuality; image-rendering:optimizeQuality; color-interpolation:linearRGB; stroke-width:1.3333;"
       id="g377">
      <path
         style="fill:none;"
         d="M-2.8284 -2.8284 L2.8284 2.8284 M-2.8284 2.8284 L2.8284 -2.8284"
         id="path375" />
    </g>
    <g
       style="text-rendering:geometricPrecision; color-rendering:optimizeQuality; color-interpolation:linearRGB; image-rendering:optimizeQuality;"
       transform="translate(295.098,133.4683)"
       id="g381">
      <path
         style="stroke:none;"
         d="M-2.8284 -2.8284 L2.8284 2.8284 M-2.8284 2.8284 L2.8284 -2.8284"
         id="path379" />
    </g>
    <g
       transform="translate(295.098,133.4683)"
       style="stroke-linecap:butt; text-rendering:geometricPrecision; color-rendering:optimizeQuality; image-rendering:optimizeQuality; color-interpolation:linearRGB; stroke-width:1.3333;"
       id="g385">
      <path
         style="fill:none;"
         d="M-2.8284 -2.8284 L2.8284 2.8284 M-2.8284 2.8284 L2.8284 -2.8284"
         id="path383" />
    </g>
    <g
       style="text-rendering:geometricPrecision; color-rendering:optimizeQuality; color-interpolation:linearRGB; image-rendering:optimizeQuality;"
       transform="translate(319.0065,108.8321)"
       id="g389">
      <path
         style="stroke:none;"
         d="M-2.8284 -2.8284 L2.8284 2.8284 M-2.8284 2.8284 L2.8284 -2.8284"
         id="path387" />
    </g>
    <g
       transform="translate(319.0065,108.8321)"
       style="stroke-linecap:butt; text-rendering:geometricPrecision; color-rendering:optimizeQuality; image-rendering:optimizeQuality; color-interpolation:linearRGB; stroke-width:1.3333;"
       id="g393">
      <path
         style="fill:none;"
         d="M-2.8284 -2.8284 L2.8284 2.8284 M-2.8284 2.8284 L2.8284 -2.8284"
         id="path391" />
    </g>
    <g
       style="text-rendering:geometricPrecision; color-rendering:optimizeQuality; color-interpolation:linearRGB; image-rendering:optimizeQuality;"
       transform="translate(342.915,92.03)"
       id="g397">
      <path
         style="stroke:none;"
         d="M-2.8284 -2.8284 L2.8284 2.8284 M-2.8284 2.8284 L2.8284 -2.8284"
         id="path395" />
    </g>
    <g
       transform="translate(342.915,92.03)"
       style="stroke-linecap:butt; text-rendering:geometricPrecision; color-rendering:optimizeQuality; image-rendering:optimizeQuality; color-interpolation:linearRGB; stroke-width:1.3333;"
       id="g401">
      <path
         style="fill:none;"
         d="M-2.8284 -2.8284 L2.8284 2.8284 M-2.8284 2.8284 L2.8284 -2.8284"
         id="path399" />
    </g>
    <g
       style="text-rendering:geometricPrecision; color-rendering:optimizeQuality; color-interpolation:linearRGB; image-rendering:optimizeQuality;"
       transform="translate(366.8235,84.8369)"
       id="g405">
      <path
         style="stroke:none;"
         d="M-2.8284 -2.8284 L2.8284 2.8284 M-2.8284 2.8284 L2.8284 -2.8284"
         id="path403" />
    </g>
    <g
       transform="translate(366.8235,84.8369)"
       style="stroke-linecap:butt; text-rendering:geometricPrecision; color-rendering:optimizeQuality; image-rendering:optimizeQuality; color-interpolation:linearRGB; stroke-width:1.3333;"
       id="g409">
      <path
         style="fill:none;"
         d="M-2.8284 -2.8284 L2.8284 2.8284 M-2.8284 2.8284 L2.8284 -2.8284"
         id="path407" />
    </g>
    <g
       style="text-rendering:geometricPrecision; color-rendering:optimizeQuality; color-interpolation:linearRGB; image-rendering:optimizeQuality;"
       transform="translate(390.732,86.7744)"
       id="g413">
      <path
         style="stroke:none;"
         d="M-2.8284 -2.8284 L2.8284 2.8284 M-2.8284 2.8284 L2.8284 -2.8284"
         id="path411" />
    </g>
    <g
       transform="translate(390.732,86.7744)"
       style="stroke-linecap:butt; text-rendering:geometricPrecision; color-rendering:optimizeQuality; image-rendering:optimizeQuality; color-interpolation:linearRGB; stroke-width:1.3333;"
       id="g417">
      <path
         style="fill:none;"
         d="M-2.8284 -2.8284 L2.8284 2.8284 M-2.8284 2.8284 L2.8284 -2.8284"
         id="path415" />
    </g>
    <g
       style="text-rendering:geometricPrecision; color-rendering:optimizeQuality; color-interpolation:linearRGB; image-rendering:optimizeQuality;"
       transform="translate(414.6405,97.495)"
       id="g421">
      <path
         style="stroke:none;"
         d="M-2.8284 -2.8284 L2.8284 2.8284 M-2.8284 2.8284 L2.8284 -2.8284"
         id="path419" />
    </g>
    <g
       transform="translate(414.6405,97.495)"
       style="stroke-linecap:butt; text-rendering:geometricPrecision; color-rendering:optimizeQuality; image-rendering:optimizeQuality; color-interpolation:linearRGB; stroke-width:1.3333;"
       id="g425">
      <path
         style="fill:none;"
         d="M-2.8284 -2.8284 L2.8284 2.8284 M-2.8284 2.8284 L2.8284 -2.8284"
         id="path423" />
    </g>
    <g
       style="text-rendering:geometricPrecision; color-rendering:optimizeQuality; color-interpolation:linearRGB; image-rendering:optimizeQuality;"
       transform="translate(438.549,116.778)"
       id="g429">
      <path
         style="stroke:none;"
         d="M-2.8284 -2.8284 L2.8284 2.8284 M-2.8284 2.8284 L2.8284 -2.8284"
         id="path427" />
    </g>
    <g
       transform="translate(438.549,116.778)"
       style="stroke-linecap:butt; text-rendering:geometricPrecision; color-rendering:optimizeQuality; image-rendering:optimizeQuality; color-interpolation:linearRGB; stroke-width:1.3333;"
       id="g433">
      <path
         style="fill:none;"
         d="M-2.8284 -2.8284 L2.8284 2.8284 M-2.8284 2.8284 L2.8284 -2.8284"
         id="path431" />
    </g>
    <g
       style="text-rendering:geometricPrecision; color-rendering:optimizeQuality; color-interpolation:linearRGB; image-rendering:optimizeQuality;"
       transform="translate(462.4575,143.0503)"
       id="g437">
      <path
         style="stroke:none;"
         d="M-2.8284 -2.8284 L2.8284 2.8284 M-2.8284 2.8284 L2.8284 -2.8284"
         id="path435" />
    </g>
    <g
       transform="translate(462.4575,143.0503)"
       style="stroke-linecap:butt; text-rendering:geometricPrecision; color-rendering:optimizeQuality; image-rendering:optimizeQuality; color-interpolation:linearRGB; stroke-width:1.3333;"
       id="g441">
      <path
         style="fill:none;"
         d="M-2.8284 -2.8284 L2.8284 2.8284 M-2.8284 2.8284 L2.8284 -2.8284"
         id="path439" />
    </g>
    <g
       style="text-rendering:geometricPrecision; color-rendering:optimizeQuality; color-interpolation:linearRGB; image-rendering:optimizeQuality;"
       transform="translate(486.366,174.69)"
       id="g445">
      <path
         style="stroke:none;"
         d="M-2.8284 -2.8284 L2.8284 2.8284 M-2.8284 2.8284 L2.8284 -2.8284"
         id="path443" />
    </g>
    <g
       transform="translate(486.366,174.69)"
       style="stroke-linecap:butt; text-rendering:geometricPrecision; color-rendering:optimizeQuality; image-rendering:optimizeQuality; color-interpolation:linearRGB; stroke-width:1.3333;"
       id="g449">
      <path
         style="fill:none;"
         d="M-2.8284 -2.8284 L2.8284 2.8284 M-2.8284 2.8284 L2.8284 -2.8284"
         id="path447" />
    </g>
    <g
       style="text-rendering:geometricPrecision; color-rendering:optimizeQuality; color-interpolation:linearRGB; image-rendering:optimizeQuality;"
       transform="translate(510.2745,208.9845)"
       id="g453">
      <path
         style="stroke:none;"
         d="M-2.8284 -2.8284 L2.8284 2.8284 M-2.8284 2.8284 L2.8284 -2.8284"
         id="path451" />
    </g>
    <g
       transform="translate(510.2745,208.9845)"
       style="stroke-linecap:butt; text-rendering:geometricPrecision; color-rendering:optimizeQuality; image-rendering:optimizeQuality; color-interpolation:linearRGB; stroke-width:1.3333;"
       id="g457">
      <path
         style="fill:none;"
         d="M-2.8284 -2.8284 L2.8284 2.8284 M-2.8284 2.8284 L2.8284 -2.8284"
         id="path455" />
    </g>
    <g
       style="text-rendering:geometricPrecision; color-rendering:optimizeQuality; color-interpolation:linearRGB; image-rendering:optimizeQuality;"
       transform="translate(534.183,251.9351)"
       id="g461">
      <path
         style="stroke:none;"
         d="M-2.8284 -2.8284 L2.8284 2.8284 M-2.8284 2.8284 L2.8284 -2.8284"
         id="path459" />
    </g>
    <g
       transform="translate(534.183,251.9351)"
       style="stroke-linecap:butt; text-rendering:geometricPrecision; color-rendering:optimizeQuality; image-rendering:optimizeQuality; color-interpolation:linearRGB; stroke-width:1.3333;"
       id="g465">
      <path
         style="fill:none;"
         d="M-2.8284 -2.8284 L2.8284 2.8284 M-2.8284 2.8284 L2.8284 -2.8284"
         id="path463" />
    </g>
    <g
       style="text-rendering:geometricPrecision; color-rendering:optimizeQuality; color-interpolation:linearRGB; image-rendering:optimizeQuality;"
       transform="translate(558.0915,293.9967)"
       id="g469">
      <path
         style="stroke:none;"
         d="M-2.8284 -2.8284 L2.8284 2.8284 M-2.8284 2.8284 L2.8284 -2.8284"
         id="path467" />
    </g>
    <g
       transform="translate(558.0915,293.9967)"
       style="stroke-linecap:butt; text-rendering:geometricPrecision; color-rendering:optimizeQuality; image-rendering:optimizeQuality; color-interpolation:linearRGB; stroke-width:1.3333;"
       id="g473">
      <path
         style="fill:none;"
         d="M-2.8284 -2.8284 L2.8284 2.8284 M-2.8284 2.8284 L2.8284 -2.8284"
         id="path471" />
    </g>
    <g
       style="text-rendering:geometricPrecision; color-rendering:optimizeQuality; color-interpolation:linearRGB; image-rendering:optimizeQuality;"
       transform="translate(582,336)"
       id="g477">
      <path
         style="stroke:none;"
         d="M-2.8284 -2.8284 L2.8284 2.8284 M-2.8284 2.8284 L2.8284 -2.8284"
         id="path475" />
    </g>
    <g
       transform="translate(582,336)"
       style="stroke-linecap:butt; text-rendering:geometricPrecision; color-rendering:optimizeQuality; image-rendering:optimizeQuality; color-interpolation:linearRGB; stroke-width:1.3333;"
       id="g481">
      <path
         style="fill:none;"
         d="M-2.8284 -2.8284 L2.8284 2.8284 M-2.8284 2.8284 L2.8284 -2.8284"
         id="path479" />
    </g>
  </g>
</svg>
