<?xml version="1.0" encoding="UTF-8" standalone="no"?>
<svg
   style="fill-opacity:1; color-rendering:auto; color-interpolation:auto; text-rendering:auto; stroke:black; stroke-linecap:square; stroke-miterlimit:10; shape-rendering:auto; stroke-opacity:1; fill:black; stroke-dasharray:none; font-weight:normal; stroke-width:1; font-family:'Dialog'; font-style:normal; stroke-linejoin:miter; font-size:12px; stroke-dashoffset:0; image-rendering:auto;"
   width="560"
   height="420"
   version="1.1"
   id="svg529"
   sodipodi:docname="Ps-v-Fwc.svg"
   inkscape:version="1.2.2 (732a01da63, 2022-12-09)"
   xmlns:inkscape="http://www.inkscape.org/namespaces/inkscape"
   xmlns:sodipodi="http://sodipodi.sourceforge.net/DTD/sodipodi-0.dtd"
   xmlns="http://www.w3.org/2000/svg"
   xmlns:svg="http://www.w3.org/2000/svg">
  <sodipodi:namedview
     id="namedview531"
     pagecolor="#ffffff"
     bordercolor="#000000"
     borderopacity="0.25"
     inkscape:showpageshadow="2"
     inkscape:pageopacity="0.0"
     inkscape:pagecheckerboard="0"
     inkscape:deskcolor="#d1d1d1"
     showgrid="false"
     inkscape:zoom="1.9738095"
     inkscape:cx="280.16888"
     inkscape:cy="210.25332"
     inkscape:window-width="1920"
     inkscape:window-height="1009"
     inkscape:window-x="-8"
     inkscape:window-y="-8"
     inkscape:window-maximized="1"
     inkscape:current-layer="svg529" />
  <!--Generated by the Batik Graphics2D SVG Generator-->
  <defs
     id="genericDefs" />
  <g
     id="g527"
     inkscape:export-filename="Ps-v-Fw.pdf"
     inkscape:export-xdpi="600"
     inkscape:export-ydpi="600">
    <defs
       id="defs1">
      <clipPath
         clipPathUnits="userSpaceOnUse"
         id="clipPath1">
        <path
           d="M0 0 L560 0 L560 420 L0 420 L0 0 Z"
           id="path3" />
      </clipPath>
    </defs>
    <g
       style="fill:white; stroke:white;"
       id="g9">
      <rect
         x="0"
         y="0"
         width="560"
         style="clip-path:url(#clipPath1); stroke:none;"
         height="420"
         clip-path="url(#clipPath1)"
         id="rect7" />
    </g>
    <g
       style="fill:white; text-rendering:optimizeSpeed; color-rendering:optimizeSpeed; image-rendering:optimizeSpeed; shape-rendering:crispEdges; stroke:white; color-interpolation:sRGB;"
       id="g15">
      <rect
         x="0"
         width="560"
         height="420"
         y="0"
         style="stroke:none;"
         id="rect11" />
      <path
         style="stroke:none;"
         d="M80 336 L507 336 L507 31 L80 31 Z"
         id="path13" />
    </g>
    <g
       style="fill:rgb(38,38,38); text-rendering:geometricPrecision; image-rendering:optimizeQuality; color-rendering:optimizeQuality; stroke-linejoin:round; stroke:rgb(38,38,38); color-interpolation:linearRGB; stroke-width:0.6667;"
       id="g41">
      <line
         y2="336"
         style="fill:none;"
         x1="80"
         x2="507"
         y1="336"
         id="line17" />
      <line
         y2="31"
         style="fill:none;"
         x1="80"
         x2="507"
         y1="31"
         id="line19" />
      <line
         y2="331.74"
         style="fill:none;"
         x1="155.2945"
         x2="155.2945"
         y1="336"
         id="line21" />
      <line
         y2="331.74"
         style="fill:none;"
         x1="243.2209"
         x2="243.2209"
         y1="336"
         id="line23" />
      <line
         y2="331.74"
         style="fill:none;"
         x1="331.1472"
         x2="331.1472"
         y1="336"
         id="line25" />
      <line
         y2="331.74"
         style="fill:none;"
         x1="419.0736"
         x2="419.0736"
         y1="336"
         id="line27" />
      <line
         y2="331.74"
         style="fill:none;"
         x1="507"
         x2="507"
         y1="336"
         id="line29" />
      <line
         y2="35.26"
         style="fill:none;"
         x1="155.2945"
         x2="155.2945"
         y1="31"
         id="line31" />
      <line
         y2="35.26"
         style="fill:none;"
         x1="243.2209"
         x2="243.2209"
         y1="31"
         id="line33" />
      <line
         y2="35.26"
         style="fill:none;"
         x1="331.1472"
         x2="331.1472"
         y1="31"
         id="line35" />
      <line
         y2="35.26"
         style="fill:none;"
         x1="419.0736"
         x2="419.0736"
         y1="31"
         id="line37" />
      <line
         y2="35.26"
         style="fill:none;"
         x1="507"
         x2="507"
         y1="31"
         id="line39" />
    </g>
    <g
       transform="translate(155.2945,344.5333)"
       style="font-size:29.3333px; fill:rgb(38,38,38); text-rendering:geometricPrecision; image-rendering:optimizeQuality; color-rendering:optimizeQuality; font-family:'mwa_cmr10'; stroke:rgb(38,38,38); color-interpolation:linearRGB;"
       id="g49">
      <path
         style="stroke:none;"
         d="M-11.4908 25.2805 Q-15.0377 25.2805 -16.3189 22.3508 Q-17.6002 19.4211 -17.6002 15.3899 Q-17.6002 12.8743 -17.147 10.6477 Q-16.6939 8.4211 -15.3267 6.8743 Q-13.9595 5.3274 -11.4908 5.3274 Q-9.5845 5.3274 -8.3658 6.2571 Q-7.147 7.1868 -6.5064 8.6711 Q-5.8658 10.1555 -5.6314 11.843 Q-5.397 13.5305 -5.397 15.3899 Q-5.397 17.8899 -5.858 20.0618 Q-6.3189 22.2336 -7.6627 23.7571 Q-9.0064 25.2805 -11.4908 25.2805 ZM-11.4908 24.5305 Q-9.8814 24.5305 -9.0845 22.8743 Q-8.2877 21.218 -8.108 19.2024 Q-7.9283 17.1868 -7.9283 14.9211 Q-7.9283 12.7493 -8.108 10.9055 Q-8.2877 9.0618 -9.0767 7.5696 Q-9.8658 6.0774 -11.4908 6.0774 Q-13.1314 6.0774 -13.9283 7.5774 Q-14.7252 9.0774 -14.9048 10.9133 Q-15.0845 12.7493 -15.0845 14.9211 Q-15.0845 16.5461 -15.0064 17.9758 Q-14.9283 19.4055 -14.5923 20.929 Q-14.2564 22.4524 -13.4986 23.4915 Q-12.7408 24.5305 -11.4908 24.5305 Z"
         id="path43" />
      <path
         style="stroke:none;"
         d="M-1.6366 23.0461 Q-1.6366 22.3899 -1.1522 21.9211 Q-0.6678 21.4524 -0.0428 21.4524 Q0.3634 21.4524 0.7462 21.6633 Q1.1291 21.8743 1.34 22.2571 Q1.5509 22.6399 1.5509 23.0461 Q1.5509 23.6711 1.0822 24.1555 Q0.6134 24.6399 -0.0428 24.6399 Q-0.6678 24.6399 -1.1522 24.1555 Q-1.6366 23.6711 -1.6366 23.0461 Z"
         id="path45" />
      <path
         style="stroke:none;"
         d="M11.3241 25.2805 Q9.5272 25.2805 8.3241 24.3196 Q7.121 23.3586 6.4647 21.843 Q5.8085 20.3274 5.5507 18.6555 Q5.2929 16.9836 5.2929 15.2649 Q5.2929 12.968 6.1835 10.6633 Q7.0741 8.3586 8.8085 6.843 Q10.5429 5.3274 12.9179 5.3274 Q13.9179 5.3274 14.7772 5.7024 Q15.6366 6.0774 16.121 6.804 Q16.6054 7.5305 16.6054 8.5618 Q16.6054 9.1555 16.1991 9.5618 Q15.7929 9.968 15.1991 9.968 Q14.6366 9.968 14.2304 9.5618 Q13.8241 9.1555 13.8241 8.5618 Q13.8241 7.9993 14.2304 7.593 Q14.6366 7.1868 15.1991 7.1868 L15.3554 7.1868 Q14.996 6.6555 14.3241 6.4055 Q13.6522 6.1555 12.9179 6.1555 Q12.0429 6.1555 11.3007 6.5383 Q10.5585 6.9211 9.9647 7.5774 Q9.371 8.2336 8.9725 9.0149 Q8.5741 9.7961 8.3554 10.804 Q8.1366 11.8118 8.0819 12.6868 Q8.0272 13.5618 8.0272 14.8899 Q8.5272 13.7024 9.4647 12.9446 Q10.4022 12.1868 11.5741 12.1868 Q12.871 12.1868 13.9335 12.7102 Q14.996 13.2336 15.7616 14.1633 Q16.5272 15.093 16.9257 16.2805 Q17.3241 17.468 17.3241 18.6868 Q17.3241 20.3899 16.5663 21.929 Q15.8085 23.468 14.4335 24.3743 Q13.0585 25.2805 11.3241 25.2805 ZM11.3241 24.3586 Q12.4491 24.3586 13.1288 23.8508 Q13.8085 23.343 14.121 22.4993 Q14.4335 21.6555 14.5116 20.7961 Q14.5897 19.9368 14.5897 18.6868 Q14.5897 17.0461 14.4335 15.8899 Q14.2772 14.7336 13.5897 13.843 Q12.9022 12.9524 11.4647 12.9524 Q10.2929 12.9524 9.535 13.7493 Q8.7772 14.5461 8.4257 15.7571 Q8.0741 16.968 8.0741 18.0774 Q8.0741 18.468 8.1054 18.6711 Q8.1054 18.7024 8.0975 18.7336 Q8.0897 18.7649 8.0741 18.8118 Q8.0741 20.0461 8.3319 21.3196 Q8.5897 22.593 9.3163 23.4758 Q10.0429 24.3586 11.3241 24.3586 Z"
         id="path47" />
    </g>
    <g
       transform="translate(243.2209,344.5333)"
       style="font-size:29.3333px; fill:rgb(38,38,38); text-rendering:geometricPrecision; image-rendering:optimizeQuality; color-rendering:optimizeQuality; font-family:'mwa_cmr10'; stroke:rgb(38,38,38); color-interpolation:linearRGB;"
       id="g57">
      <path
         style="stroke:none;"
         d="M-11.4908 25.2805 Q-15.0377 25.2805 -16.3189 22.3508 Q-17.6002 19.4211 -17.6002 15.3899 Q-17.6002 12.8743 -17.147 10.6477 Q-16.6939 8.4211 -15.3267 6.8743 Q-13.9595 5.3274 -11.4908 5.3274 Q-9.5845 5.3274 -8.3658 6.2571 Q-7.147 7.1868 -6.5064 8.6711 Q-5.8658 10.1555 -5.6314 11.843 Q-5.397 13.5305 -5.397 15.3899 Q-5.397 17.8899 -5.858 20.0618 Q-6.3189 22.2336 -7.6627 23.7571 Q-9.0064 25.2805 -11.4908 25.2805 ZM-11.4908 24.5305 Q-9.8814 24.5305 -9.0845 22.8743 Q-8.2877 21.218 -8.108 19.2024 Q-7.9283 17.1868 -7.9283 14.9211 Q-7.9283 12.7493 -8.108 10.9055 Q-8.2877 9.0618 -9.0767 7.5696 Q-9.8658 6.0774 -11.4908 6.0774 Q-13.1314 6.0774 -13.9283 7.5774 Q-14.7252 9.0774 -14.9048 10.9133 Q-15.0845 12.7493 -15.0845 14.9211 Q-15.0845 16.5461 -15.0064 17.9758 Q-14.9283 19.4055 -14.5923 20.929 Q-14.2564 22.4524 -13.4986 23.4915 Q-12.7408 24.5305 -11.4908 24.5305 Z"
         id="path51" />
      <path
         style="stroke:none;"
         d="M-1.6366 23.0461 Q-1.6366 22.3899 -1.1522 21.9211 Q-0.6678 21.4524 -0.0428 21.4524 Q0.3634 21.4524 0.7462 21.6633 Q1.1291 21.8743 1.34 22.2571 Q1.5509 22.6399 1.5509 23.0461 Q1.5509 23.6711 1.0822 24.1555 Q0.6134 24.6399 -0.0428 24.6399 Q-0.6678 24.6399 -1.1522 24.1555 Q-1.6366 23.6711 -1.6366 23.0461 Z"
         id="path53" />
      <path
         style="stroke:none;"
         d="M9.121 23.8899 Q9.121 22.2805 9.4022 20.7336 Q9.6835 19.1868 10.2304 17.679 Q10.7772 16.1711 11.5429 14.718 Q12.3085 13.2649 13.2304 11.9993 L15.8866 8.3118 L12.5741 8.3118 Q7.4179 8.3118 7.2616 8.4524 Q6.871 8.9211 6.5429 11.1243 L5.6991 11.1243 L6.6522 5.0461 L7.496 5.0461 L7.496 5.1243 Q7.496 5.6555 9.2694 5.8118 Q11.0429 5.968 12.746 5.968 L18.1366 5.968 L18.1366 6.718 Q18.1366 6.7336 18.1288 6.7493 Q18.121 6.7649 18.1054 6.7961 L14.121 12.4055 Q12.6366 14.593 12.2694 17.2493 Q11.9022 19.9055 11.9022 23.8899 Q11.9022 24.4524 11.496 24.8665 Q11.0897 25.2805 10.5116 25.2805 Q9.9335 25.2805 9.5272 24.8665 Q9.121 24.4524 9.121 23.8899 Z"
         id="path55" />
    </g>
    <g
       transform="translate(331.1472,344.5333)"
       style="font-size:29.3333px; fill:rgb(38,38,38); text-rendering:geometricPrecision; image-rendering:optimizeQuality; color-rendering:optimizeQuality; font-family:'mwa_cmr10'; stroke:rgb(38,38,38); color-interpolation:linearRGB;"
       id="g65">
      <path
         style="stroke:none;"
         d="M-11.4908 25.2805 Q-15.0377 25.2805 -16.3189 22.3508 Q-17.6002 19.4211 -17.6002 15.3899 Q-17.6002 12.8743 -17.147 10.6477 Q-16.6939 8.4211 -15.3267 6.8743 Q-13.9595 5.3274 -11.4908 5.3274 Q-9.5845 5.3274 -8.3658 6.2571 Q-7.147 7.1868 -6.5064 8.6711 Q-5.8658 10.1555 -5.6314 11.843 Q-5.397 13.5305 -5.397 15.3899 Q-5.397 17.8899 -5.858 20.0618 Q-6.3189 22.2336 -7.6627 23.7571 Q-9.0064 25.2805 -11.4908 25.2805 ZM-11.4908 24.5305 Q-9.8814 24.5305 -9.0845 22.8743 Q-8.2877 21.218 -8.108 19.2024 Q-7.9283 17.1868 -7.9283 14.9211 Q-7.9283 12.7493 -8.108 10.9055 Q-8.2877 9.0618 -9.0767 7.5696 Q-9.8658 6.0774 -11.4908 6.0774 Q-13.1314 6.0774 -13.9283 7.5774 Q-14.7252 9.0774 -14.9048 10.9133 Q-15.0845 12.7493 -15.0845 14.9211 Q-15.0845 16.5461 -15.0064 17.9758 Q-14.9283 19.4055 -14.5923 20.929 Q-14.2564 22.4524 -13.4986 23.4915 Q-12.7408 24.5305 -11.4908 24.5305 Z"
         id="path59" />
      <path
         style="stroke:none;"
         d="M-1.6366 23.0461 Q-1.6366 22.3899 -1.1522 21.9211 Q-0.6678 21.4524 -0.0428 21.4524 Q0.3634 21.4524 0.7462 21.6633 Q1.1291 21.8743 1.34 22.2571 Q1.5509 22.6399 1.5509 23.0461 Q1.5509 23.6711 1.0822 24.1555 Q0.6134 24.6399 -0.0428 24.6399 Q-0.6678 24.6399 -1.1522 24.1555 Q-1.6366 23.6711 -1.6366 23.0461 Z"
         id="path61" />
      <path
         style="stroke:none;"
         d="M5.2929 20.2336 Q5.2929 18.4993 6.4413 17.1555 Q7.5897 15.8118 9.3866 14.9211 L8.3085 14.2336 Q7.3241 13.5774 6.6991 12.4993 Q6.0741 11.4211 6.0741 10.218 Q6.0741 8.843 6.8007 7.718 Q7.5272 6.593 8.7382 5.9602 Q9.9491 5.3274 11.3241 5.3274 Q12.6054 5.3274 13.8085 5.8508 Q15.0116 6.3743 15.7772 7.3508 Q16.5429 8.3274 16.5429 9.6711 Q16.5429 10.6555 16.0897 11.4915 Q15.6366 12.3274 14.8319 12.9915 Q14.0272 13.6555 13.121 14.1243 L14.7772 15.1868 Q15.9335 15.9368 16.6288 17.1555 Q17.3241 18.3743 17.3241 19.718 Q17.3241 21.2805 16.4804 22.5696 Q15.6366 23.8586 14.2538 24.5696 Q12.871 25.2805 11.3241 25.2805 Q9.8241 25.2805 8.4257 24.6711 Q7.0272 24.0618 6.16 22.9055 Q5.2929 21.7493 5.2929 20.2336 ZM6.871 20.2336 Q6.871 21.3899 7.496 22.3352 Q8.121 23.2805 9.16 23.8196 Q10.1991 24.3586 11.3241 24.3586 Q13.0116 24.3586 14.3866 23.3743 Q15.7616 22.3899 15.7616 20.7649 Q15.7616 20.2024 15.5429 19.6633 Q15.3241 19.1243 14.9335 18.6711 Q14.5429 18.218 14.0585 17.9368 L10.1679 15.4211 Q9.2616 15.9055 8.5038 16.6399 Q7.746 17.3743 7.3085 18.2961 Q6.871 19.218 6.871 20.2336 ZM8.8554 11.3899 L12.371 13.6555 Q13.5897 12.9368 14.371 11.9368 Q15.1522 10.9368 15.1522 9.6711 Q15.1522 8.7024 14.6054 7.8821 Q14.0585 7.0618 13.1835 6.6086 Q12.3085 6.1555 11.2929 6.1555 Q10.4179 6.1555 9.5272 6.4993 Q8.6366 6.843 8.0585 7.5149 Q7.4804 8.1868 7.4804 9.093 Q7.4804 10.4524 8.8554 11.3899 Z"
         id="path63" />
    </g>
    <g
       transform="translate(419.0736,344.5333)"
       style="font-size:29.3333px; fill:rgb(38,38,38); text-rendering:geometricPrecision; image-rendering:optimizeQuality; color-rendering:optimizeQuality; font-family:'mwa_cmr10'; stroke:rgb(38,38,38); color-interpolation:linearRGB;"
       id="g73">
      <path
         style="stroke:none;"
         d="M-11.4908 25.2805 Q-15.0377 25.2805 -16.3189 22.3508 Q-17.6002 19.4211 -17.6002 15.3899 Q-17.6002 12.8743 -17.147 10.6477 Q-16.6939 8.4211 -15.3267 6.8743 Q-13.9595 5.3274 -11.4908 5.3274 Q-9.5845 5.3274 -8.3658 6.2571 Q-7.147 7.1868 -6.5064 8.6711 Q-5.8658 10.1555 -5.6314 11.843 Q-5.397 13.5305 -5.397 15.3899 Q-5.397 17.8899 -5.858 20.0618 Q-6.3189 22.2336 -7.6627 23.7571 Q-9.0064 25.2805 -11.4908 25.2805 ZM-11.4908 24.5305 Q-9.8814 24.5305 -9.0845 22.8743 Q-8.2877 21.218 -8.108 19.2024 Q-7.9283 17.1868 -7.9283 14.9211 Q-7.9283 12.7493 -8.108 10.9055 Q-8.2877 9.0618 -9.0767 7.5696 Q-9.8658 6.0774 -11.4908 6.0774 Q-13.1314 6.0774 -13.9283 7.5774 Q-14.7252 9.0774 -14.9048 10.9133 Q-15.0845 12.7493 -15.0845 14.9211 Q-15.0845 16.5461 -15.0064 17.9758 Q-14.9283 19.4055 -14.5923 20.929 Q-14.2564 22.4524 -13.4986 23.4915 Q-12.7408 24.5305 -11.4908 24.5305 Z"
         id="path67" />
      <path
         style="stroke:none;"
         d="M-1.6366 23.0461 Q-1.6366 22.3899 -1.1522 21.9211 Q-0.6678 21.4524 -0.0428 21.4524 Q0.3634 21.4524 0.7462 21.6633 Q1.1291 21.8743 1.34 22.2571 Q1.5509 22.6399 1.5509 23.0461 Q1.5509 23.6711 1.0822 24.1555 Q0.6134 24.6399 -0.0428 24.6399 Q-0.6678 24.6399 -1.1522 24.1555 Q-1.6366 23.6711 -1.6366 23.0461 Z"
         id="path69" />
      <path
         style="stroke:none;"
         d="M7.3397 23.4211 Q8.1366 24.3586 10.1054 24.3586 Q11.2147 24.3586 12.1679 23.6086 Q13.121 22.8586 13.6522 21.7649 Q14.2616 20.5305 14.4257 19.1399 Q14.5897 17.7493 14.5897 15.6711 Q14.1054 16.8586 13.1757 17.6086 Q12.246 18.3586 11.0429 18.3586 Q9.3554 18.3586 8.035 17.4446 Q6.7147 16.5305 6.0038 15.0305 Q5.2929 13.5305 5.2929 11.8586 Q5.2929 10.1086 6.0819 8.6008 Q6.871 7.093 8.2772 6.2102 Q9.6835 5.3274 11.4647 5.3274 Q13.2147 5.3274 14.4022 6.2805 Q15.5897 7.2336 16.2147 8.7415 Q16.8397 10.2493 17.0819 11.9368 Q17.3241 13.6243 17.3241 15.2649 Q17.3241 17.4993 16.5038 19.8274 Q15.6835 22.1555 14.0507 23.718 Q12.4179 25.2805 10.1054 25.2805 Q8.3866 25.2805 7.1991 24.468 Q6.0116 23.6555 6.0116 22.0305 Q6.0116 21.4368 6.4179 21.0383 Q6.8241 20.6399 7.4179 20.6399 Q7.996 20.6399 8.4022 21.0383 Q8.8085 21.4368 8.8085 22.0305 Q8.8085 22.593 8.3944 23.0071 Q7.9804 23.4211 7.4179 23.4211 L7.3397 23.4211 ZM11.1522 17.593 Q12.3397 17.593 13.0975 16.7883 Q13.8554 15.9836 14.1991 14.7961 Q14.5429 13.6086 14.5429 12.4368 L14.5429 11.8743 L14.5429 11.7649 Q14.5429 9.593 13.9022 7.8743 Q13.2616 6.1555 11.4647 6.1555 Q10.3241 6.1555 9.6054 6.6633 Q8.8866 7.1711 8.5507 8.0071 Q8.2147 8.843 8.121 9.7883 Q8.0272 10.7336 8.0272 11.8586 Q8.0272 13.4993 8.1835 14.6555 Q8.3397 15.8118 9.035 16.7024 Q9.7304 17.593 11.1522 17.593 Z"
         id="path71" />
    </g>
    <g
       transform="translate(507,344.5333)"
       style="font-size:29.3333px; fill:rgb(38,38,38); text-rendering:geometricPrecision; image-rendering:optimizeQuality; color-rendering:optimizeQuality; font-family:'mwa_cmr10'; stroke:rgb(38,38,38); color-interpolation:linearRGB;"
       id="g77">
      <path
         style="stroke:none;"
         d="M-4.6458 24.6399 L-4.6458 23.6243 Q-1.0208 23.6243 -1.0208 22.7024 L-1.0208 7.4836 Q-2.5208 8.2024 -4.8177 8.2024 L-4.8177 7.1868 Q-1.2552 7.1868 0.5573 5.3274 L0.9635 5.3274 Q1.0573 5.3274 1.151 5.4055 Q1.2448 5.4836 1.2448 5.5774 L1.2448 22.7024 Q1.2448 23.6243 4.8698 23.6243 L4.8698 24.6399 L-4.6458 24.6399 Z"
         id="path75" />
    </g>
    <g
       transform="translate(293.5002,381.0667)"
       style="font-size:32.2667px; fill:rgb(38,38,38); text-rendering:geometricPrecision; image-rendering:optimizeQuality; color-rendering:optimizeQuality; font-family:'mwa_cmsy10'; stroke:rgb(38,38,38); color-interpolation:linearRGB;"
       id="g83">
      <path
         style="stroke:none;"
         d="M-20.1687 25.6664 Q-20.1687 25.1039 -19.2625 24.5648 Q-18.3562 24.0258 -17.7468 23.9633 L-17.5437 23.9633 Q-17.4343 24.0258 -17.0203 24.7054 Q-16.6062 25.3851 -16.0047 25.8304 Q-15.4031 26.2758 -14.3093 26.2758 Q-14.0906 25.9945 -13.9343 25.7289 Q-11.6375 21.4789 -10.0281 17.057 Q-9.1531 14.6508 -8.4578 12.0804 Q-7.7625 9.5101 -7.3718 7.1351 L-8.7156 7.1351 Q-11.9031 7.1351 -12.7468 10.1195 Q-13.0593 10.682 -13.7703 11.1039 Q-14.4812 11.5258 -15.1531 11.5883 L-15.3406 11.5883 Q-15.5593 11.4476 -15.5593 11.2601 Q-15.075 9.557 -13.6453 8.182 Q-12.2156 6.807 -10.325 6.0258 Q-8.4343 5.2445 -6.6687 5.2445 L2.7063 5.2445 Q5.8157 5.2445 5.8157 6.4633 Q5.8157 7.1664 4.9719 7.7367 Q4.1282 8.307 3.3157 8.3851 L3.1594 8.3851 Q2.925 8.2601 2.925 8.1976 Q2.9407 8.1039 2.9563 7.9945 Q2.9719 7.8851 2.9719 7.8383 Q2.9719 7.1351 0.3157 7.1351 L-4.7468 7.1351 Q-5.6531 11.6195 -7.0906 15.5883 L0.9875 15.5883 Q1.2063 15.6976 1.2063 15.8695 Q1.0032 16.6351 0.2532 17.1742 Q-0.4968 17.7133 -1.325 17.7914 L-1.5125 17.7914 Q-1.7468 17.6664 -1.7468 17.5414 L-1.7468 17.4789 L-7.7937 17.4789 Q-9.2 21.0726 -11.1218 24.6351 Q-11.9187 26.057 -13.3875 27.1117 Q-14.8562 28.1664 -16.325 28.1664 L-16.4968 28.1664 Q-17.7468 28.1664 -18.7468 27.5023 Q-19.7468 26.8383 -20.1687 25.6664 Z"
         id="path79" />
      <path
         style="stroke:none;"
         d="M7.5697 31.9438 L4.5854 23.5845 Q4.3822 23.0688 3.9994 22.9516 Q3.6166 22.8345 2.8979 22.8345 L2.8979 22.022 L7.6322 22.022 L7.6322 22.8345 Q6.2729 22.8345 6.2729 23.4126 Q6.2885 23.4438 6.2885 23.4751 Q6.2885 23.5063 6.2885 23.5845 L8.5072 29.772 L10.4135 24.3813 L10.1166 23.5845 Q9.9291 23.0688 9.5385 22.9516 Q9.1479 22.8345 8.4291 22.8345 L8.4291 22.022 L12.9604 22.022 L12.9604 22.8345 Q11.601 22.8345 11.601 23.4126 Q11.601 23.4907 11.6322 23.5845 L13.9291 30.0532 L16.0229 24.1938 Q16.0697 24.022 16.0697 23.8657 Q16.0697 23.3813 15.6557 23.1079 Q15.2416 22.8345 14.7416 22.8345 L14.7416 22.022 L18.6479 22.022 L18.6479 22.8345 Q17.9447 22.8345 17.4447 23.2016 Q16.9447 23.5688 16.7104 24.1938 L13.976 31.9438 Q13.8979 32.2095 13.6322 32.2095 L13.4447 32.2095 Q13.1791 32.2095 13.101 31.9438 L10.7729 25.3813 L8.4447 31.9438 Q8.3354 32.2095 8.0854 32.2095 L7.9291 32.2095 Q7.6479 32.2095 7.5697 31.9438 Z"
         id="path81" />
    </g>
    <g
       style="text-rendering:geometricPrecision; stroke-width:0.6667; color-interpolation:linearRGB; color-rendering:optimizeQuality; image-rendering:optimizeQuality; stroke-linejoin:round;"
       id="g113">
      <line
         y2="31"
         style="fill:none;"
         x1="80"
         x2="80"
         y1="336"
         id="line85" />
      <line
         y2="31"
         style="fill:none;"
         x1="507"
         x2="507"
         y1="336"
         id="line87" />
      <line
         y2="336"
         style="fill:none;"
         x1="80"
         x2="84.26"
         y1="336"
         id="line89" />
      <line
         y2="276.2781"
         style="fill:none;"
         x1="80"
         x2="84.26"
         y1="276.2781"
         id="line91" />
      <line
         y2="216.5562"
         style="fill:none;"
         x1="80"
         x2="84.26"
         y1="216.5562"
         id="line93" />
      <line
         y2="156.8343"
         style="fill:none;"
         x1="80"
         x2="84.26"
         y1="156.8343"
         id="line95" />
      <line
         y2="97.1123"
         style="fill:none;"
         x1="80"
         x2="84.26"
         y1="97.1123"
         id="line97" />
      <line
         y2="37.3904"
         style="fill:none;"
         x1="80"
         x2="84.26"
         y1="37.3904"
         id="line99" />
      <line
         y2="336"
         style="fill:none;"
         x1="507"
         x2="502.74"
         y1="336"
         id="line101" />
      <line
         y2="276.2781"
         style="fill:none;"
         x1="507"
         x2="502.74"
         y1="276.2781"
         id="line103" />
      <line
         y2="216.5562"
         style="fill:none;"
         x1="507"
         x2="502.74"
         y1="216.5562"
         id="line105" />
      <line
         y2="156.8343"
         style="fill:none;"
         x1="507"
         x2="502.74"
         y1="156.8343"
         id="line107" />
      <line
         y2="97.1123"
         style="fill:none;"
         x1="507"
         x2="502.74"
         y1="97.1123"
         id="line109" />
      <line
         y2="37.3904"
         style="fill:none;"
         x1="507"
         x2="502.74"
         y1="37.3904"
         id="line111" />
    </g>
    <g
       transform="translate(71.4667,336)"
       style="font-size:29.3333px; text-rendering:geometricPrecision; color-rendering:optimizeQuality; image-rendering:optimizeQuality; font-family:'mwa_cmr10'; color-interpolation:linearRGB;"
       id="g117">
      <path
         style="stroke:none;"
         d="M-7.4167 7.6805 Q-10.9636 7.6805 -12.2448 4.7508 Q-13.5261 1.8211 -13.5261 -2.2101 Q-13.5261 -4.7257 -13.073 -6.9523 Q-12.6198 -9.1789 -11.2526 -10.7257 Q-9.8855 -12.2726 -7.4167 -12.2726 Q-5.5105 -12.2726 -4.2917 -11.3429 Q-3.073 -10.4132 -2.4323 -8.9289 Q-1.7917 -7.4445 -1.5573 -5.757 Q-1.323 -4.0695 -1.323 -2.2101 Q-1.323 0.2899 -1.7839 2.4618 Q-2.2448 4.6336 -3.5886 6.1571 Q-4.9323 7.6805 -7.4167 7.6805 ZM-7.4167 6.9305 Q-5.8073 6.9305 -5.0105 5.2743 Q-4.2136 3.618 -4.0339 1.6024 Q-3.8542 -0.4132 -3.8542 -2.6789 Q-3.8542 -4.8507 -4.0339 -6.6945 Q-4.2136 -8.5382 -5.0026 -10.0304 Q-5.7917 -11.5226 -7.4167 -11.5226 Q-9.0573 -11.5226 -9.8542 -10.0226 Q-10.6511 -8.5226 -10.8308 -6.6867 Q-11.0105 -4.8507 -11.0105 -2.6789 Q-11.0105 -1.0539 -10.9323 0.3758 Q-10.8542 1.8055 -10.5183 3.329 Q-10.1823 4.8524 -9.4245 5.8915 Q-8.6667 6.9305 -7.4167 6.9305 Z"
         id="path115" />
    </g>
    <g
       transform="translate(71.4667,276.2781)"
       style="font-size:29.3333px; text-rendering:geometricPrecision; color-rendering:optimizeQuality; image-rendering:optimizeQuality; font-family:'mwa_cmr10'; color-interpolation:linearRGB;"
       id="g121">
      <path
         style="stroke:none;"
         d="M-13.2292 7.0399 L-13.2292 6.2586 Q-13.2292 6.1961 -13.1667 6.1024 L-8.6667 1.118 Q-7.6355 0.0086 -7.0026 -0.7414 Q-6.3698 -1.4914 -5.7448 -2.4679 Q-5.1198 -3.4445 -4.7605 -4.4523 Q-4.4011 -5.4601 -4.4011 -6.6007 Q-4.4011 -7.7882 -4.8386 -8.8742 Q-5.2761 -9.9601 -6.1511 -10.6085 Q-7.0261 -11.257 -8.2448 -11.257 Q-9.5105 -11.257 -10.5183 -10.4992 Q-11.5261 -9.7414 -11.9323 -8.5382 Q-11.823 -8.5695 -11.6198 -8.5695 Q-10.9636 -8.5695 -10.5105 -8.132 Q-10.0573 -7.6945 -10.0573 -6.9914 Q-10.0573 -6.3351 -10.5105 -5.8742 Q-10.9636 -5.4132 -11.6198 -5.4132 Q-12.3073 -5.4132 -12.7683 -5.882 Q-13.2292 -6.3507 -13.2292 -6.9914 Q-13.2292 -8.0851 -12.8151 -9.0382 Q-12.4011 -9.9914 -11.6276 -10.7335 Q-10.8542 -11.4757 -9.8855 -11.8742 Q-8.9167 -12.2726 -7.823 -12.2726 Q-6.1667 -12.2726 -4.737 -11.5695 Q-3.3073 -10.8664 -2.4714 -9.5851 Q-1.6355 -8.3039 -1.6355 -6.6007 Q-1.6355 -5.3351 -2.1901 -4.2023 Q-2.7448 -3.0695 -3.6042 -2.1398 Q-4.4636 -1.2101 -5.8151 -0.0382 Q-7.1667 1.1336 -7.5886 1.5243 L-10.8698 4.6961 L-8.0886 4.6961 Q-6.0261 4.6961 -4.6433 4.6571 Q-3.2605 4.618 -3.1823 4.5399 Q-2.8386 4.1805 -2.4948 1.868 L-1.6355 1.868 L-2.4636 7.0399 L-13.2292 7.0399 Z"
         id="path119" />
    </g>
    <g
       transform="translate(71.4667,216.5562)"
       style="font-size:29.3333px; text-rendering:geometricPrecision; color-rendering:optimizeQuality; image-rendering:optimizeQuality; font-family:'mwa_cmr10'; color-interpolation:linearRGB;"
       id="g125">
      <path
         style="stroke:none;"
         d="M-13.8542 2.2586 L-13.8542 1.2274 L-4.9011 -12.132 Q-4.7917 -12.2726 -4.6042 -12.2726 L-4.1667 -12.2726 Q-3.8542 -12.2726 -3.8542 -11.9445 L-3.8542 1.2274 L-0.9948 1.2274 L-0.9948 2.2586 L-3.8542 2.2586 L-3.8542 5.1024 Q-3.8542 5.6961 -3.0026 5.8602 Q-2.1511 6.0243 -1.0261 6.0243 L-1.0261 7.0399 L-9.0105 7.0399 L-9.0105 6.0243 Q-7.9011 6.0243 -7.0495 5.8602 Q-6.198 5.6961 -6.198 5.1024 L-6.198 2.2586 L-13.8542 2.2586 ZM-12.9011 1.2274 L-6.0261 1.2274 L-6.0261 -9.0382 L-12.9011 1.2274 Z"
         id="path123" />
    </g>
    <g
       transform="translate(71.4667,156.8343)"
       style="font-size:29.3333px; text-rendering:geometricPrecision; color-rendering:optimizeQuality; image-rendering:optimizeQuality; font-family:'mwa_cmr10'; color-interpolation:linearRGB;"
       id="g129">
      <path
         style="stroke:none;"
         d="M-7.4167 7.6805 Q-9.2136 7.6805 -10.4167 6.7196 Q-11.6198 5.7586 -12.2761 4.243 Q-12.9323 2.7274 -13.1901 1.0555 Q-13.448 -0.6164 -13.448 -2.3351 Q-13.448 -4.632 -12.5573 -6.9367 Q-11.6667 -9.2414 -9.9323 -10.757 Q-8.198 -12.2726 -5.823 -12.2726 Q-4.823 -12.2726 -3.9636 -11.8976 Q-3.1042 -11.5226 -2.6198 -10.796 Q-2.1355 -10.0695 -2.1355 -9.0382 Q-2.1355 -8.4445 -2.5417 -8.0382 Q-2.948 -7.632 -3.5417 -7.632 Q-4.1042 -7.632 -4.5105 -8.0382 Q-4.9167 -8.4445 -4.9167 -9.0382 Q-4.9167 -9.6007 -4.5105 -10.007 Q-4.1042 -10.4132 -3.5417 -10.4132 L-3.3855 -10.4132 Q-3.7448 -10.9445 -4.4167 -11.1945 Q-5.0886 -11.4445 -5.823 -11.4445 Q-6.698 -11.4445 -7.4401 -11.0617 Q-8.1823 -10.6789 -8.7761 -10.0226 Q-9.3698 -9.3664 -9.7683 -8.5851 Q-10.1667 -7.8039 -10.3855 -6.796 Q-10.6042 -5.7882 -10.6589 -4.9132 Q-10.7136 -4.0382 -10.7136 -2.7101 Q-10.2136 -3.8976 -9.2761 -4.6554 Q-8.3386 -5.4132 -7.1667 -5.4132 Q-5.8698 -5.4132 -4.8073 -4.8898 Q-3.7448 -4.3664 -2.9792 -3.4367 Q-2.2136 -2.507 -1.8151 -1.3195 Q-1.4167 -0.132 -1.4167 1.0868 Q-1.4167 2.7899 -2.1745 4.329 Q-2.9323 5.868 -4.3073 6.7743 Q-5.6823 7.6805 -7.4167 7.6805 ZM-7.4167 6.7586 Q-6.2917 6.7586 -5.612 6.2508 Q-4.9323 5.743 -4.6198 4.8993 Q-4.3073 4.0555 -4.2292 3.1961 Q-4.1511 2.3368 -4.1511 1.0868 Q-4.1511 -0.5539 -4.3073 -1.7101 Q-4.4636 -2.8664 -5.1511 -3.757 Q-5.8386 -4.6476 -7.2761 -4.6476 Q-8.448 -4.6476 -9.2058 -3.8507 Q-9.9636 -3.0539 -10.3151 -1.8429 Q-10.6667 -0.632 -10.6667 0.4774 Q-10.6667 0.868 -10.6355 1.0711 Q-10.6355 1.1024 -10.6433 1.1336 Q-10.6511 1.1649 -10.6667 1.2118 Q-10.6667 2.4461 -10.4089 3.7196 Q-10.1511 4.993 -9.4245 5.8758 Q-8.698 6.7586 -7.4167 6.7586 Z"
         id="path127" />
    </g>
    <g
       transform="translate(71.4667,97.1123)"
       style="font-size:29.3333px; text-rendering:geometricPrecision; color-rendering:optimizeQuality; image-rendering:optimizeQuality; font-family:'mwa_cmr10'; color-interpolation:linearRGB;"
       id="g133">
      <path
         style="stroke:none;"
         d="M-13.448 2.6336 Q-13.448 0.8993 -12.2995 -0.4445 Q-11.1511 -1.7882 -9.3542 -2.6789 L-10.4323 -3.3664 Q-11.4167 -4.0226 -12.0417 -5.1007 Q-12.6667 -6.1789 -12.6667 -7.382 Q-12.6667 -8.757 -11.9401 -9.882 Q-11.2136 -11.007 -10.0026 -11.6398 Q-8.7917 -12.2726 -7.4167 -12.2726 Q-6.1355 -12.2726 -4.9323 -11.7492 Q-3.7292 -11.2257 -2.9636 -10.2492 Q-2.198 -9.2726 -2.198 -7.9289 Q-2.198 -6.9445 -2.6511 -6.1085 Q-3.1042 -5.2726 -3.9089 -4.6085 Q-4.7136 -3.9445 -5.6198 -3.4757 L-3.9636 -2.4132 Q-2.8073 -1.6632 -2.112 -0.4445 Q-1.4167 0.7743 -1.4167 2.118 Q-1.4167 3.6805 -2.2605 4.9696 Q-3.1042 6.2586 -4.487 6.9696 Q-5.8698 7.6805 -7.4167 7.6805 Q-8.9167 7.6805 -10.3151 7.0711 Q-11.7136 6.4618 -12.5808 5.3055 Q-13.448 4.1493 -13.448 2.6336 ZM-11.8698 2.6336 Q-11.8698 3.7899 -11.2448 4.7352 Q-10.6198 5.6805 -9.5808 6.2196 Q-8.5417 6.7586 -7.4167 6.7586 Q-5.7292 6.7586 -4.3542 5.7743 Q-2.9792 4.7899 -2.9792 3.1649 Q-2.9792 2.6024 -3.198 2.0633 Q-3.4167 1.5243 -3.8073 1.0711 Q-4.198 0.618 -4.6823 0.3368 L-8.573 -2.1789 Q-9.4792 -1.6945 -10.237 -0.9601 Q-10.9948 -0.2257 -11.4323 0.6961 Q-11.8698 1.618 -11.8698 2.6336 ZM-9.8855 -6.2101 L-6.3698 -3.9445 Q-5.1511 -4.6632 -4.3698 -5.6632 Q-3.5886 -6.6632 -3.5886 -7.9289 Q-3.5886 -8.8976 -4.1355 -9.7179 Q-4.6823 -10.5382 -5.5573 -10.9914 Q-6.4323 -11.4445 -7.448 -11.4445 Q-8.323 -11.4445 -9.2136 -11.1007 Q-10.1042 -10.757 -10.6823 -10.0851 Q-11.2605 -9.4132 -11.2605 -8.507 Q-11.2605 -7.1476 -9.8855 -6.2101 Z"
         id="path131" />
    </g>
    <g
       transform="translate(71.4667,37.3904)"
       style="font-size:29.3333px; text-rendering:geometricPrecision; color-rendering:optimizeQuality; image-rendering:optimizeQuality; font-family:'mwa_cmr10'; color-interpolation:linearRGB;"
       id="g139">
      <path
         style="stroke:none;"
         d="M-26.6459 7.0399 L-26.6459 6.0243 Q-23.0209 6.0243 -23.0209 5.1024 L-23.0209 -10.1164 Q-24.5209 -9.3976 -26.8178 -9.3976 L-26.8178 -10.4132 Q-23.2553 -10.4132 -21.4428 -12.2726 L-21.0365 -12.2726 Q-20.9428 -12.2726 -20.849 -12.1945 Q-20.7553 -12.1164 -20.7553 -12.0226 L-20.7553 5.1024 Q-20.7553 6.0243 -17.1303 6.0243 L-17.1303 7.0399 L-26.6459 7.0399 Z"
         id="path135" />
      <path
         style="stroke:none;"
         d="M-7.4167 7.6805 Q-10.9636 7.6805 -12.2448 4.7508 Q-13.5261 1.8211 -13.5261 -2.2101 Q-13.5261 -4.7257 -13.073 -6.9523 Q-12.6198 -9.1789 -11.2526 -10.7257 Q-9.8855 -12.2726 -7.4167 -12.2726 Q-5.5105 -12.2726 -4.2917 -11.3429 Q-3.073 -10.4132 -2.4323 -8.9289 Q-1.7917 -7.4445 -1.5573 -5.757 Q-1.323 -4.0695 -1.323 -2.2101 Q-1.323 0.2899 -1.7839 2.4618 Q-2.2448 4.6336 -3.5886 6.1571 Q-4.9323 7.6805 -7.4167 7.6805 ZM-7.4167 6.9305 Q-5.8073 6.9305 -5.0105 5.2743 Q-4.2136 3.618 -4.0339 1.6024 Q-3.8542 -0.4132 -3.8542 -2.6789 Q-3.8542 -4.8507 -4.0339 -6.6945 Q-4.2136 -8.5382 -5.0026 -10.0304 Q-5.7917 -11.5226 -7.4167 -11.5226 Q-9.0573 -11.5226 -9.8542 -10.0226 Q-10.6511 -8.5226 -10.8308 -6.6867 Q-11.0105 -4.8507 -11.0105 -2.6789 Q-11.0105 -1.0539 -10.9323 0.3758 Q-10.8542 1.8055 -10.5183 3.329 Q-10.1823 4.8524 -9.4245 5.8915 Q-8.6667 6.9305 -7.4167 6.9305 Z"
         id="path137" />
    </g>
    <g
       transform="translate(39.1333,183.4999) rotate(-90)"
       style="font-size:32.2667px; text-rendering:geometricPrecision; color-rendering:optimizeQuality; image-rendering:optimizeQuality; font-family:'mwa_cmmi10'; color-interpolation:linearRGB;"
       id="g159">
      <path
         style="stroke:none;"
         d="M-70.5234 -11.6161 Q-70.8359 -11.6161 -70.8359 -12.038 Q-70.8203 -12.1161 -70.7734 -12.3114 Q-70.7265 -12.5067 -70.6406 -12.6239 Q-70.5546 -12.7411 -70.4296 -12.7411 Q-68.4765 -12.7411 -67.6953 -12.9599 Q-67.289 -13.1005 -67.1015 -13.8192 L-62.7109 -31.3974 Q-62.6484 -31.7099 -62.6484 -31.8349 Q-62.6484 -32.1786 -63.0234 -32.2255 Q-63.6328 -32.3505 -65.3359 -32.3505 Q-65.6484 -32.3505 -65.6484 -32.7724 Q-65.6328 -32.8505 -65.5859 -33.0458 Q-65.539 -33.2411 -65.4531 -33.3583 Q-65.3671 -33.4755 -65.2421 -33.4755 L-54.1953 -33.4755 Q-52.6796 -33.4755 -51.2578 -32.9364 Q-49.8359 -32.3974 -48.9296 -31.288 Q-48.0234 -30.1786 -48.0234 -28.6005 Q-48.0234 -26.5692 -49.4531 -24.9755 Q-50.8828 -23.3817 -53.0156 -22.4911 Q-55.1484 -21.6005 -57.1484 -21.6005 L-62.3515 -21.6005 L-64.3046 -13.6942 Q-64.3671 -13.3817 -64.3671 -13.2411 Q-64.3671 -13.1161 -64.3281 -13.0302 Q-64.289 -12.9442 -64.2187 -12.9208 Q-64.1484 -12.8974 -63.9921 -12.8661 Q-63.3828 -12.7411 -61.6796 -12.7411 Q-61.3671 -12.7411 -61.3671 -12.3192 Q-61.4765 -11.8661 -61.539 -11.7411 Q-61.6015 -11.6161 -61.914 -11.6161 L-70.5234 -11.6161 ZM-62.1953 -22.5536 L-57.7109 -22.5536 Q-54.6015 -22.5536 -52.9765 -24.2255 Q-52.1484 -25.0536 -51.625 -26.6161 Q-51.1015 -28.1786 -51.1015 -29.4442 Q-51.1015 -31.0224 -52.3046 -31.6864 Q-53.5078 -32.3505 -55.289 -32.3505 L-58.3515 -32.3505 Q-59.2265 -32.3505 -59.5078 -32.2021 Q-59.789 -32.0536 -60.0234 -31.2567 L-62.1953 -22.5536 Z"
         id="path141" />
      <path
         style="stroke:none;"
         d="M-50.6046 -6.7137 L-50.6046 -10.4637 Q-50.6046 -10.6355 -50.4015 -10.6355 L-50.1203 -10.6355 Q-49.9953 -10.6355 -49.9484 -10.4637 Q-49.3078 -7.1199 -46.839 -7.1199 Q-45.7609 -7.1199 -45.0187 -7.6199 Q-44.2765 -8.1199 -44.2765 -9.1512 Q-44.2765 -9.8855 -44.8546 -10.409 Q-45.4328 -10.9324 -46.214 -11.1199 L-47.7609 -11.4324 Q-48.5265 -11.5887 -49.1593 -11.9402 Q-49.7921 -12.2918 -50.1984 -12.8699 Q-50.6046 -13.448 -50.6046 -14.2137 Q-50.6046 -15.2293 -50.0734 -15.8699 Q-49.5421 -16.5105 -48.6906 -16.7996 Q-47.839 -17.0887 -46.839 -17.0887 Q-45.6671 -17.0887 -44.7921 -16.4637 L-44.1203 -17.0262 Q-44.1203 -17.0887 -44.0109 -17.0887 L-43.839 -17.0887 Q-43.7765 -17.0887 -43.7218 -17.0262 Q-43.6671 -16.9637 -43.6671 -16.9012 L-43.6671 -13.8855 Q-43.6671 -13.6668 -43.839 -13.6668 L-44.1203 -13.6668 Q-44.3234 -13.6668 -44.3234 -13.8855 Q-44.3234 -15.0887 -44.9953 -15.8152 Q-45.6671 -16.5418 -46.8703 -16.5418 Q-47.9015 -16.5418 -48.6593 -16.159 Q-49.4171 -15.7762 -49.4171 -14.8543 Q-49.4171 -14.2137 -48.8703 -13.7996 Q-48.3234 -13.3855 -47.589 -13.2137 L-46.0421 -12.9168 Q-45.2453 -12.7449 -44.5656 -12.3152 Q-43.8859 -11.8855 -43.4874 -11.2371 Q-43.089 -10.5887 -43.089 -9.7605 Q-43.089 -8.9324 -43.3781 -8.323 Q-43.6671 -7.7137 -44.1749 -7.3074 Q-44.6828 -6.9012 -45.3781 -6.7059 Q-46.0734 -6.5105 -46.839 -6.5105 Q-48.2765 -6.5105 -49.3078 -7.4793 L-50.1515 -6.573 Q-50.1515 -6.5105 -50.2765 -6.5105 L-50.4015 -6.5105 Q-50.6046 -6.5105 -50.6046 -6.7137 Z"
         id="path143" />
      <path
         style="stroke:none;"
         d="M-30.9259 -3.6786 Q-32.7071 -5.0849 -33.9962 -6.9052 Q-35.2852 -8.7255 -36.1056 -10.788 Q-36.9259 -12.8505 -37.3321 -15.1005 Q-37.7384 -17.3505 -37.7384 -19.6161 Q-37.7384 -21.913 -37.3321 -24.163 Q-36.9259 -26.413 -36.0899 -28.4911 Q-35.254 -30.5692 -33.9571 -32.3817 Q-32.6602 -34.1942 -30.9259 -35.5536 Q-30.9259 -35.6161 -30.7696 -35.6161 L-30.4727 -35.6161 Q-30.379 -35.6161 -30.3009 -35.5302 Q-30.2227 -35.4442 -30.2227 -35.3349 Q-30.2227 -35.1942 -30.2852 -35.1317 Q-31.8477 -33.6005 -32.8868 -31.8505 Q-33.9259 -30.1005 -34.5587 -28.1239 Q-35.1915 -26.1474 -35.4727 -24.0302 Q-35.754 -21.913 -35.754 -19.6161 Q-35.754 -9.4442 -30.3165 -4.163 Q-30.2227 -4.0692 -30.2227 -3.8974 Q-30.2227 -3.8192 -30.3087 -3.7177 Q-30.3946 -3.6161 -30.4727 -3.6161 L-30.7696 -3.6161 Q-30.9259 -3.6161 -30.9259 -3.6786 Z"
         id="path145" />
      <path
         style="stroke:none;"
         d="M-23.5964 -12.538 Q-23.5964 -12.788 -23.4402 -12.9911 L-16.7839 -19.6161 L-23.4402 -26.2724 Q-23.5964 -26.4286 -23.5964 -26.6942 Q-23.5964 -26.9286 -23.4089 -27.1317 Q-23.2214 -27.3349 -22.9558 -27.3349 Q-22.7371 -27.3349 -22.4714 -27.1317 L-15.8464 -20.5067 L-9.2527 -27.1317 Q-8.9871 -27.3349 -8.7839 -27.3349 Q-8.5183 -27.3349 -8.3308 -27.1474 Q-8.1433 -26.9599 -8.1433 -26.6942 Q-8.1433 -26.4286 -8.2996 -26.2724 L-14.9558 -19.6161 L-8.2996 -12.9911 Q-8.1433 -12.788 -8.1433 -12.538 Q-8.1433 -12.2724 -8.3308 -12.0849 Q-8.5183 -11.8974 -8.7839 -11.8974 Q-9.0183 -11.8974 -9.2527 -12.1317 L-15.8464 -18.7255 L-22.4714 -12.1317 Q-22.7058 -11.8974 -22.9558 -11.8974 Q-23.2214 -11.8974 -23.4089 -12.1005 Q-23.5964 -12.3036 -23.5964 -12.538 Z"
         id="path147" />
      <path
         style="stroke:none;"
         d="M-0.2344 -11.6161 L-0.2344 -12.7411 Q3.7656 -12.7411 3.7656 -13.7567 L3.7656 -30.5536 Q2.1093 -29.7567 -0.4219 -29.7567 L-0.4219 -30.8817 Q3.4999 -30.8817 5.4999 -32.9286 L5.9531 -32.9286 Q6.0624 -32.9286 6.164 -32.8427 Q6.2656 -32.7567 6.2656 -32.6474 L6.2656 -13.7567 Q6.2656 -12.7411 10.2656 -12.7411 L10.2656 -11.6161 L-0.2344 -11.6161 Z"
         id="path149" />
      <path
         style="stroke:none;"
         d="M20.9302 -10.913 Q17.0083 -10.913 15.5943 -14.1396 Q14.1802 -17.3661 14.1802 -21.8192 Q14.1802 -24.6005 14.688 -27.0536 Q15.1958 -29.5067 16.7036 -31.2177 Q18.2115 -32.9286 20.9302 -32.9286 Q23.0396 -32.9286 24.3833 -31.8974 Q25.7271 -30.8661 26.4302 -29.2333 Q27.1333 -27.6005 27.3911 -25.7333 Q27.649 -23.8661 27.649 -21.8192 Q27.649 -19.0692 27.1411 -16.6708 Q26.6333 -14.2724 25.149 -12.5927 Q23.6646 -10.913 20.9302 -10.913 ZM20.9302 -11.7411 Q22.7115 -11.7411 23.5865 -13.5692 Q24.4615 -15.3974 24.6646 -17.6161 Q24.8677 -19.8349 24.8677 -22.3349 Q24.8677 -24.7411 24.6646 -26.7724 Q24.4615 -28.8036 23.5943 -30.4521 Q22.7271 -32.1005 20.9302 -32.1005 Q19.1177 -32.1005 18.2427 -30.4442 Q17.3677 -28.788 17.1646 -26.7646 Q16.9615 -24.7411 16.9615 -22.3349 Q16.9615 -20.5536 17.0474 -18.9755 Q17.1333 -17.3974 17.5083 -15.7177 Q17.8833 -14.038 18.7193 -12.8896 Q19.5552 -11.7411 20.9302 -11.7411 Z"
         id="path151" />
      <path
         style="stroke:none;"
         d="M31.4073 -28.6223 Q31.2198 -28.6223 31.0948 -28.7629 Q30.9698 -28.9036 30.9698 -29.0754 Q30.9698 -29.2473 31.0948 -29.3879 Q31.2198 -29.5286 31.4073 -29.5286 L44.6105 -29.5286 Q44.7823 -29.5286 44.8995 -29.3879 Q45.0167 -29.2473 45.0167 -29.0754 Q45.0167 -28.9036 44.8995 -28.7629 Q44.7823 -28.6223 44.6105 -28.6223 L31.4073 -28.6223 Z"
         id="path153" />
      <path
         style="stroke:none;"
         d="M48.8185 -25.1067 Q49.3654 -24.3098 50.2717 -23.927 Q51.1779 -23.5442 52.2248 -23.5442 Q53.5529 -23.5442 54.1154 -24.6848 Q54.6779 -25.8254 54.6779 -27.2786 Q54.6779 -27.9348 54.5607 -28.5833 Q54.4435 -29.2317 54.1623 -29.7942 Q53.881 -30.3567 53.3967 -30.6926 Q52.9123 -31.0286 52.2092 -31.0286 L50.6779 -31.0286 Q50.4748 -31.0286 50.4748 -31.2473 L50.4748 -31.4504 Q50.4748 -31.6223 50.6779 -31.6223 L51.9435 -31.7317 Q52.756 -31.7317 53.2873 -32.3333 Q53.8185 -32.9348 54.0685 -33.8098 Q54.3185 -34.6848 54.3185 -35.4661 Q54.3185 -36.5598 53.8029 -37.2708 Q53.2873 -37.9817 52.2248 -37.9817 Q51.3498 -37.9817 50.5529 -37.6536 Q49.756 -37.3254 49.2873 -36.6379 Q49.3342 -36.6536 49.3654 -36.6614 Q49.3967 -36.6692 49.4435 -36.6692 Q49.9592 -36.6692 50.3029 -36.3098 Q50.6467 -35.9504 50.6467 -35.4504 Q50.6467 -34.9504 50.3029 -34.5911 Q49.9592 -34.2317 49.4435 -34.2317 Q48.9279 -34.2317 48.5685 -34.5911 Q48.2092 -34.9504 48.2092 -35.4504 Q48.2092 -36.4348 48.8107 -37.1614 Q49.4123 -37.8879 50.3498 -38.2629 Q51.2873 -38.6379 52.2248 -38.6379 Q52.9279 -38.6379 53.7014 -38.4348 Q54.4748 -38.2317 55.0998 -37.8411 Q55.7248 -37.4504 56.1232 -36.8489 Q56.5217 -36.2473 56.5217 -35.4661 Q56.5217 -34.4973 56.092 -33.677 Q55.6623 -32.8567 54.9123 -32.2629 Q54.1623 -31.6692 53.256 -31.3723 Q54.256 -31.1848 55.1545 -30.6223 Q56.0529 -30.0598 56.5998 -29.1848 Q57.1467 -28.3098 57.1467 -27.2942 Q57.1467 -26.0286 56.4514 -25.0051 Q55.756 -23.9817 54.6154 -23.4036 Q53.4748 -22.8254 52.2248 -22.8254 Q51.1467 -22.8254 50.0607 -23.2317 Q48.9748 -23.6379 48.2873 -24.4583 Q47.5998 -25.2786 47.5998 -26.4192 Q47.5998 -26.9973 47.9826 -27.3801 Q48.3654 -27.7629 48.9279 -27.7629 Q49.3029 -27.7629 49.6154 -27.5911 Q49.9279 -27.4192 50.0998 -27.0989 Q50.2717 -26.7786 50.2717 -26.4192 Q50.2717 -25.8567 49.881 -25.4817 Q49.4904 -25.1067 48.9279 -25.1067 L48.8185 -25.1067 Z"
         id="path155" />
      <path
         style="stroke:none;"
         d="M61.6158 -3.6161 Q61.3346 -3.6161 61.3346 -3.8974 Q61.3346 -4.038 61.3971 -4.1005 Q66.8658 -9.4442 66.8658 -19.6161 Q66.8658 -29.788 61.4596 -35.0692 Q61.3346 -35.1474 61.3346 -35.3349 Q61.3346 -35.4442 61.4205 -35.5302 Q61.5065 -35.6161 61.6158 -35.6161 L61.9127 -35.6161 Q62.0065 -35.6161 62.069 -35.5536 Q64.3658 -33.7411 65.8971 -31.1474 Q67.4283 -28.5536 68.1393 -25.6161 Q68.8502 -22.6786 68.8502 -19.6161 Q68.8502 -17.3505 68.4674 -15.1552 Q68.0846 -12.9599 67.2486 -10.8271 Q66.4127 -8.6942 65.1315 -6.8896 Q63.8502 -5.0849 62.069 -3.6786 Q62.0065 -3.6161 61.9127 -3.6161 L61.6158 -3.6161 Z"
         id="path157" />
    </g>
    <g
       style="stroke-linecap:butt; fill:rgb(148,148,148); text-rendering:geometricPrecision; image-rendering:optimizeQuality; color-rendering:optimizeQuality; stroke-linejoin:round; stroke:rgb(148,148,148); color-interpolation:linearRGB; stroke-width:0.6667;"
       id="g203">
      <line
         y2="335.8025"
         style="fill:none;"
         x1="80"
         x2="141.0083"
         y1="327.285"
         id="line161" />
      <line
         y2="334.7297"
         style="fill:none;"
         x1="81.9765"
         x2="143.7023"
         y1="289.5182"
         id="line163" />
      <line
         y2="332.4836"
         style="fill:none;"
         x1="83.8978"
         x2="149.6173"
         y1="229.2818"
         id="line165" />
      <line
         y2="329.1266"
         style="fill:none;"
         x1="85.2284"
         x2="152.6017"
         y1="163.0535"
         id="line167" />
      <line
         y2="324.9067"
         style="fill:none;"
         x1="86.0958"
         x2="156.087"
         y1="104.6531"
         id="line169" />
      <line
         y2="320.1428"
         style="fill:none;"
         x1="88.8607"
         x2="157.1766"
         y1="62.0373"
         id="line171" />
      <line
         y2="315.1578"
         style="fill:none;"
         x1="97.0989"
         x2="162.9309"
         y1="37.8337"
         id="line173" />
      <line
         y2="310.2265"
         style="fill:none;"
         x1="105.6943"
         x2="180.1289"
         y1="31"
         id="line175" />
      <line
         y2="305.6008"
         style="fill:none;"
         x1="114.2284"
         x2="198.78"
         y1="38.5459"
         id="line177" />
      <line
         y2="301.4591"
         style="fill:none;"
         x1="125.1575"
         x2="218.8211"
         y1="56.6341"
         id="line179" />
      <line
         y2="297.9224"
         style="fill:none;"
         x1="135.3565"
         x2="240.1924"
         y1="81.5058"
         id="line181" />
      <line
         y2="295.06"
         style="fill:none;"
         x1="145.5126"
         x2="262.8772"
         y1="109.9293"
         id="line183" />
      <line
         y2="292.8979"
         style="fill:none;"
         x1="153.4826"
         x2="286.7132"
         y1="139.3777"
         id="line185" />
      <line
         y2="291.4277"
         style="fill:none;"
         x1="158.1073"
         x2="311.3039"
         y1="168.0362"
         id="line187" />
      <line
         y2="290.6145"
         style="fill:none;"
         x1="184.3784"
         x2="336.9642"
         y1="194.7196"
         id="line189" />
      <line
         y2="290.4052"
         style="fill:none;"
         x1="225.8125"
         x2="363.1576"
         y1="218.7508"
         id="line191" />
      <line
         y2="290.7346"
         style="fill:none;"
         x1="273.0859"
         x2="388.2633"
         y1="239.835"
         id="line193" />
      <line
         y2="291.5314"
         style="fill:none;"
         x1="324.9629"
         x2="413.5179"
         y1="257.9456"
         id="line195" />
      <line
         y2="292.7217"
         style="fill:none;"
         x1="379.675"
         x2="437.6407"
         y1="273.2307"
         id="line197" />
      <line
         y2="294.2331"
         style="fill:none;"
         x1="432.675"
         x2="459.8939"
         y1="285.9407"
         id="line199" />
      <path
         d="M141.0083 335.8025 L143.7023 334.7296 L149.6173 332.4828 L152.6017 329.1266 L156.087 324.9067 L157.1766 320.1428 L162.9309 315.1578 L180.1289 310.2265 L198.78 305.6008 L218.8211 301.4591 L240.1924 297.9224 L262.8772 295.06 L286.7132 292.8979 L311.3039 291.4277 L336.9642 290.6145 L363.1576 290.4052 L388.2633 290.7346 L413.5179 291.5314 L437.6407 292.7217 L459.8939 294.2331"
         style="fill:none; stroke-width:1.3333; fill-rule:evenodd; stroke:blue;"
         id="path201" />
    </g>
    <g
       transform="translate(141.0083,335.8025)"
       style="fill:blue; text-rendering:geometricPrecision; color-rendering:optimizeQuality; image-rendering:optimizeQuality; color-interpolation:linearRGB; stroke:blue;"
       id="g207">
      <path
         style="stroke:none;"
         d="M-2.8284 -2.8284 L2.8284 2.8284 M-2.8284 2.8284 L2.8284 -2.8284"
         id="path205" />
    </g>
    <g
       transform="translate(141.0083,335.8025)"
       style="stroke-linecap:butt; fill:blue; text-rendering:geometricPrecision; color-rendering:optimizeQuality; image-rendering:optimizeQuality; stroke:blue; color-interpolation:linearRGB; stroke-width:1.3333;"
       id="g211">
      <path
         style="fill:none;"
         d="M-2.8284 -2.8284 L2.8284 2.8284 M-2.8284 2.8284 L2.8284 -2.8284"
         id="path209" />
    </g>
    <g
       transform="translate(143.7023,334.7296)"
       style="fill:blue; text-rendering:geometricPrecision; color-rendering:optimizeQuality; image-rendering:optimizeQuality; color-interpolation:linearRGB; stroke:blue;"
       id="g215">
      <path
         style="stroke:none;"
         d="M-2.8284 -2.8284 L2.8284 2.8284 M-2.8284 2.8284 L2.8284 -2.8284"
         id="path213" />
    </g>
    <g
       transform="translate(143.7023,334.7296)"
       style="stroke-linecap:butt; fill:blue; text-rendering:geometricPrecision; color-rendering:optimizeQuality; image-rendering:optimizeQuality; stroke:blue; color-interpolation:linearRGB; stroke-width:1.3333;"
       id="g219">
      <path
         style="fill:none;"
         d="M-2.8284 -2.8284 L2.8284 2.8284 M-2.8284 2.8284 L2.8284 -2.8284"
         id="path217" />
    </g>
    <g
       transform="translate(149.6173,332.4828)"
       style="fill:blue; text-rendering:geometricPrecision; color-rendering:optimizeQuality; image-rendering:optimizeQuality; color-interpolation:linearRGB; stroke:blue;"
       id="g223">
      <path
         style="stroke:none;"
         d="M-2.8284 -2.8284 L2.8284 2.8284 M-2.8284 2.8284 L2.8284 -2.8284"
         id="path221" />
    </g>
    <g
       transform="translate(149.6173,332.4828)"
       style="stroke-linecap:butt; fill:blue; text-rendering:geometricPrecision; color-rendering:optimizeQuality; image-rendering:optimizeQuality; stroke:blue; color-interpolation:linearRGB; stroke-width:1.3333;"
       id="g227">
      <path
         style="fill:none;"
         d="M-2.8284 -2.8284 L2.8284 2.8284 M-2.8284 2.8284 L2.8284 -2.8284"
         id="path225" />
    </g>
    <g
       transform="translate(152.6017,329.1266)"
       style="fill:blue; text-rendering:geometricPrecision; color-rendering:optimizeQuality; image-rendering:optimizeQuality; color-interpolation:linearRGB; stroke:blue;"
       id="g231">
      <path
         style="stroke:none;"
         d="M-2.8284 -2.8284 L2.8284 2.8284 M-2.8284 2.8284 L2.8284 -2.8284"
         id="path229" />
    </g>
    <g
       transform="translate(152.6017,329.1266)"
       style="stroke-linecap:butt; fill:blue; text-rendering:geometricPrecision; color-rendering:optimizeQuality; image-rendering:optimizeQuality; stroke:blue; color-interpolation:linearRGB; stroke-width:1.3333;"
       id="g235">
      <path
         style="fill:none;"
         d="M-2.8284 -2.8284 L2.8284 2.8284 M-2.8284 2.8284 L2.8284 -2.8284"
         id="path233" />
    </g>
    <g
       transform="translate(156.087,324.9067)"
       style="fill:blue; text-rendering:geometricPrecision; color-rendering:optimizeQuality; image-rendering:optimizeQuality; color-interpolation:linearRGB; stroke:blue;"
       id="g239">
      <path
         style="stroke:none;"
         d="M-2.8284 -2.8284 L2.8284 2.8284 M-2.8284 2.8284 L2.8284 -2.8284"
         id="path237" />
    </g>
    <g
       transform="translate(156.087,324.9067)"
       style="stroke-linecap:butt; fill:blue; text-rendering:geometricPrecision; color-rendering:optimizeQuality; image-rendering:optimizeQuality; stroke:blue; color-interpolation:linearRGB; stroke-width:1.3333;"
       id="g243">
      <path
         style="fill:none;"
         d="M-2.8284 -2.8284 L2.8284 2.8284 M-2.8284 2.8284 L2.8284 -2.8284"
         id="path241" />
    </g>
    <g
       transform="translate(157.1766,320.1428)"
       style="fill:blue; text-rendering:geometricPrecision; color-rendering:optimizeQuality; image-rendering:optimizeQuality; color-interpolation:linearRGB; stroke:blue;"
       id="g247">
      <path
         style="stroke:none;"
         d="M-2.8284 -2.8284 L2.8284 2.8284 M-2.8284 2.8284 L2.8284 -2.8284"
         id="path245" />
    </g>
    <g
       transform="translate(157.1766,320.1428)"
       style="stroke-linecap:butt; fill:blue; text-rendering:geometricPrecision; color-rendering:optimizeQuality; image-rendering:optimizeQuality; stroke:blue; color-interpolation:linearRGB; stroke-width:1.3333;"
       id="g251">
      <path
         style="fill:none;"
         d="M-2.8284 -2.8284 L2.8284 2.8284 M-2.8284 2.8284 L2.8284 -2.8284"
         id="path249" />
    </g>
    <g
       transform="translate(162.9309,315.1578)"
       style="fill:blue; text-rendering:geometricPrecision; color-rendering:optimizeQuality; image-rendering:optimizeQuality; color-interpolation:linearRGB; stroke:blue;"
       id="g255">
      <path
         style="stroke:none;"
         d="M-2.8284 -2.8284 L2.8284 2.8284 M-2.8284 2.8284 L2.8284 -2.8284"
         id="path253" />
    </g>
    <g
       transform="translate(162.9309,315.1578)"
       style="stroke-linecap:butt; fill:blue; text-rendering:geometricPrecision; color-rendering:optimizeQuality; image-rendering:optimizeQuality; stroke:blue; color-interpolation:linearRGB; stroke-width:1.3333;"
       id="g259">
      <path
         style="fill:none;"
         d="M-2.8284 -2.8284 L2.8284 2.8284 M-2.8284 2.8284 L2.8284 -2.8284"
         id="path257" />
    </g>
    <g
       transform="translate(180.1289,310.2265)"
       style="fill:blue; text-rendering:geometricPrecision; color-rendering:optimizeQuality; image-rendering:optimizeQuality; color-interpolation:linearRGB; stroke:blue;"
       id="g263">
      <path
         style="stroke:none;"
         d="M-2.8284 -2.8284 L2.8284 2.8284 M-2.8284 2.8284 L2.8284 -2.8284"
         id="path261" />
    </g>
    <g
       transform="translate(180.1289,310.2265)"
       style="stroke-linecap:butt; fill:blue; text-rendering:geometricPrecision; color-rendering:optimizeQuality; image-rendering:optimizeQuality; stroke:blue; color-interpolation:linearRGB; stroke-width:1.3333;"
       id="g267">
      <path
         style="fill:none;"
         d="M-2.8284 -2.8284 L2.8284 2.8284 M-2.8284 2.8284 L2.8284 -2.8284"
         id="path265" />
    </g>
    <g
       transform="translate(198.78,305.6008)"
       style="fill:blue; text-rendering:geometricPrecision; color-rendering:optimizeQuality; image-rendering:optimizeQuality; color-interpolation:linearRGB; stroke:blue;"
       id="g271">
      <path
         style="stroke:none;"
         d="M-2.8284 -2.8284 L2.8284 2.8284 M-2.8284 2.8284 L2.8284 -2.8284"
         id="path269" />
    </g>
    <g
       transform="translate(198.78,305.6008)"
       style="stroke-linecap:butt; fill:blue; text-rendering:geometricPrecision; color-rendering:optimizeQuality; image-rendering:optimizeQuality; stroke:blue; color-interpolation:linearRGB; stroke-width:1.3333;"
       id="g275">
      <path
         style="fill:none;"
         d="M-2.8284 -2.8284 L2.8284 2.8284 M-2.8284 2.8284 L2.8284 -2.8284"
         id="path273" />
    </g>
    <g
       transform="translate(218.8211,301.4591)"
       style="fill:blue; text-rendering:geometricPrecision; color-rendering:optimizeQuality; image-rendering:optimizeQuality; color-interpolation:linearRGB; stroke:blue;"
       id="g279">
      <path
         style="stroke:none;"
         d="M-2.8284 -2.8284 L2.8284 2.8284 M-2.8284 2.8284 L2.8284 -2.8284"
         id="path277" />
    </g>
    <g
       transform="translate(218.8211,301.4591)"
       style="stroke-linecap:butt; fill:blue; text-rendering:geometricPrecision; color-rendering:optimizeQuality; image-rendering:optimizeQuality; stroke:blue; color-interpolation:linearRGB; stroke-width:1.3333;"
       id="g283">
      <path
         style="fill:none;"
         d="M-2.8284 -2.8284 L2.8284 2.8284 M-2.8284 2.8284 L2.8284 -2.8284"
         id="path281" />
    </g>
    <g
       transform="translate(240.1924,297.9224)"
       style="fill:blue; text-rendering:geometricPrecision; color-rendering:optimizeQuality; image-rendering:optimizeQuality; color-interpolation:linearRGB; stroke:blue;"
       id="g287">
      <path
         style="stroke:none;"
         d="M-2.8284 -2.8284 L2.8284 2.8284 M-2.8284 2.8284 L2.8284 -2.8284"
         id="path285" />
    </g>
    <g
       transform="translate(240.1924,297.9224)"
       style="stroke-linecap:butt; fill:blue; text-rendering:geometricPrecision; color-rendering:optimizeQuality; image-rendering:optimizeQuality; stroke:blue; color-interpolation:linearRGB; stroke-width:1.3333;"
       id="g291">
      <path
         style="fill:none;"
         d="M-2.8284 -2.8284 L2.8284 2.8284 M-2.8284 2.8284 L2.8284 -2.8284"
         id="path289" />
    </g>
    <g
       transform="translate(262.8772,295.06)"
       style="fill:blue; text-rendering:geometricPrecision; color-rendering:optimizeQuality; image-rendering:optimizeQuality; color-interpolation:linearRGB; stroke:blue;"
       id="g295">
      <path
         style="stroke:none;"
         d="M-2.8284 -2.8284 L2.8284 2.8284 M-2.8284 2.8284 L2.8284 -2.8284"
         id="path293" />
    </g>
    <g
       transform="translate(262.8772,295.06)"
       style="stroke-linecap:butt; fill:blue; text-rendering:geometricPrecision; color-rendering:optimizeQuality; image-rendering:optimizeQuality; stroke:blue; color-interpolation:linearRGB; stroke-width:1.3333;"
       id="g299">
      <path
         style="fill:none;"
         d="M-2.8284 -2.8284 L2.8284 2.8284 M-2.8284 2.8284 L2.8284 -2.8284"
         id="path297" />
    </g>
    <g
       transform="translate(286.7132,292.8979)"
       style="fill:blue; text-rendering:geometricPrecision; color-rendering:optimizeQuality; image-rendering:optimizeQuality; color-interpolation:linearRGB; stroke:blue;"
       id="g303">
      <path
         style="stroke:none;"
         d="M-2.8284 -2.8284 L2.8284 2.8284 M-2.8284 2.8284 L2.8284 -2.8284"
         id="path301" />
    </g>
    <g
       transform="translate(286.7132,292.8979)"
       style="stroke-linecap:butt; fill:blue; text-rendering:geometricPrecision; color-rendering:optimizeQuality; image-rendering:optimizeQuality; stroke:blue; color-interpolation:linearRGB; stroke-width:1.3333;"
       id="g307">
      <path
         style="fill:none;"
         d="M-2.8284 -2.8284 L2.8284 2.8284 M-2.8284 2.8284 L2.8284 -2.8284"
         id="path305" />
    </g>
    <g
       transform="translate(311.3039,291.4277)"
       style="fill:blue; text-rendering:geometricPrecision; color-rendering:optimizeQuality; image-rendering:optimizeQuality; color-interpolation:linearRGB; stroke:blue;"
       id="g311">
      <path
         style="stroke:none;"
         d="M-2.8284 -2.8284 L2.8284 2.8284 M-2.8284 2.8284 L2.8284 -2.8284"
         id="path309" />
    </g>
    <g
       transform="translate(311.3039,291.4277)"
       style="stroke-linecap:butt; fill:blue; text-rendering:geometricPrecision; color-rendering:optimizeQuality; image-rendering:optimizeQuality; stroke:blue; color-interpolation:linearRGB; stroke-width:1.3333;"
       id="g315">
      <path
         style="fill:none;"
         d="M-2.8284 -2.8284 L2.8284 2.8284 M-2.8284 2.8284 L2.8284 -2.8284"
         id="path313" />
    </g>
    <g
       transform="translate(336.9642,290.6145)"
       style="fill:blue; text-rendering:geometricPrecision; color-rendering:optimizeQuality; image-rendering:optimizeQuality; color-interpolation:linearRGB; stroke:blue;"
       id="g319">
      <path
         style="stroke:none;"
         d="M-2.8284 -2.8284 L2.8284 2.8284 M-2.8284 2.8284 L2.8284 -2.8284"
         id="path317" />
    </g>
    <g
       transform="translate(336.9642,290.6145)"
       style="stroke-linecap:butt; fill:blue; text-rendering:geometricPrecision; color-rendering:optimizeQuality; image-rendering:optimizeQuality; stroke:blue; color-interpolation:linearRGB; stroke-width:1.3333;"
       id="g323">
      <path
         style="fill:none;"
         d="M-2.8284 -2.8284 L2.8284 2.8284 M-2.8284 2.8284 L2.8284 -2.8284"
         id="path321" />
    </g>
    <g
       transform="translate(363.1576,290.4052)"
       style="fill:blue; text-rendering:geometricPrecision; color-rendering:optimizeQuality; image-rendering:optimizeQuality; color-interpolation:linearRGB; stroke:blue;"
       id="g327">
      <path
         style="stroke:none;"
         d="M-2.8284 -2.8284 L2.8284 2.8284 M-2.8284 2.8284 L2.8284 -2.8284"
         id="path325" />
    </g>
    <g
       transform="translate(363.1576,290.4052)"
       style="stroke-linecap:butt; fill:blue; text-rendering:geometricPrecision; color-rendering:optimizeQuality; image-rendering:optimizeQuality; stroke:blue; color-interpolation:linearRGB; stroke-width:1.3333;"
       id="g331">
      <path
         style="fill:none;"
         d="M-2.8284 -2.8284 L2.8284 2.8284 M-2.8284 2.8284 L2.8284 -2.8284"
         id="path329" />
    </g>
    <g
       transform="translate(388.2633,290.7346)"
       style="fill:blue; text-rendering:geometricPrecision; color-rendering:optimizeQuality; image-rendering:optimizeQuality; color-interpolation:linearRGB; stroke:blue;"
       id="g335">
      <path
         style="stroke:none;"
         d="M-2.8284 -2.8284 L2.8284 2.8284 M-2.8284 2.8284 L2.8284 -2.8284"
         id="path333" />
    </g>
    <g
       transform="translate(388.2633,290.7346)"
       style="stroke-linecap:butt; fill:blue; text-rendering:geometricPrecision; color-rendering:optimizeQuality; image-rendering:optimizeQuality; stroke:blue; color-interpolation:linearRGB; stroke-width:1.3333;"
       id="g339">
      <path
         style="fill:none;"
         d="M-2.8284 -2.8284 L2.8284 2.8284 M-2.8284 2.8284 L2.8284 -2.8284"
         id="path337" />
    </g>
    <g
       transform="translate(413.5179,291.5314)"
       style="fill:blue; text-rendering:geometricPrecision; color-rendering:optimizeQuality; image-rendering:optimizeQuality; color-interpolation:linearRGB; stroke:blue;"
       id="g343">
      <path
         style="stroke:none;"
         d="M-2.8284 -2.8284 L2.8284 2.8284 M-2.8284 2.8284 L2.8284 -2.8284"
         id="path341" />
    </g>
    <g
       transform="translate(413.5179,291.5314)"
       style="stroke-linecap:butt; fill:blue; text-rendering:geometricPrecision; color-rendering:optimizeQuality; image-rendering:optimizeQuality; stroke:blue; color-interpolation:linearRGB; stroke-width:1.3333;"
       id="g347">
      <path
         style="fill:none;"
         d="M-2.8284 -2.8284 L2.8284 2.8284 M-2.8284 2.8284 L2.8284 -2.8284"
         id="path345" />
    </g>
    <g
       transform="translate(437.6407,292.7217)"
       style="fill:blue; text-rendering:geometricPrecision; color-rendering:optimizeQuality; image-rendering:optimizeQuality; color-interpolation:linearRGB; stroke:blue;"
       id="g351">
      <path
         style="stroke:none;"
         d="M-2.8284 -2.8284 L2.8284 2.8284 M-2.8284 2.8284 L2.8284 -2.8284"
         id="path349" />
    </g>
    <g
       transform="translate(437.6407,292.7217)"
       style="stroke-linecap:butt; fill:blue; text-rendering:geometricPrecision; color-rendering:optimizeQuality; image-rendering:optimizeQuality; stroke:blue; color-interpolation:linearRGB; stroke-width:1.3333;"
       id="g355">
      <path
         style="fill:none;"
         d="M-2.8284 -2.8284 L2.8284 2.8284 M-2.8284 2.8284 L2.8284 -2.8284"
         id="path353" />
    </g>
    <g
       transform="translate(459.8939,294.2331)"
       style="fill:blue; text-rendering:geometricPrecision; color-rendering:optimizeQuality; image-rendering:optimizeQuality; color-interpolation:linearRGB; stroke:blue;"
       id="g359">
      <path
         style="stroke:none;"
         d="M-2.8284 -2.8284 L2.8284 2.8284 M-2.8284 2.8284 L2.8284 -2.8284"
         id="path357" />
    </g>
    <g
       transform="translate(459.8939,294.2331)"
       style="stroke-linecap:butt; fill:blue; text-rendering:geometricPrecision; color-rendering:optimizeQuality; image-rendering:optimizeQuality; stroke:blue; color-interpolation:linearRGB; stroke-width:1.3333;"
       id="g365">
      <path
         style="fill:none;"
         d="M-2.8284 -2.8284 L2.8284 2.8284 M-2.8284 2.8284 L2.8284 -2.8284"
         id="path361" />
      <path
         transform="translate(-459.8939,-294.2331)"
         style="fill:none; fill-rule:evenodd; stroke:rgb(255,19,19); stroke-linejoin:round;"
         d="M80 327.285 L81.9765 289.5182 L83.8978 229.2818 L85.2284 163.0535 L86.0958 104.6531 L88.8607 62.0373 L97.0989 37.8337 L105.6943 31 L114.2284 38.5459 L125.1575 56.6341 L135.3565 81.5058 L145.5126 109.9293 L153.4826 139.3777 L158.1073 168.0362 L184.3784 194.7196 L225.8125 218.7508 L273.0859 239.835 L324.9629 257.9456 L379.675 273.2307 L432.675 285.9407"
         id="path363" />
    </g>
    <g
       transform="translate(80,327.285)"
       style="fill:rgb(255,19,19); text-rendering:geometricPrecision; color-rendering:optimizeQuality; image-rendering:optimizeQuality; color-interpolation:linearRGB; stroke:rgb(255,19,19);"
       id="g369">
      <path
         style="stroke:none;"
         d="M-2.8284 -2.8284 L2.8284 2.8284 M-2.8284 2.8284 L2.8284 -2.8284"
         id="path367" />
    </g>
    <g
       transform="translate(80,327.285)"
       style="stroke-linecap:butt; fill:rgb(255,19,19); text-rendering:geometricPrecision; color-rendering:optimizeQuality; image-rendering:optimizeQuality; stroke:rgb(255,19,19); color-interpolation:linearRGB; stroke-width:1.3333;"
       id="g373">
      <path
         style="fill:none;"
         d="M-2.8284 -2.8284 L2.8284 2.8284 M-2.8284 2.8284 L2.8284 -2.8284"
         id="path371" />
    </g>
    <g
       transform="translate(81.9765,289.5182)"
       style="fill:rgb(255,19,19); text-rendering:geometricPrecision; color-rendering:optimizeQuality; image-rendering:optimizeQuality; color-interpolation:linearRGB; stroke:rgb(255,19,19);"
       id="g377">
      <path
         style="stroke:none;"
         d="M-2.8284 -2.8284 L2.8284 2.8284 M-2.8284 2.8284 L2.8284 -2.8284"
         id="path375" />
    </g>
    <g
       transform="translate(81.9765,289.5182)"
       style="stroke-linecap:butt; fill:rgb(255,19,19); text-rendering:geometricPrecision; color-rendering:optimizeQuality; image-rendering:optimizeQuality; stroke:rgb(255,19,19); color-interpolation:linearRGB; stroke-width:1.3333;"
       id="g381">
      <path
         style="fill:none;"
         d="M-2.8284 -2.8284 L2.8284 2.8284 M-2.8284 2.8284 L2.8284 -2.8284"
         id="path379" />
    </g>
    <g
       transform="translate(83.8978,229.2818)"
       style="fill:rgb(255,19,19); text-rendering:geometricPrecision; color-rendering:optimizeQuality; image-rendering:optimizeQuality; color-interpolation:linearRGB; stroke:rgb(255,19,19);"
       id="g385">
      <path
         style="stroke:none;"
         d="M-2.8284 -2.8284 L2.8284 2.8284 M-2.8284 2.8284 L2.8284 -2.8284"
         id="path383" />
    </g>
    <g
       transform="translate(83.8978,229.2818)"
       style="stroke-linecap:butt; fill:rgb(255,19,19); text-rendering:geometricPrecision; color-rendering:optimizeQuality; image-rendering:optimizeQuality; stroke:rgb(255,19,19); color-interpolation:linearRGB; stroke-width:1.3333;"
       id="g389">
      <path
         style="fill:none;"
         d="M-2.8284 -2.8284 L2.8284 2.8284 M-2.8284 2.8284 L2.8284 -2.8284"
         id="path387" />
    </g>
    <g
       transform="translate(85.2284,163.0535)"
       style="fill:rgb(255,19,19); text-rendering:geometricPrecision; color-rendering:optimizeQuality; image-rendering:optimizeQuality; color-interpolation:linearRGB; stroke:rgb(255,19,19);"
       id="g393">
      <path
         style="stroke:none;"
         d="M-2.8284 -2.8284 L2.8284 2.8284 M-2.8284 2.8284 L2.8284 -2.8284"
         id="path391" />
    </g>
    <g
       transform="translate(85.2284,163.0535)"
       style="stroke-linecap:butt; fill:rgb(255,19,19); text-rendering:geometricPrecision; color-rendering:optimizeQuality; image-rendering:optimizeQuality; stroke:rgb(255,19,19); color-interpolation:linearRGB; stroke-width:1.3333;"
       id="g397">
      <path
         style="fill:none;"
         d="M-2.8284 -2.8284 L2.8284 2.8284 M-2.8284 2.8284 L2.8284 -2.8284"
         id="path395" />
    </g>
    <g
       transform="translate(86.0958,104.6531)"
       style="fill:rgb(255,19,19); text-rendering:geometricPrecision; color-rendering:optimizeQuality; image-rendering:optimizeQuality; color-interpolation:linearRGB; stroke:rgb(255,19,19);"
       id="g401">
      <path
         style="stroke:none;"
         d="M-2.8284 -2.8284 L2.8284 2.8284 M-2.8284 2.8284 L2.8284 -2.8284"
         id="path399" />
    </g>
    <g
       transform="translate(86.0958,104.6531)"
       style="stroke-linecap:butt; fill:rgb(255,19,19); text-rendering:geometricPrecision; color-rendering:optimizeQuality; image-rendering:optimizeQuality; stroke:rgb(255,19,19); color-interpolation:linearRGB; stroke-width:1.3333;"
       id="g405">
      <path
         style="fill:none;"
         d="M-2.8284 -2.8284 L2.8284 2.8284 M-2.8284 2.8284 L2.8284 -2.8284"
         id="path403" />
    </g>
    <g
       transform="translate(88.8607,62.0373)"
       style="fill:rgb(255,19,19); text-rendering:geometricPrecision; color-rendering:optimizeQuality; image-rendering:optimizeQuality; color-interpolation:linearRGB; stroke:rgb(255,19,19);"
       id="g409">
      <path
         style="stroke:none;"
         d="M-2.8284 -2.8284 L2.8284 2.8284 M-2.8284 2.8284 L2.8284 -2.8284"
         id="path407" />
    </g>
    <g
       transform="translate(88.8607,62.0373)"
       style="stroke-linecap:butt; fill:rgb(255,19,19); text-rendering:geometricPrecision; color-rendering:optimizeQuality; image-rendering:optimizeQuality; stroke:rgb(255,19,19); color-interpolation:linearRGB; stroke-width:1.3333;"
       id="g413">
      <path
         style="fill:none;"
         d="M-2.8284 -2.8284 L2.8284 2.8284 M-2.8284 2.8284 L2.8284 -2.8284"
         id="path411" />
    </g>
    <g
       transform="translate(97.0989,37.8337)"
       style="fill:rgb(255,19,19); text-rendering:geometricPrecision; color-rendering:optimizeQuality; image-rendering:optimizeQuality; color-interpolation:linearRGB; stroke:rgb(255,19,19);"
       id="g417">
      <path
         style="stroke:none;"
         d="M-2.8284 -2.8284 L2.8284 2.8284 M-2.8284 2.8284 L2.8284 -2.8284"
         id="path415" />
    </g>
    <g
       transform="translate(97.0989,37.8337)"
       style="stroke-linecap:butt; fill:rgb(255,19,19); text-rendering:geometricPrecision; color-rendering:optimizeQuality; image-rendering:optimizeQuality; stroke:rgb(255,19,19); color-interpolation:linearRGB; stroke-width:1.3333;"
       id="g421">
      <path
         style="fill:none;"
         d="M-2.8284 -2.8284 L2.8284 2.8284 M-2.8284 2.8284 L2.8284 -2.8284"
         id="path419" />
    </g>
    <g
       transform="translate(105.6943,31)"
       style="fill:rgb(255,19,19); text-rendering:geometricPrecision; color-rendering:optimizeQuality; image-rendering:optimizeQuality; color-interpolation:linearRGB; stroke:rgb(255,19,19);"
       id="g425">
      <path
         style="stroke:none;"
         d="M-2.8284 -2.8284 L2.8284 2.8284 M-2.8284 2.8284 L2.8284 -2.8284"
         id="path423" />
    </g>
    <g
       transform="translate(105.6943,31)"
       style="stroke-linecap:butt; fill:rgb(255,19,19); text-rendering:geometricPrecision; color-rendering:optimizeQuality; image-rendering:optimizeQuality; stroke:rgb(255,19,19); color-interpolation:linearRGB; stroke-width:1.3333;"
       id="g429">
      <path
         style="fill:none;"
         d="M-2.8284 -2.8284 L2.8284 2.8284 M-2.8284 2.8284 L2.8284 -2.8284"
         id="path427" />
    </g>
    <g
       transform="translate(114.2284,38.5459)"
       style="fill:rgb(255,19,19); text-rendering:geometricPrecision; color-rendering:optimizeQuality; image-rendering:optimizeQuality; color-interpolation:linearRGB; stroke:rgb(255,19,19);"
       id="g433">
      <path
         style="stroke:none;"
         d="M-2.8284 -2.8284 L2.8284 2.8284 M-2.8284 2.8284 L2.8284 -2.8284"
         id="path431" />
    </g>
    <g
       transform="translate(114.2284,38.5459)"
       style="stroke-linecap:butt; fill:rgb(255,19,19); text-rendering:geometricPrecision; color-rendering:optimizeQuality; image-rendering:optimizeQuality; stroke:rgb(255,19,19); color-interpolation:linearRGB; stroke-width:1.3333;"
       id="g437">
      <path
         style="fill:none;"
         d="M-2.8284 -2.8284 L2.8284 2.8284 M-2.8284 2.8284 L2.8284 -2.8284"
         id="path435" />
    </g>
    <g
       transform="translate(125.1575,56.6341)"
       style="fill:rgb(255,19,19); text-rendering:geometricPrecision; color-rendering:optimizeQuality; image-rendering:optimizeQuality; color-interpolation:linearRGB; stroke:rgb(255,19,19);"
       id="g441">
      <path
         style="stroke:none;"
         d="M-2.8284 -2.8284 L2.8284 2.8284 M-2.8284 2.8284 L2.8284 -2.8284"
         id="path439" />
    </g>
    <g
       transform="translate(125.1575,56.6341)"
       style="stroke-linecap:butt; fill:rgb(255,19,19); text-rendering:geometricPrecision; color-rendering:optimizeQuality; image-rendering:optimizeQuality; stroke:rgb(255,19,19); color-interpolation:linearRGB; stroke-width:1.3333;"
       id="g445">
      <path
         style="fill:none;"
         d="M-2.8284 -2.8284 L2.8284 2.8284 M-2.8284 2.8284 L2.8284 -2.8284"
         id="path443" />
    </g>
    <g
       transform="translate(135.3565,81.5058)"
       style="fill:rgb(255,19,19); text-rendering:geometricPrecision; color-rendering:optimizeQuality; image-rendering:optimizeQuality; color-interpolation:linearRGB; stroke:rgb(255,19,19);"
       id="g449">
      <path
         style="stroke:none;"
         d="M-2.8284 -2.8284 L2.8284 2.8284 M-2.8284 2.8284 L2.8284 -2.8284"
         id="path447" />
    </g>
    <g
       transform="translate(135.3565,81.5058)"
       style="stroke-linecap:butt; fill:rgb(255,19,19); text-rendering:geometricPrecision; color-rendering:optimizeQuality; image-rendering:optimizeQuality; stroke:rgb(255,19,19); color-interpolation:linearRGB; stroke-width:1.3333;"
       id="g453">
      <path
         style="fill:none;"
         d="M-2.8284 -2.8284 L2.8284 2.8284 M-2.8284 2.8284 L2.8284 -2.8284"
         id="path451" />
    </g>
    <g
       transform="translate(145.5126,109.9293)"
       style="fill:rgb(255,19,19); text-rendering:geometricPrecision; color-rendering:optimizeQuality; image-rendering:optimizeQuality; color-interpolation:linearRGB; stroke:rgb(255,19,19);"
       id="g457">
      <path
         style="stroke:none;"
         d="M-2.8284 -2.8284 L2.8284 2.8284 M-2.8284 2.8284 L2.8284 -2.8284"
         id="path455" />
    </g>
    <g
       transform="translate(145.5126,109.9293)"
       style="stroke-linecap:butt; fill:rgb(255,19,19); text-rendering:geometricPrecision; color-rendering:optimizeQuality; image-rendering:optimizeQuality; stroke:rgb(255,19,19); color-interpolation:linearRGB; stroke-width:1.3333;"
       id="g461">
      <path
         style="fill:none;"
         d="M-2.8284 -2.8284 L2.8284 2.8284 M-2.8284 2.8284 L2.8284 -2.8284"
         id="path459" />
    </g>
    <g
       transform="translate(153.4826,139.3777)"
       style="fill:rgb(255,19,19); text-rendering:geometricPrecision; color-rendering:optimizeQuality; image-rendering:optimizeQuality; color-interpolation:linearRGB; stroke:rgb(255,19,19);"
       id="g465">
      <path
         style="stroke:none;"
         d="M-2.8284 -2.8284 L2.8284 2.8284 M-2.8284 2.8284 L2.8284 -2.8284"
         id="path463" />
    </g>
    <g
       transform="translate(153.4826,139.3777)"
       style="stroke-linecap:butt; fill:rgb(255,19,19); text-rendering:geometricPrecision; color-rendering:optimizeQuality; image-rendering:optimizeQuality; stroke:rgb(255,19,19); color-interpolation:linearRGB; stroke-width:1.3333;"
       id="g469">
      <path
         style="fill:none;"
         d="M-2.8284 -2.8284 L2.8284 2.8284 M-2.8284 2.8284 L2.8284 -2.8284"
         id="path467" />
    </g>
    <g
       transform="translate(158.1073,168.0362)"
       style="fill:rgb(255,19,19); text-rendering:geometricPrecision; color-rendering:optimizeQuality; image-rendering:optimizeQuality; color-interpolation:linearRGB; stroke:rgb(255,19,19);"
       id="g473">
      <path
         style="stroke:none;"
         d="M-2.8284 -2.8284 L2.8284 2.8284 M-2.8284 2.8284 L2.8284 -2.8284"
         id="path471" />
    </g>
    <g
       transform="translate(158.1073,168.0362)"
       style="stroke-linecap:butt; fill:rgb(255,19,19); text-rendering:geometricPrecision; color-rendering:optimizeQuality; image-rendering:optimizeQuality; stroke:rgb(255,19,19); color-interpolation:linearRGB; stroke-width:1.3333;"
       id="g477">
      <path
         style="fill:none;"
         d="M-2.8284 -2.8284 L2.8284 2.8284 M-2.8284 2.8284 L2.8284 -2.8284"
         id="path475" />
    </g>
    <g
       transform="translate(184.3784,194.7196)"
       style="fill:rgb(255,19,19); text-rendering:geometricPrecision; color-rendering:optimizeQuality; image-rendering:optimizeQuality; color-interpolation:linearRGB; stroke:rgb(255,19,19);"
       id="g481">
      <path
         style="stroke:none;"
         d="M-2.8284 -2.8284 L2.8284 2.8284 M-2.8284 2.8284 L2.8284 -2.8284"
         id="path479" />
    </g>
    <g
       transform="translate(184.3784,194.7196)"
       style="stroke-linecap:butt; fill:rgb(255,19,19); text-rendering:geometricPrecision; color-rendering:optimizeQuality; image-rendering:optimizeQuality; stroke:rgb(255,19,19); color-interpolation:linearRGB; stroke-width:1.3333;"
       id="g485">
      <path
         style="fill:none;"
         d="M-2.8284 -2.8284 L2.8284 2.8284 M-2.8284 2.8284 L2.8284 -2.8284"
         id="path483" />
    </g>
    <g
       transform="translate(225.8125,218.7508)"
       style="fill:rgb(255,19,19); text-rendering:geometricPrecision; color-rendering:optimizeQuality; image-rendering:optimizeQuality; color-interpolation:linearRGB; stroke:rgb(255,19,19);"
       id="g489">
      <path
         style="stroke:none;"
         d="M-2.8284 -2.8284 L2.8284 2.8284 M-2.8284 2.8284 L2.8284 -2.8284"
         id="path487" />
    </g>
    <g
       transform="translate(225.8125,218.7508)"
       style="stroke-linecap:butt; fill:rgb(255,19,19); text-rendering:geometricPrecision; color-rendering:optimizeQuality; image-rendering:optimizeQuality; stroke:rgb(255,19,19); color-interpolation:linearRGB; stroke-width:1.3333;"
       id="g493">
      <path
         style="fill:none;"
         d="M-2.8284 -2.8284 L2.8284 2.8284 M-2.8284 2.8284 L2.8284 -2.8284"
         id="path491" />
    </g>
    <g
       transform="translate(273.0859,239.835)"
       style="fill:rgb(255,19,19); text-rendering:geometricPrecision; color-rendering:optimizeQuality; image-rendering:optimizeQuality; color-interpolation:linearRGB; stroke:rgb(255,19,19);"
       id="g497">
      <path
         style="stroke:none;"
         d="M-2.8284 -2.8284 L2.8284 2.8284 M-2.8284 2.8284 L2.8284 -2.8284"
         id="path495" />
    </g>
    <g
       transform="translate(273.0859,239.835)"
       style="stroke-linecap:butt; fill:rgb(255,19,19); text-rendering:geometricPrecision; color-rendering:optimizeQuality; image-rendering:optimizeQuality; stroke:rgb(255,19,19); color-interpolation:linearRGB; stroke-width:1.3333;"
       id="g501">
      <path
         style="fill:none;"
         d="M-2.8284 -2.8284 L2.8284 2.8284 M-2.8284 2.8284 L2.8284 -2.8284"
         id="path499" />
    </g>
    <g
       transform="translate(324.9629,257.9456)"
       style="fill:rgb(255,19,19); text-rendering:geometricPrecision; color-rendering:optimizeQuality; image-rendering:optimizeQuality; color-interpolation:linearRGB; stroke:rgb(255,19,19);"
       id="g505">
      <path
         style="stroke:none;"
         d="M-2.8284 -2.8284 L2.8284 2.8284 M-2.8284 2.8284 L2.8284 -2.8284"
         id="path503" />
    </g>
    <g
       transform="translate(324.9629,257.9456)"
       style="stroke-linecap:butt; fill:rgb(255,19,19); text-rendering:geometricPrecision; color-rendering:optimizeQuality; image-rendering:optimizeQuality; stroke:rgb(255,19,19); color-interpolation:linearRGB; stroke-width:1.3333;"
       id="g509">
      <path
         style="fill:none;"
         d="M-2.8284 -2.8284 L2.8284 2.8284 M-2.8284 2.8284 L2.8284 -2.8284"
         id="path507" />
    </g>
    <g
       transform="translate(379.675,273.2307)"
       style="fill:rgb(255,19,19); text-rendering:geometricPrecision; color-rendering:optimizeQuality; image-rendering:optimizeQuality; color-interpolation:linearRGB; stroke:rgb(255,19,19);"
       id="g513">
      <path
         style="stroke:none;"
         d="M-2.8284 -2.8284 L2.8284 2.8284 M-2.8284 2.8284 L2.8284 -2.8284"
         id="path511" />
    </g>
    <g
       transform="translate(379.675,273.2307)"
       style="stroke-linecap:butt; fill:rgb(255,19,19); text-rendering:geometricPrecision; color-rendering:optimizeQuality; image-rendering:optimizeQuality; stroke:rgb(255,19,19); color-interpolation:linearRGB; stroke-width:1.3333;"
       id="g517">
      <path
         style="fill:none;"
         d="M-2.8284 -2.8284 L2.8284 2.8284 M-2.8284 2.8284 L2.8284 -2.8284"
         id="path515" />
    </g>
    <g
       transform="translate(432.675,285.9407)"
       style="fill:rgb(255,19,19); text-rendering:geometricPrecision; color-rendering:optimizeQuality; image-rendering:optimizeQuality; color-interpolation:linearRGB; stroke:rgb(255,19,19);"
       id="g521">
      <path
         style="stroke:none;"
         d="M-2.8284 -2.8284 L2.8284 2.8284 M-2.8284 2.8284 L2.8284 -2.8284"
         id="path519" />
    </g>
    <g
       transform="translate(432.675,285.9407)"
       style="stroke-linecap:butt; fill:rgb(255,19,19); text-rendering:geometricPrecision; color-rendering:optimizeQuality; image-rendering:optimizeQuality; stroke:rgb(255,19,19); color-interpolation:linearRGB; stroke-width:1.3333;"
       id="g525">
      <path
         style="fill:none;"
         d="M-2.8284 -2.8284 L2.8284 2.8284 M-2.8284 2.8284 L2.8284 -2.8284"
         id="path523" />
    </g>
  </g>
</svg>
